<?xml version="1.0" encoding="UTF-8" standalone="no"?>
<!-- Created with Inkscape (http://www.inkscape.org/) -->

<svg
   version="1.1"
   id="svg23505"
   width="666.66663"
   height="666.66669"
   viewBox="0 0 666.66663 666.66669"
   xmlns="http://www.w3.org/2000/svg"
   xmlns:svg="http://www.w3.org/2000/svg">
  <defs
     id="defs23509" />
  <g
     id="g23513"
     transform="matrix(1.3333333,0,0,-1.3333333,0,666.66665)">
    <g
       id="g23515"
       transform="scale(0.1)">
      <path
         d="M 0,0 H 5000 V 5000 H 0 Z"
         style="fill:#ffffff;fill-opacity:1;fill-rule:nonzero;stroke:none"
         id="path23517" />
      <path
         d="m 1301.86,538.969 h 2576.5 c 101.86,237.011 142.68,502.431 180.57,760.261 30.36,206.65 60.72,413.29 91.08,619.93 53.66,365.22 107.46,732.66 97.36,1101.66 -10.1,369.01 -87.58,743.36 -279.63,1058.61 -101.49,166.62 -242.47,320.21 -427.72,381.36 -312.16,103.03 -653.35,-87.52 -861.63,-341.83 -208.27,-254.32 -328.61,-568.62 -512.17,-841.31 -219.48,-326.04 -530.7,-589.59 -888.45,-752.36 -255.66,-116.33 -567.27,-213.63 -663.653,-477.46 -30.754,-84.18 -34.16,-176.05 -27.191,-265.4 38.031,-487.59 363.547,-896.989 714.934,-1243.461"
         style="fill:#ffcfd9;fill-opacity:1;fill-rule:nonzero;stroke:none"
         id="path23519" />
      <path
         d="m 3484.9,640.031 c 15.42,265.629 109.65,1160.799 682.46,1486.209 26.58,15.11 60.01,-1.55 63.88,-31.87 29.49,-231.26 77.9,-1068.7 -682.57,-1494.35 -29.55,-16.54 -65.73,6.21 -63.77,40.011"
         style="fill:#aeaeae;fill-opacity:1;fill-rule:nonzero;stroke:none"
         id="path23521" />
      <path
         d="m 3528.57,718.109 -2.24,0.532 c -2.47,1.238 -3.46,4.25 -2.22,6.711 6.1,12.097 610.42,1211.348 659.75,1352.748 0.9,2.6 3.77,3.99 6.36,3.06 2.61,-0.91 3.99,-3.76 3.07,-6.37 -49.53,-142 -654.15,-1341.829 -660.25,-1353.931 -0.88,-1.75 -2.64,-2.75 -4.47,-2.75"
         style="fill:#430a22;fill-opacity:1;fill-rule:nonzero;stroke:none"
         id="path23523" />
      <path
         d="m 3537.61,539.469 c 0,0 -24.9,40.801 -35.61,113 -0.4,3.402 -0.9,7 -1.39,10.613 -15.31,124.789 13.79,334.887 266.29,587.388 126.4,126.4 213.61,231.9 276.3,316 1.01,1.4 2.1,2.81 3,4.2 138.81,187.1 155.3,266.3 214.1,231.61 85.5,-50.61 73.8,-1457.1 -722.69,-1262.811"
         style="fill:#f25278;fill-opacity:1;fill-rule:nonzero;stroke:none"
         id="path23525" />
      <path
         d="m 4124.61,1356.38 c -0.91,-1.91 -1.81,-3.81 -2.71,-5.8 -14.19,-30.71 -29.5,-62.61 -46.1,-95.71 -2.29,-4.69 -4.7,-9.4 -7.1,-14.2 -1.99,-3.89 -3.99,-7.9 -5.99,-11.9 -1.8,-3.59 -3.71,-7.2 -5.5,-10.8 l -1.01,-1.9 c -39.39,-76.79 -85.8,-149.1 -138.69,-216 l -1.41,-1.8 c -6.2,-8 -12.69,-15.899 -19.29,-23.801 -1.11,-1.5 -2.41,-3 -3.7,-4.5 -11.21,-13.399 -22.71,-26.598 -34.51,-39.598 -3.09,-3.5 -6.3,-6.891 -9.5,-10.301 h -0.1 c -63.09,-68.199 -133.49,-129.699 -210.19,-183.398 -3.41,-2.391 -6.7,-4.703 -10.11,-7 -36.49,-25.203 -74.39,-48.5 -113.69,-70.102 L 3502,652.469 c -0.4,3.402 -0.9,7 -1.39,10.613 l 9.6,5.289 c 144.9,79.598 272,184.309 376.2,309.098 2.9,3.511 5.8,7 8.6,10.5 4.7,5.511 9.2,11.203 13.59,16.811 4.41,5.59 8.8,11.2 13.11,16.89 47.69,62.3 90,129.31 126.3,200.11 l 0.29,0.69 c 24.41,47.71 46.5,93.2 66.31,136.41 v 0.09 c 3.1,6.7 6.09,13.4 8.99,19.91 77.6,172.99 116.41,307.59 113.3,394.09 -0.09,2.7 2.1,5 4.81,5.11 2.79,0.19 5.1,-2.01 5.19,-4.81 3.31,-92.4 -37.8,-232.29 -122.29,-416.89"
         style="fill:#430a22;fill-opacity:1;fill-rule:nonzero;stroke:none"
         id="path23527" />
      <path
         d="m 4119.41,1349.78 -0.5,0.02 c -2.75,0.28 -4.76,2.73 -4.48,5.47 6.03,60.32 -69.94,206.97 -70.71,208.44 -1.28,2.45 -0.32,5.47 2.12,6.75 2.45,1.26 5.47,0.33 6.75,-2.12 3.19,-6.13 78.11,-150.8 71.79,-214.06 -0.26,-2.58 -2.44,-4.5 -4.97,-4.5"
         style="fill:#430a22;fill-opacity:1;fill-rule:nonzero;stroke:none"
         id="path23529" />
      <path
         d="m 4065.65,1239.78 c -1.85,0 -3.65,1.04 -4.51,2.83 -1.19,2.49 -0.13,5.48 2.35,6.68 5.16,2.47 127.2,60.51 204.15,49.19 2.72,-0.41 4.62,-2.95 4.22,-5.69 -0.41,-2.73 -2.87,-4.55 -5.69,-4.22 -73.72,10.88 -197.12,-47.71 -198.35,-48.31 l -2.17,-0.48"
         style="fill:#430a22;fill-opacity:1;fill-rule:nonzero;stroke:none"
         id="path23531" />
      <path
         d="m 4052.77,1215.21 c -2.06,0 -3.99,1.27 -4.71,3.33 -0.92,2.61 0.45,5.46 3.05,6.38 6.1,2.15 149.94,52.44 213.12,38.49 2.69,-0.6 4.4,-3.26 3.81,-5.96 -0.6,-2.69 -3.21,-4.41 -5.96,-3.81 -60.36,13.27 -206.17,-37.63 -207.65,-38.15 l -1.66,-0.28"
         style="fill:#430a22;fill-opacity:1;fill-rule:nonzero;stroke:none"
         id="path23533" />
      <path
         d="m 3913.15,997.281 -1.33,0.18 c -2.67,0.738 -4.22,3.499 -3.48,6.149 26.57,95.42 -83.25,264.22 -84.37,265.92 -1.51,2.31 -0.86,5.41 1.44,6.93 2.3,1.51 5.4,0.88 6.92,-1.44 4.65,-7.07 113.43,-174.3 85.64,-274.08 -0.62,-2.221 -2.63,-3.659 -4.82,-3.659"
         style="fill:#430a22;fill-opacity:1;fill-rule:nonzero;stroke:none"
         id="path23535" />
      <path
         d="m 4148.15,871.031 c -1.13,0 -2.26,0.379 -3.19,1.149 -78.76,65.429 -291.71,47.8 -293.88,47.609 -2.71,-0.141 -5.17,1.801 -5.41,4.563 -0.24,2.738 1.8,5.168 4.55,5.41 8.91,0.789 219.23,18.148 301.13,-49.891 2.13,-1.762 2.42,-4.922 0.65,-7.039 -0.98,-1.191 -2.41,-1.801 -3.85,-1.801"
         style="fill:#430a22;fill-opacity:1;fill-rule:nonzero;stroke:none"
         id="path23537" />
      <path
         d="m 3891.89,969.781 c -2.45,0 -4.59,1.789 -4.94,4.289 -0.28,2.012 -29.24,201.92 -88.86,272.48 -1.79,2.11 -1.52,5.27 0.59,7.04 2.11,1.77 5.27,1.52 7.04,-0.59 61.48,-72.76 89.95,-269.191 91.14,-277.52 0.39,-2.742 -1.52,-5.269 -4.25,-5.66 l -0.72,-0.039"
         style="fill:#430a22;fill-opacity:1;fill-rule:nonzero;stroke:none"
         id="path23539" />
      <path
         d="m 3849.4,574.781 c -1.73,0 -3.43,0.91 -4.35,2.528 -53.43,94.722 -215.66,152.171 -217.3,152.75 -2.6,0.91 -3.98,3.761 -3.06,6.371 0.9,2.59 3.79,4 6.35,3.062 6.82,-2.371 167.43,-59.254 222.72,-157.25 1.36,-2.422 0.51,-5.461 -1.89,-6.82 l -2.47,-0.641"
         style="fill:#430a22;fill-opacity:1;fill-rule:nonzero;stroke:none"
         id="path23541" />
      <path
         d="m 1120.64,1502.65 c 0,0 35.53,31.97 66.44,98.08 1.36,3.15 2.87,6.46 4.38,9.76 50.37,115.2 82.6,324.85 -87.08,639.04 -84.95,157.29 -138.317,283.33 -174.329,381.85 -0.559,1.63 -1.211,3.28 -1.672,4.88 -79.461,219 -72.609,299.61 -138.875,283.18 -96.406,-24.02 -487.656,-1375.06 331.136,-1416.79"
         style="fill:#aeaeae;fill-opacity:1;fill-rule:nonzero;stroke:none"
         id="path23543" />
      <path
         d="m 791.934,2453.36 c 0.316,-2.08 0.64,-4.16 0.925,-6.33 4.821,-33.49 10.36,-68.43 16.789,-104.89 0.86,-5.17 1.817,-10.35 2.739,-15.64 0.801,-4.31 1.574,-8.72 2.343,-13.12 0.7,-3.97 1.493,-7.96 2.184,-11.92 l 0.414,-2.1 c 15.777,-84.87 39.547,-167.43 71.094,-246.66 l 0.824,-2.13 c 3.652,-9.44 7.617,-18.87 11.688,-28.32 0.621,-1.76 1.437,-3.57 2.254,-5.38 6.894,-16.04 14.14,-31.98 21.722,-47.82 1.977,-4.24 4.067,-8.41 6.16,-12.59 l 0.098,-0.02 c 40.941,-83.4 90.802,-162.48 148.932,-235.88 2.57,-3.27 5.07,-6.42 7.67,-9.59 27.76,-34.59 57.41,-67.77 88.89,-99.71 l 10.42,-10.53 c 1.36,3.15 2.87,6.46 4.38,9.76 l -7.69,7.83 c -116.06,117.73 -207.887,254.42 -272.016,403.82 -1.777,4.19 -3.555,8.37 -5.234,12.53 -2.93,6.61 -5.614,13.36 -8.223,19.98 -2.617,6.63 -5.231,13.25 -7.723,19.94 -27.875,73.35 -49.234,149.65 -63.758,227.88 l -0.086,0.75 c -9.734,52.69 -17.886,102.61 -24.5,149.67 l 0.032,0.1 c -1.055,7.3 -2.012,14.58 -2.93,21.64 -24.855,187.97 -23.516,328.05 4.207,410.04 0.863,2.56 -0.586,5.39 -3.141,6.26 -2.625,0.99 -5.457,-0.46 -6.355,-3.11 -29.605,-87.59 -30.254,-233.4 -2.109,-434.46"
         style="fill:#430a22;fill-opacity:1;fill-rule:nonzero;stroke:none"
         id="path23545" />
      <path
         d="m 795.02,2445.55 0.492,-0.12 c 2.711,-0.52 5.34,1.25 5.851,3.96 11.485,59.52 126.239,178.3 127.403,179.49 1.925,1.98 1.875,5.15 -0.106,7.07 -1.984,1.91 -5.14,1.89 -7.066,-0.1 -4.817,-4.96 -118,-122.14 -130.039,-184.57 -0.496,-2.54 1.043,-5.01 3.465,-5.73"
         style="fill:#430a22;fill-opacity:1;fill-rule:nonzero;stroke:none"
         id="path23547" />
      <path
         d="m 815.055,2324.77 c 1.777,-0.53 3.797,-0.05 5.136,1.42 1.852,2.04 1.696,5.21 -0.336,7.07 -4.246,3.85 -104.574,94.39 -181.539,105.55 -2.73,0.39 -5.269,-1.51 -5.671,-4.24 -0.387,-2.73 1.441,-5.18 4.242,-5.67 73.75,-10.67 175.222,-102.12 176.226,-103.05 l 1.942,-1.08"
         style="fill:#430a22;fill-opacity:1;fill-rule:nonzero;stroke:none"
         id="path23549" />
      <path
         d="m 820.367,2297.54 c 1.973,-0.6 4.196,0.08 5.473,1.84 1.625,2.24 1.133,5.37 -1.106,6.99 -5.222,3.81 -128.664,93.15 -193.187,97.86 -2.754,0.2 -5.156,-1.87 -5.356,-4.62 -0.199,-2.75 1.805,-5.15 4.622,-5.35 61.632,-4.55 186.781,-95.06 188.042,-95.98 l 1.512,-0.74"
         style="fill:#430a22;fill-opacity:1;fill-rule:nonzero;stroke:none"
         id="path23551" />
      <path
         d="m 891.785,2048.77 1.34,-0.21 c 2.766,-0.04 5.039,2.14 5.09,4.91 1.844,99.03 155.375,229.34 156.925,230.65 2.11,1.78 2.38,4.93 0.61,7.04 -1.77,2.11 -4.92,2.4 -7.04,0.61 -6.48,-5.44 -158.565,-134.55 -160.487,-238.12 -0.043,-2.29 1.468,-4.26 3.562,-4.88"
         style="fill:#430a22;fill-opacity:1;fill-rule:nonzero;stroke:none"
         id="path23553" />
      <path
         d="m 630.488,1995.04 c 1.082,-0.32 2.282,-0.28 3.391,0.19 94.187,40.16 293.187,-37.66 295.215,-38.46 2.554,-0.92 5.472,0.24 6.48,2.81 1.024,2.56 -0.238,5.47 -2.808,6.48 -8.309,3.31 -204.868,80.13 -302.805,38.37 -2.551,-1.08 -3.731,-4.02 -2.641,-6.56 0.606,-1.42 1.789,-2.42 3.168,-2.83"
         style="fill:#430a22;fill-opacity:1;fill-rule:nonzero;stroke:none"
         id="path23555" />
      <path
         d="m 904.293,2016.34 c 2.348,-0.71 4.91,0.4 5.961,2.69 0.844,1.86 85.801,185.11 163.116,235.67 2.32,1.5 2.96,4.61 1.45,6.91 -1.52,2.3 -4.61,2.96 -6.92,1.45 -79.72,-52.12 -163.216,-232.2 -166.732,-239.84 -1.156,-2.51 -0.055,-5.48 2.449,-6.64 l 0.676,-0.24"
         style="fill:#430a22;fill-opacity:1;fill-rule:nonzero;stroke:none"
         id="path23557" />
      <path
         d="m 831.977,1625.69 c 1.668,-0.49 3.554,-0.1 4.898,1.18 78.297,75.47 250.185,84.11 251.915,84.18 2.76,0.13 4.9,2.48 4.76,5.23 -0.12,2.74 -2.48,4.92 -5.21,4.76 -7.21,-0.33 -177.379,-8.86 -258.402,-86.95 -1.993,-1.92 -2.047,-5.09 -0.137,-7.08 l 2.176,-1.32"
         style="fill:#430a22;fill-opacity:1;fill-rule:nonzero;stroke:none"
         id="path23559" />
      <path
         d="m 1371.98,530.609 c 1.04,106.532 10.01,1505.851 -240.08,1653.331 -97.5,57.5 -167.806,55.93 -217.615,31.52 C 834.766,2176.48 806.91,2076.95 849.066,1999.07 1040.77,1644.92 1343.03,622.301 1369.95,530.609 h 2.03"
         style="fill:#f25278;fill-opacity:1;fill-rule:nonzero;stroke:none"
         id="path23561" />
      <path
         d="m 1325.23,1002.28 c -2.67,0 -4.89,2.11 -4.99,4.82 -23.01,650.81 -355.709,1122.58 -359.064,1127.27 -1.61,2.24 -1.094,5.37 1.152,6.97 2.242,1.61 5.375,1.09 6.973,-1.15 3.379,-4.71 337.809,-478.79 360.929,-1132.74 0.1,-2.76 -2.06,-5.08 -4.81,-5.17 h -0.19"
         style="fill:#430a22;fill-opacity:1;fill-rule:nonzero;stroke:none"
         id="path23563" />
      <path
         d="m 1050.23,1990.61 c -1.07,0 -2.15,0.34 -3.07,1.05 -65.383,51.03 -169.312,17.86 -170.363,17.52 -2.613,-0.85 -5.445,0.58 -6.309,3.2 -0.859,2.62 0.571,5.44 3.196,6.3 4.457,1.48 110,35.21 179.636,-19.13 2.17,-1.7 2.56,-4.84 0.86,-7.02 -0.99,-1.26 -2.46,-1.92 -3.95,-1.92"
         style="fill:#430a22;fill-opacity:1;fill-rule:nonzero;stroke:none"
         id="path23565" />
      <path
         d="m 1063.56,1960.61 c -0.97,0 -1.95,0.28 -2.81,0.86 -60.49,41.41 -167.797,4.79 -168.863,4.41 -2.625,-0.89 -5.461,0.47 -6.367,3.08 -0.911,2.61 0.464,5.45 3.074,6.36 4.586,1.6 113.136,38.65 177.796,-5.58 2.28,-1.57 2.86,-4.68 1.31,-6.96 -0.97,-1.41 -2.54,-2.17 -4.14,-2.17"
         style="fill:#430a22;fill-opacity:1;fill-rule:nonzero;stroke:none"
         id="path23567" />
      <path
         d="m 1155.24,1772.28 -0.98,0.09 c -2.71,0.54 -4.47,3.18 -3.92,5.88 11.97,59.87 77.94,98.41 80.74,100.02 2.38,1.38 5.44,0.55 6.82,-1.84 1.38,-2.4 0.56,-5.45 -1.84,-6.83 -0.64,-0.37 -64.84,-37.93 -75.92,-93.3 -0.47,-2.38 -2.56,-4.02 -4.9,-4.02"
         style="fill:#430a22;fill-opacity:1;fill-rule:nonzero;stroke:none"
         id="path23569" />
      <path
         d="M 1387.1,530.609 C 1342.64,871.012 1189.91,1792.01 821.902,1970.61 397.043,2176.79 375.238,1683.94 548.574,1503.94 641.633,1407.3 1103.75,798.738 1306.37,530.609 h 80.73"
         style="fill:#aeaeae;fill-opacity:1;fill-rule:nonzero;stroke:none"
         id="path23571" />
      <path
         d="m 1351.9,535.609 c -2.27,0 -4.32,1.551 -4.86,3.852 -2.4,10.219 -246.11,1024.589 -814.13,1323.389 -2.441,1.29 -3.383,4.31 -2.094,6.75 1.289,2.45 4.305,3.38 6.75,2.1 299.149,-157.35 505.984,-510.73 626.814,-779.46 130.77,-290.818 191.79,-547.931 192.39,-550.49 0.63,-2.691 -1.04,-5.379 -3.72,-6.008 l -1.15,-0.133"
         style="fill:#430a22;fill-opacity:1;fill-rule:nonzero;stroke:none"
         id="path23573" />
      <path
         d="m 883.563,1925.61 c -1.153,0 -2.309,0.4 -3.25,1.21 -0.938,0.8 -95.567,80.66 -240.352,88.8 -2.758,0.15 -4.867,2.5 -4.711,5.27 0.145,2.75 2.484,5.07 5.27,4.71 148.308,-8.33 245.343,-90.38 246.312,-91.21 2.09,-1.79 2.328,-4.95 0.531,-7.05 -0.992,-1.14 -2.386,-1.73 -3.8,-1.73"
         style="fill:#430a22;fill-opacity:1;fill-rule:nonzero;stroke:none"
         id="path23575" />
      <path
         d="m 539.402,1528.11 c -1.382,0 -2.765,0.57 -3.754,1.69 -1.824,2.07 -1.621,5.24 0.457,7.07 1.254,1.09 127.157,110.01 284.75,103.74 2.758,-0.12 4.907,-2.45 4.793,-5.2 -0.113,-2.76 -2.464,-4.86 -5.195,-4.8 -153.754,6.36 -276.527,-100.19 -277.75,-101.26 -0.949,-0.83 -2.129,-1.24 -3.301,-1.24"
         style="fill:#430a22;fill-opacity:1;fill-rule:nonzero;stroke:none"
         id="path23577" />
      <path
         d="m 958.148,1456.86 c -2.382,0 -4.492,1.7 -4.921,4.14 -12.59,71.78 62.083,265.69 65.263,273.91 1,2.58 3.89,3.87 6.47,2.85 2.57,-0.99 3.85,-3.88 2.86,-6.46 -0.77,-1.98 -76.859,-199.51 -64.738,-268.59 0.473,-2.71 -1.344,-5.3 -4.062,-5.78 l -0.872,-0.07"
         style="fill:#430a22;fill-opacity:1;fill-rule:nonzero;stroke:none"
         id="path23579" />
      <path
         d="m 979.398,1423.11 c -2.683,0 -4.902,2.12 -4.988,4.83 -3.75,114.96 68.7,258.87 71.79,264.93 1.25,2.47 4.23,3.47 6.72,2.19 2.46,-1.25 3.44,-4.26 2.19,-6.72 -0.74,-1.47 -74.372,-147.71 -70.712,-260.07 0.094,-2.76 -2.07,-5.08 -4.832,-5.16 h -0.168"
         style="fill:#430a22;fill-opacity:1;fill-rule:nonzero;stroke:none"
         id="path23581" />
      <path
         d="M 1336.34,530.609 C 1198.61,792.219 878.855,1374.94 721.902,1457.28 518.574,1563.94 385.238,1340.61 495.238,1217.28 575.48,1127.3 1021.06,735.852 1256.3,530.609 h 80.04"
         style="fill:#f25278;fill-opacity:1;fill-rule:nonzero;stroke:none"
         id="path23583" />
      <path
         d="m 1278.57,542.281 c -1.8,0 -3.54,0.969 -4.43,2.68 -118.28,226.687 -726.296,832.679 -732.425,838.769 -1.957,1.94 -1.969,5.12 -0.02,7.07 1.95,1.96 5.114,1.95 7.071,0.02 6.136,-6.1 615.254,-613.179 734.234,-841.23 1.28,-2.449 0.33,-5.469 -2.12,-6.75 l -2.31,-0.559"
         style="fill:#430a22;fill-opacity:1;fill-rule:nonzero;stroke:none"
         id="path23585" />
      <path
         d="m 509.41,1220.61 c -1.676,0 -3.305,0.84 -4.254,2.36 -1.457,2.35 -0.73,5.43 1.614,6.88 4.128,2.57 101.937,62.34 173.621,26.48 2.468,-1.24 3.472,-4.24 2.238,-6.71 -1.242,-2.46 -4.234,-3.48 -6.711,-2.24 -66.656,33.33 -162.914,-25.43 -163.883,-26.02 l -2.625,-0.75"
         style="fill:#430a22;fill-opacity:1;fill-rule:nonzero;stroke:none"
         id="path23587" />
      <path
         d="m 523.16,1194.36 c -1.844,0 -3.613,1.01 -4.488,2.78 -1.227,2.47 -0.211,5.47 2.266,6.7 5.042,2.5 124.218,60.81 177.164,31.13 2.406,-1.36 3.265,-4.4 1.914,-6.82 -1.356,-2.4 -4.418,-3.24 -6.809,-1.91 -48.402,27.2 -166.648,-30.77 -167.836,-31.37 l -2.211,-0.51"
         style="fill:#430a22;fill-opacity:1;fill-rule:nonzero;stroke:none"
         id="path23589" />
      <path
         d="m 784.402,1139.36 c -1.98,0 -3.859,1.19 -4.64,3.14 -25.653,64.12 40.097,170.04 42.91,174.51 1.469,2.34 4.562,3.04 6.891,1.58 2.335,-1.47 3.042,-4.56 1.574,-6.89 -0.657,-1.06 -65.856,-106.08 -42.09,-165.49 1.027,-2.56 -0.223,-5.47 -2.785,-6.49 l -1.86,-0.36"
         style="fill:#430a22;fill-opacity:1;fill-rule:nonzero;stroke:none"
         id="path23591" />
      <path
         d="m 811.902,941.859 c -1.968,0 -3.843,1.18 -4.632,3.121 -1.036,2.559 0.195,5.469 2.753,6.5 3.864,1.579 95.051,38.102 139.008,17.399 2.5,-1.168 3.571,-4.149 2.399,-6.649 -1.176,-2.492 -4.145,-3.57 -6.657,-2.398 -40.054,18.84 -130.085,-17.242 -130.988,-17.602 l -1.883,-0.371"
         style="fill:#430a22;fill-opacity:1;fill-rule:nonzero;stroke:none"
         id="path23593" />
      <path
         d="m 1021.9,878.109 c -2.15,0 -4.15,1.403 -4.79,3.582 -10.45,35.278 31.09,115.34 32.87,118.729 1.27,2.45 4.29,3.38 6.74,2.12 2.45,-1.28 3.39,-4.31 2.11,-6.751 -11.55,-22.109 -39.86,-85.18 -32.13,-111.269 0.78,-2.649 -0.73,-5.43 -3.37,-6.211 l -1.43,-0.2"
         style="fill:#430a22;fill-opacity:1;fill-rule:nonzero;stroke:none"
         id="path23595" />
      <path
         d="m 1044.4,853.109 c -2.32,0 -4.4,1.61 -4.89,3.973 -10.29,48.887 28.96,113.418 30.64,116.137 1.43,2.363 4.52,3.121 6.87,1.64 2.36,-1.437 3.09,-4.519 1.64,-6.867 -0.39,-0.64 -38.83,-63.883 -29.36,-108.863 0.57,-2.688 -1.17,-5.348 -3.87,-5.918 l -1.03,-0.102"
         style="fill:#430a22;fill-opacity:1;fill-rule:nonzero;stroke:none"
         id="path23597" />
      <path
         d="m 2115.24,602.691 c 0,-38.429 -31.15,-69.582 -69.58,-69.582 -38.43,0 -69.58,31.153 -69.58,69.582 0,38.43 31.15,69.59 69.58,69.59 38.43,0 69.58,-31.16 69.58,-69.59"
         style="fill:#430a22;fill-opacity:1;fill-rule:nonzero;stroke:none"
         id="path23599" />
      <path
         d="m 2263.58,602.691 c 0,-38.429 -31.15,-69.582 -69.59,-69.582 -38.42,0 -69.58,31.153 -69.58,69.582 0,38.43 31.16,69.59 69.58,69.59 38.44,0 69.59,-31.16 69.59,-69.59"
         style="fill:#430a22;fill-opacity:1;fill-rule:nonzero;stroke:none"
         id="path23601" />
      <path
         d="m 2232.33,602.691 c 0,-21.171 -17.16,-38.332 -38.34,-38.332 -21.17,0 -38.33,17.161 -38.33,38.332 0,21.168 17.16,38.34 38.33,38.34 21.18,0 38.34,-17.172 38.34,-38.34"
         style="fill:#aeaeae;fill-opacity:1;fill-rule:nonzero;stroke:none"
         id="path23603" />
      <path
         d="m 1627.74,602.691 c 0,-38.429 31.16,-69.582 69.59,-69.582 38.43,0 69.58,31.153 69.58,69.582 0,38.43 -31.15,69.59 -69.58,69.59 -38.43,0 -69.59,-31.16 -69.59,-69.59"
         style="fill:#430a22;fill-opacity:1;fill-rule:nonzero;stroke:none"
         id="path23605" />
      <path
         d="m 1479.41,602.691 c 0,-38.429 31.16,-69.582 69.58,-69.582 38.44,0 69.59,31.153 69.59,69.582 0,38.43 -31.15,69.59 -69.59,69.59 -38.42,0 -69.58,-31.16 -69.58,-69.59"
         style="fill:#430a22;fill-opacity:1;fill-rule:nonzero;stroke:none"
         id="path23607" />
      <path
         d="m 1510.66,602.691 c 0,-21.171 17.16,-38.332 38.33,-38.332 21.18,0 38.34,17.161 38.34,38.332 0,21.168 -17.16,38.34 -38.34,38.34 -21.17,0 -38.33,-17.172 -38.33,-38.34"
         style="fill:#aeaeae;fill-opacity:1;fill-rule:nonzero;stroke:none"
         id="path23609" />
      <path
         d="m 1701.91,1952.28 h -60.83 v 816.66 h 60.83 v -816.66"
         style="fill:#ffffff;fill-opacity:1;fill-rule:nonzero;stroke:none"
         id="path23611" />
      <path
         d="m 2101.91,1952.28 h -60.83 v 816.66 h 60.83 v -816.66"
         style="fill:#ffffff;fill-opacity:1;fill-rule:nonzero;stroke:none"
         id="path23613" />
      <path
         d="m 2114.83,2733.11 h -80 v 86.66 h -326.67 v -77.5 h -80 v 110 c 0,26.24 21.27,47.5 47.5,47.5 h 391.67 c 26.23,0 47.5,-21.26 47.5,-47.5 v -119.16"
         style="fill:#430a22;fill-opacity:1;fill-rule:nonzero;stroke:none"
         id="path23615" />
      <path
         d="m 1701.75,2017.59 h -60.63 v 56.25 h 60.63 v -56.25"
         style="fill:#430a22;fill-opacity:1;fill-rule:nonzero;stroke:none"
         id="path23617" />
      <path
         d="m 2101.75,2017.59 h -60.63 v 56.25 h 60.63 v -56.25"
         style="fill:#430a22;fill-opacity:1;fill-rule:nonzero;stroke:none"
         id="path23619" />
      <path
         d="m 2262.6,673.91 h -782.2 c -63.98,0 -115.84,51.852 -115.84,115.832 V 1901.67 c 0,63.97 51.86,115.84 115.84,115.84 h 782.2 c 63.97,0 115.83,-51.87 115.83,-115.84 V 789.742 c 0,-63.98 -51.86,-115.832 -115.83,-115.832"
         style="fill:#f25278;fill-opacity:1;fill-rule:nonzero;stroke:none"
         id="path23621" />
      <path
         d="m 2213.16,674.172 h -686.67 v 90 h 686.67 v -90"
         style="fill:#430a22;fill-opacity:1;fill-rule:nonzero;stroke:none"
         id="path23623" />
      <path
         d="m 1538.16,774.172 c -12.89,0 -23.33,10.449 -23.33,23.34 v 929.998 c 0,12.88 10.44,23.33 23.33,23.33 12.89,0 23.33,-10.45 23.33,-23.33 V 797.512 c 0,-12.891 -10.44,-23.34 -23.33,-23.34"
         style="fill:#ff859f;fill-opacity:1;fill-rule:nonzero;stroke:none"
         id="path23625" />
      <path
         d="m 1671.49,774.172 c -12.88,0 -23.33,10.449 -23.33,23.34 v 929.998 c 0,12.88 10.45,23.33 23.33,23.33 12.89,0 23.34,-10.45 23.34,-23.33 V 797.512 c 0,-12.891 -10.45,-23.34 -23.34,-23.34"
         style="fill:#ff859f;fill-opacity:1;fill-rule:nonzero;stroke:none"
         id="path23627" />
      <path
         d="m 1804.83,774.172 c -12.89,0 -23.34,10.449 -23.34,23.34 v 929.998 c 0,12.88 10.45,23.33 23.34,23.33 12.89,0 23.33,-10.45 23.33,-23.33 V 797.512 c 0,-12.891 -10.44,-23.34 -23.33,-23.34"
         style="fill:#ff859f;fill-opacity:1;fill-rule:nonzero;stroke:none"
         id="path23629" />
      <path
         d="m 1938.16,774.172 c -12.89,0 -23.33,10.449 -23.33,23.34 v 929.998 c 0,12.88 10.44,23.33 23.33,23.33 12.89,0 23.33,-10.45 23.33,-23.33 V 797.512 c 0,-12.891 -10.44,-23.34 -23.33,-23.34"
         style="fill:#ff859f;fill-opacity:1;fill-rule:nonzero;stroke:none"
         id="path23631" />
      <path
         d="m 2071.49,774.172 c -12.88,0 -23.33,10.449 -23.33,23.34 v 929.998 c 0,12.88 10.45,23.33 23.33,23.33 12.89,0 23.34,-10.45 23.34,-23.33 V 797.512 c 0,-12.891 -10.45,-23.34 -23.34,-23.34"
         style="fill:#ff859f;fill-opacity:1;fill-rule:nonzero;stroke:none"
         id="path23633" />
      <path
         d="m 2204.83,774.172 c -12.89,0 -23.34,10.449 -23.34,23.34 v 929.998 c 0,12.88 10.45,23.33 23.34,23.33 12.89,0 23.33,-10.45 23.33,-23.33 V 797.512 c 0,-12.891 -10.44,-23.34 -23.33,-23.34"
         style="fill:#ff859f;fill-opacity:1;fill-rule:nonzero;stroke:none"
         id="path23635" />
      <path
         d="m 1559.57,1873.24 -92.56,-160.31 c -6.04,-10.46 1.51,-23.54 13.59,-23.54 h 185.11 c 12.08,0 19.63,13.08 13.59,23.54 l -92.56,160.31 c -6.04,10.46 -21.13,10.46 -27.17,0"
         style="fill:#ffffff;fill-opacity:1;fill-rule:nonzero;stroke:none"
         id="path23637" />
      <path
         d="M 1563.76,1837.83 1499.77,1727 c -4.17,-7.22 1.05,-16.27 9.4,-16.27 h 127.97 c 8.35,0 13.57,9.05 9.4,16.27 l -63.99,110.83 c -4.18,7.24 -14.62,7.24 -18.79,0"
         style="fill:#f25278;fill-opacity:1;fill-rule:nonzero;stroke:none"
         id="path23639" />
      <path
         d="m 2014.4,1880.19 c 0,-48.56 -39.36,-87.91 -87.91,-87.91 -48.56,0 -87.92,39.35 -87.92,87.91 0,48.55 39.36,87.92 87.92,87.92 48.55,0 87.91,-39.37 87.91,-87.92"
         style="fill:#ffffff;fill-opacity:1;fill-rule:nonzero;stroke:none"
         id="path23641" />
      <path
         d="m 1996.1,1880.18 c 0,-30.51 -19.69,-56.51 -47.1,-65.81 l -0.69,-0.3 c -6.9,-2.29 -14.2,-3.49 -21.81,-3.49 -8.69,0 -17.1,1.59 -24.8,4.6 l -0.6,0.29 c -25.89,10.11 -44.2,35.3 -44.2,64.71 0,29.39 18.31,54.6 44.2,64.69 l 0.6,0.31 c 7.7,2.99 16.11,4.6 24.8,4.6 7.61,0 14.91,-1.21 21.81,-3.51 l 0.69,-0.29 c 27.41,-9.31 47.1,-35.31 47.1,-65.8"
         style="fill:#ff859f;fill-opacity:1;fill-rule:nonzero;stroke:none"
         id="path23643" />
      <path
         d="m 1901.7,1945.18 v -130 l -0.6,0.29 c -25.89,10.11 -44.2,35.3 -44.2,64.71 0,29.39 18.31,54.6 44.2,64.69 l 0.6,0.31"
         style="fill:#f25278;fill-opacity:1;fill-rule:nonzero;stroke:none"
         id="path23645" />
      <path
         d="m 1996.1,1880.18 c 0,-30.51 -19.69,-56.51 -47.1,-65.81 l -0.69,-0.3 v 132.2 l 0.69,-0.29 c 27.41,-9.31 47.1,-35.31 47.1,-65.8"
         style="fill:#f25278;fill-opacity:1;fill-rule:nonzero;stroke:none"
         id="path23647" />
      <path
         d="m 1416.27,741.238 -7.07,7.071 46.04,46.043 V 1901.87 l -43.54,43.54 7.07,7.07 46.47,-46.46 V 790.211 l -48.97,-48.973"
         style="fill:#430a22;fill-opacity:1;fill-rule:nonzero;stroke:none"
         id="path23649" />
      <path
         d="m 2323.37,741.238 -48.97,48.973 V 1906.02 l 46.47,46.46 7.07,-7.07 -43.54,-43.54 V 794.352 l 46.04,-46.043 -7.07,-7.071"
         style="fill:#430a22;fill-opacity:1;fill-rule:nonzero;stroke:none"
         id="path23651" />
      <path
         d="M 3550.68,532.281 H 3440.05 V 3670.16 h 110.63 V 532.281"
         style="fill:#430a22;fill-opacity:1;fill-rule:nonzero;stroke:none"
         id="path23653" />
      <path
         d="m 3191.94,3293.56 725.65,24.01 12.06,-205.45 -723.36,-61.02 c -1.25,-0.1 -2.51,0.19 -3.59,0.86 l -178.48,108.52 c -4.35,2.64 -4.62,9.07 -0.52,12.05 l 164.94,119.89 c 0.98,0.7 2.12,1.1 3.3,1.14"
         style="fill:#430a22;fill-opacity:1;fill-rule:nonzero;stroke:none"
         id="path23655" />
      <g
         id="g23657"
         transform="scale(10)">
        <text
           xml:space="preserve"
           transform="matrix(0.998407,0.0564198,0.0564197,-0.998407,321.798,311.122)"
           style="font-variant:normal;font-weight:500;font-size:16.4426px;font-family:Montserrat;-inkscape-font-specification:Montserrat-Medium;writing-mode:lr-tb;fill:#ffffff;fill-opacity:1;fill-rule:nonzero;stroke:none"
           id="text23661"><tspan
             x="0 9.6511431 21.604912 33.032318 44.493008 55.510391"
             y="0"
             id="tspan23659">TRAVEL</tspan></text>
      </g>
      <path
         d="M 3826.95,2724.79 3122.76,2548 l -55.19,198.26 694.14,212.48 c 1.2,0.37 2.49,0.34 3.69,-0.08 l 197.38,-68.36 c 4.81,-1.67 6.44,-7.89 3.05,-11.68 L 3829.94,2726.6 c -0.8,-0.9 -1.83,-1.53 -2.99,-1.81"
         style="fill:#430a22;fill-opacity:1;fill-rule:nonzero;stroke:none"
         id="path23663" />
      <g
         id="g23665"
         transform="scale(10)">
        <text
           xml:space="preserve"
           transform="matrix(0.974582,0.224031,0.224031,-0.974582,333.24,265.854)"
           style="font-variant:normal;font-weight:500;font-size:16.4424px;font-family:Montserrat;-inkscape-font-specification:Montserrat-Medium;writing-mode:lr-tb;fill:#ffffff;fill-opacity:1;fill-rule:nonzero;stroke:none"
           id="text23669"><tspan
             x="0 9.6516886 23.003729"
             y="0"
             id="tspan23667">THE</tspan></text>
      </g>
      <path
         d="m 3168.61,2436.89 725.65,24.01 12.06,-205.45 -723.36,-61.02 c -1.26,-0.1 -2.51,0.2 -3.6,0.86 l -178.48,108.52 c -4.35,2.65 -4.62,9.07 -0.51,12.06 l 164.94,119.88 c 0.97,0.71 2.12,1.11 3.3,1.14"
         style="fill:#430a22;fill-opacity:1;fill-rule:nonzero;stroke:none"
         id="path23671" />
      <g
         id="g23673"
         transform="scale(10)">
        <text
           xml:space="preserve"
           transform="matrix(0.998644,0.0520504,0.0520504,-0.998644,319.443,225.719)"
           style="font-variant:normal;font-weight:500;font-size:16.4424px;font-family:Montserrat;-inkscape-font-specification:Montserrat-Medium;writing-mode:lr-tb;fill:#ffffff;fill-opacity:1;fill-rule:nonzero;stroke:none"
           id="text23677"><tspan
             x="0 18.15251 31.963259 43.916878 53.683048"
             y="0"
             id="tspan23675">WORLD</tspan></text>
      </g>
      <path
         d="m 3439.82,2216.86 c 18.09,5.39 36.43,7.73 54.82,9.35 18.41,1.32 36.88,1.89 55.59,-0.6 -18.08,-5.41 -36.41,-7.76 -54.8,-9.36 -18.42,-1.29 -36.89,-1.87 -55.61,0.61"
         style="fill:#ffffff;fill-opacity:1;fill-rule:nonzero;stroke:none"
         id="path23679" />
      <path
         d="m 3440.65,2446.03 c 18.17,4.42 36.4,5.8 54.66,6.45 18.27,0.33 36.56,-0.07 54.92,-3.54 -18.15,-4.45 -36.39,-5.82 -54.65,-6.45 -18.27,-0.32 -36.56,0.08 -54.93,3.54"
         style="fill:#ffffff;fill-opacity:1;fill-rule:nonzero;stroke:none"
         id="path23681" />
      <path
         d="m 3440.65,2628.52 c 17.37,8.15 35.42,13.32 53.65,17.78 18.3,4.17 36.76,7.61 55.93,8.06 -17.35,-8.17 -35.41,-13.33 -53.64,-17.78 -18.3,-4.14 -36.77,-7.59 -55.94,-8.06"
         style="fill:#ffffff;fill-opacity:1;fill-rule:nonzero;stroke:none"
         id="path23683" />
      <path
         d="m 3440.65,2860.61 c 17.02,9.13 34.89,15.32 52.96,20.83 18.18,5.21 36.55,9.7 55.79,11.25 -17,-9.15 -34.87,-15.35 -52.95,-20.83 -18.18,-5.19 -36.56,-9.69 -55.8,-11.25"
         style="fill:#ffffff;fill-opacity:1;fill-rule:nonzero;stroke:none"
         id="path23685" />
      <path
         d="m 3441.07,3070.61 c 8.71,3.6 17.8,5.17 26.78,6.81 9.01,1.6 18.07,2.58 27.13,3.42 18.16,1.35 36.39,1.9 54.84,-0.65 -17.84,-5.35 -35.9,-7.67 -54.02,-9.31 -9.07,-0.65 -18.14,-1.19 -27.26,-1.2 -9.12,-0.18 -18.28,0.42 -27.47,0.93"
         style="fill:#ffffff;fill-opacity:1;fill-rule:nonzero;stroke:none"
         id="path23687" />
      <path
         d="m 3442.32,3302.27 c 17.77,4.29 35.6,5.52 53.44,6.04 17.85,0.2 35.72,-0.34 53.64,-3.95 -17.77,-4.32 -35.59,-5.55 -53.44,-6.04 -17.85,-0.18 -35.72,0.36 -53.64,3.95"
         style="fill:#ffffff;fill-opacity:1;fill-rule:nonzero;stroke:none"
         id="path23689" />
      <path
         d="M 4538.15,508.531 H 588.152 c -8.285,0 -15,6.707 -15,15 0,8.278 6.715,15 15,15 H 4538.15 c 8.29,0 15,-6.722 15,-15 0,-8.293 -6.71,-15 -15,-15"
         style="fill:#430a22;fill-opacity:1;fill-rule:nonzero;stroke:none"
         id="path23691" />
      <path
         d="m 3053.22,922.441 -57.09,50.539 0.04,0.059 -130.61,208.591 c -25.59,2.16 -51.18,4.66 -76.75,7.64 -72.9,8.47 -145.64,18.36 -218.51,27.08 181.34,-188.26 314.04,-325.428 314.72,-326.139 l -0.03,-0.012 c 0,0 -82.88,-134.078 -109.39,-188.64 -2.82,-5.789 4.08,-11.399 9.24,-7.559 l 267.14,198.992 c 9.66,7.199 10.27,21.457 1.24,29.449"
         style="fill:#f68872;fill-opacity:1;fill-rule:nonzero;stroke:none"
         id="path23693" />
      <path
         d="m 3008.73,969.469 c 12.94,-6.641 35.13,-20.879 48.06,-45.348 0,0 -217.15,-195.172 -298.63,-226.519 0,0 40.69,52.55 61.75,87.609 16.27,27.078 37.82,94.738 46.79,124.129 2.17,7.101 10.18,10.398 16.75,6.922 11.53,-6.114 28.53,-14.192 40.06,-15.442 17.27,-1.879 50.97,33.52 69.99,64.481 3.18,5.179 9.82,6.937 15.23,4.168"
         style="fill:#aeaeae;fill-opacity:1;fill-rule:nonzero;stroke:none"
         id="path23695" />
      <path
         d="m 3056.79,924.121 c 0,0 20.59,-21.879 22.56,-30.23 1.96,-8.36 -208.57,-199.95 -306.75,-235.219 0,0 -16.76,17.629 -14.44,38.93 l 298.63,226.519"
         style="fill:#ffffff;fill-opacity:1;fill-rule:nonzero;stroke:none"
         id="path23697" />
      <path
         d="m 2862.32,890.191 c 5.09,1.27 10.28,2.059 15.64,2.239 2.71,0.058 5.39,0.019 8.51,-0.899 1.33,-0.41 3.89,-1.332 4.84,-4.551 0.45,-1.769 -0.03,-2.89 -0.47,-4.101 -0.48,-0.969 -1.03,-1.668 -1.58,-2.418 -4.39,-4.75 -8.97,-7.211 -13.69,-9.84 -4.72,-2.531 -9.45,-4.73 -14.46,-6.672 l 0.5,8.93 c 6.23,-3.109 11.99,-6.547 17.6,-10.918 2.79,-2.219 5.56,-4.492 7.97,-8.012 1.05,-1.898 2.63,-4.019 2.2,-7.73 -0.03,-1.809 -1.12,-3.219 -2.09,-4.59 -0.89,-0.91 -1.66,-1.477 -2.52,-2.149 -6.62,-4.109 -13.03,-5.808 -19.62,-7.488 -6.58,-1.512 -13.19,-2.652 -19.92,-3.051 l 18.19,8.098 c 5.81,2.75 12.03,5.582 16.28,9.121 l 1.14,1.172 -0.21,-0.133 -0.95,1.41 c -1.53,1.821 -3.94,3.789 -6.35,5.621 -4.97,3.602 -10.65,6.891 -16.13,9.942 l -0.15,0.078 c -2.36,1.32 -3.2,4.289 -1.89,6.648 0.58,1.051 1.5,1.813 2.54,2.204 4.61,1.738 9.39,3.597 13.96,5.539 4.41,2.039 9.29,4.179 12.31,6.699 l 0.84,0.308 c 0.4,-0.687 0.43,-0.019 -0.58,0.403 -1.71,0.918 -4.22,1.488 -6.62,2.031 -4.93,0.93 -10.09,1.52 -15.29,2.109"
         style="fill:#430a22;fill-opacity:1;fill-rule:nonzero;stroke:none"
         id="path23699" />
      <path
         d="m 3026.07,953.531 c 1.14,-8.519 0.99,-15.531 1.46,-22.441 0.15,-3.418 0.62,-6.711 1.05,-10.149 0.53,-3.461 1.48,-6.839 2.49,-11.16 -4.07,1.457 -7.55,4.52 -9.76,8.321 -2.27,3.769 -3.4,8.109 -3.75,12.39 -0.13,4.289 0.36,8.508 1.8,12.449 1.37,3.918 3.41,7.661 6.71,10.59"
         style="fill:#430a22;fill-opacity:1;fill-rule:nonzero;stroke:none"
         id="path23701" />
      <path
         d="m 2740.16,1195.18 c -77.96,9.61 -155.82,20.16 -233.94,28.49 -7.46,0.79 -14.94,1.4 -22.41,2.05 -24.59,-292.322 -43.97,-528.509 -47.98,-577.419 -24.43,-9.512 -148.17,-57.961 -196.79,-82.68 -5.74,-2.922 -3.63,-11.562 2.81,-11.621 l 333.09,-2.598 c 12.05,-0.101 21.13,10.899 18.76,22.719 l -15,74.758 156.75,529.761 c 1.62,5.5 3.14,11.03 4.71,16.54"
         style="fill:#f68872;fill-opacity:1;fill-rule:nonzero;stroke:none"
         id="path23703" />
      <path
         d="m 2589.03,647.879 c 6.46,-13.039 15.81,-37.68 11.63,-65.047 0,0 -290.65,-27.621 -374.78,-4.332 0,0 63.97,18.012 101.76,33.66 29.19,12.082 86.78,53.629 111.47,71.91 5.96,4.422 14.38,2.301 17.58,-4.398 5.62,-11.781 14.49,-28.383 23,-36.25 12.77,-11.793 60.92,-3.391 94.63,10.168 5.63,2.269 12.02,-0.27 14.71,-5.711"
         style="fill:#aeaeae;fill-opacity:1;fill-rule:nonzero;stroke:none"
         id="path23705" />
      <path
         d="m 2600.66,582.832 c 0,0 3.54,-29.84 0.15,-37.723 -3.4,-7.879 -286.61,-36.57 -386.5,-6.488 0,0 -2.97,24.141 11.57,39.879 l 374.78,4.332"
         style="fill:#ffffff;fill-opacity:1;fill-rule:nonzero;stroke:none"
         id="path23707" />
      <path
         d="m 2415.3,660 c 5.06,-1.391 9.96,-3.25 14.72,-5.711 2.4,-1.277 4.72,-2.629 6.98,-4.957 0.97,-1.012 2.74,-3.082 1.99,-6.34 -0.48,-1.773 -1.44,-2.5 -2.42,-3.344 l -2.57,-1.339 c -6.14,-1.977 -11.34,-1.879 -16.75,-1.848 -5.35,0.09 -10.55,0.488 -15.87,1.25 l 4.81,7.539 c 3.91,-5.758 7.24,-11.59 9.99,-18.129 1.34,-3.312 2.64,-6.641 3.01,-10.902 0,-2.18 0.33,-4.789 -1.86,-7.809 -0.92,-1.551 -2.55,-2.262 -4.07,-2.969 -1.22,-0.359 -2.19,-0.492 -3.26,-0.652 -7.77,-0.34 -14.2,1.32 -20.77,3.102 -6.47,1.898 -12.79,4.14 -18.85,7.089 l 19.82,-1.851 c 6.42,-0.449 13.22,-1.027 18.66,-0.02 l 1.57,0.45 -0.24,-0.02 c -0.08,-0.348 0.01,0.68 -0.14,1.699 -0.44,2.344 -1.58,5.254 -2.78,8.024 -2.58,5.57 -5.92,11.23 -9.19,16.558 l -0.09,0.149 c -1.41,2.312 -0.7,5.312 1.6,6.73 1.03,0.621 2.2,0.832 3.3,0.66 4.88,-0.738 9.95,-1.449 14.89,-2 4.85,-0.39 10.14,-0.918 14.01,-0.199 l 0.89,-0.148 -0.32,0.636 c -1.03,1.641 -2.95,3.364 -4.78,5.012 -3.83,3.242 -8.04,6.27 -12.28,9.34"
         style="fill:#430a22;fill-opacity:1;fill-rule:nonzero;stroke:none"
         id="path23709" />
      <path
         d="m 2594.07,626.18 c -3.18,-7.981 -6.75,-14.008 -9.71,-20.258 -1.57,-3.07 -2.76,-6.152 -4.08,-9.383 -1.23,-3.269 -2.06,-6.668 -3.3,-10.937 -2.82,3.269 -4.36,7.64 -4.42,12.039 -0.14,4.398 1.01,8.738 2.8,12.629 1.98,3.8 4.49,7.25 7.67,9.98 3.12,2.742 6.73,4.988 11.04,5.93"
         style="fill:#430a22;fill-opacity:1;fill-rule:nonzero;stroke:none"
         id="path23711" />
      <path
         d="m 2518.46,1712.12 c -40.51,48.1 -78.9,87.8 -112.81,113.91 l 233.31,839.99 z m 490.5,803.1 c 17.5,75.8 48.39,337.5 39.19,384.1 -9.19,46.7 -79.19,287.5 -79.19,287.5 l -103.31,6.7 -401.2,36.3 -94.89,-250.5 -3.51,-9 -110,-290.3 c -22.7,-60.1 -40.49,-121.9 -53.1,-184.9 l -121.29,-605.39 c -12.41,-62.21 4.8,-126.7 46.69,-174.31 l 354.4,-403.3 -54.6,-611.089 172.5,-15 c 52.41,106.891 92.81,229.5 123.8,351.089 l 117.41,-133.589 147.59,96.289 c 0,0 -88.99,157.5 -204.29,337.81 30.7,196.19 37.99,343.4 37.99,343.4 0,0 168.31,758.3 185.81,834.19"
         style="fill:#ffffff;fill-opacity:1;fill-rule:nonzero;stroke:none"
         id="path23713" />
      <path
         d="m 2537.35,3187.42 c -0.4,-5.7 -8.59,-140 -78.69,-196.1 -19.8,-15.8 -42.7,-23.8 -68.3,-23.8 -7.21,0 -14.6,0.6 -22.21,1.9 l -2.1,0.9 3.51,9 h 0.29 c 31.71,-5.3 59.4,1.4 82.5,19.9 66.7,53.3 74.91,187.4 75,188.7 0.1,2.8 2.41,4.9 5.21,4.8 2.79,-0.2 4.89,-2.6 4.79,-5.3"
         style="fill:#430a22;fill-opacity:1;fill-rule:nonzero;stroke:none"
         id="path23715" />
      <path
         d="m 2406.49,1821.03 -1.12,0.12 -32.5,7.5 c -2.69,0.63 -4.37,3.31 -3.75,6 0.62,2.68 3.33,4.35 5.99,3.75 l 24.26,-5.6 -13.53,47.69 c -0.75,2.65 0.8,5.42 3.45,6.18 2.64,0.75 5.42,-0.79 6.17,-3.45 l 15.84,-55.83 c 0.48,-1.7 0.03,-3.53 -1.19,-4.81 -0.95,-1.01 -2.27,-1.55 -3.62,-1.55"
         style="fill:#430a22;fill-opacity:1;fill-rule:nonzero;stroke:none"
         id="path23717" />
      <path
         d="m 2736.04,3164.34 c -2.69,0.21 -5.15,-1.83 -5.37,-4.59 l -21.55,-275.18 -57.2,-73.74 25.39,353.17 c 0.2,2.75 -1.87,5.15 -4.62,5.34 -2.73,0.22 -5.15,-1.87 -5.36,-4.63 l -36.67,-510 c -0.19,-2.75 1.88,-5.14 4.63,-5.34 l 0.37,-0.01 c 2.6,0 4.79,2.01 4.98,4.64 l 9.99,138.84 67.31,86.78 c 0.6,0.77 0.96,1.7 1.02,2.67 l 21.67,276.67 c 0.23,2.76 -1.83,5.17 -4.59,5.38"
         style="fill:#430a22;fill-opacity:1;fill-rule:nonzero;stroke:none"
         id="path23719" />
      <path
         d="m 2818.15,959.148 c -1.71,0 -3.38,0.891 -4.31,2.481 -1.4,2.383 -0.59,5.453 1.79,6.84 l 135,78.751 c 2.37,1.4 5.44,0.59 6.84,-1.8 1.4,-2.38 0.59,-5.45 -1.8,-6.84 l -135,-78.748 -2.52,-0.684"
         style="fill:#430a22;fill-opacity:1;fill-rule:nonzero;stroke:none"
         id="path23721" />
      <path
         d="m 2940.46,3144.91 c -0.77,2.66 -3.54,4.21 -6.2,3.41 -2.65,-0.76 -4.17,-3.53 -3.41,-6.19 0.47,-1.62 30.99,-107.47 48.76,-203.91 -25.08,-1.77 -46.76,5.37 -64.4,21.51 -59.27,54.23 -57.08,191.06 -57.06,192.44 0.06,2.76 -2.12,5.05 -4.89,5.11 h -0.11 c -2.71,0 -4.94,-2.17 -5,-4.9 -0.12,-5.8 -2.31,-142.71 60.29,-200.02 17.81,-16.31 39.19,-24.53 63.69,-24.53 3.02,0 6.13,0.28 9.25,0.52 8.41,-47.7 13.3,-92.11 9.32,-119.1 -5.43,-36.98 -48.43,-278.33 -98.23,-557.79 -63.13,-354.4 -134.71,-756.09 -141.78,-809.78 -0.69,-5.25 -1.84,-12.27 -3.32,-20.48 -37.86,-162.47 -146.69,-640.989 -153.07,-667.36 l -141.81,16.531 c -2.84,0.25 -5.23,-1.652 -5.55,-4.391 -0.32,-2.75 1.64,-5.23 4.38,-5.55 l 166.26,-19.379 0.58,-0.02 c 2.5,0 4.66,1.867 4.97,4.418 0.31,2.742 -1.66,5.223 -4.4,5.551 l -14.42,1.68 c 7.08,29.23 111.01,483.15 147.75,640.59 l 0.15,-0.2 c 0.35,1.77 0.64,3.32 0.98,5.03 l 0.11,0.46 -0.02,0.02 c 3.54,18.05 6.1,32.46 7.34,41.79 7.03,53.48 78.58,455.04 141.7,809.34 49.81,279.54 92.82,520.95 98.29,558.08 12.51,85.1 -57.18,326.88 -60.15,337.12"
         style="fill:#430a22;fill-opacity:1;fill-rule:nonzero;stroke:none"
         id="path23723" />
      <path
         d="m 2481.67,1315 c 1,33.53 3.09,66.94 5.35,100.35 2.15,33.42 5.07,66.76 8,100.11 3.17,33.32 6.36,66.64 10.32,99.89 l 5.97,49.87 c 2.35,16.6 4.36,33.22 7.02,49.78 -0.4,-16.77 -1.44,-33.48 -2.14,-50.22 l -3.19,-50.13 c -2.16,-33.42 -5.08,-66.76 -8.02,-100.11 -3.18,-33.32 -6.37,-66.64 -10.34,-99.89 -3.84,-33.26 -7.86,-66.51 -12.97,-99.65"
         style="fill:#430a22;fill-opacity:1;fill-rule:nonzero;stroke:none"
         id="path23725" />
      <path
         d="m 2724.17,1036.67 c 3.86,25.44 8.63,50.65 13.46,75.86 4.7,25.21 10.05,50.29 15.25,75.39 l 16.34,75.13 c 2.81,12.5 5.54,25.02 8.09,37.57 2.91,12.5 5.21,25.07 7.69,37.71 -0.62,-25.77 -4.32,-51.33 -8.22,-76.72 -3.93,-25.41 -8.93,-50.61 -14.12,-75.76 -5.46,-25.09 -11.07,-50.15 -17.56,-75 -6.4,-24.87 -13.06,-49.68 -20.93,-74.18"
         style="fill:#430a22;fill-opacity:1;fill-rule:nonzero;stroke:none"
         id="path23727" />
      <path
         d="m 2957.96,4175.02 c -2,2.6 -4,4.7 -6.01,6.4 -13.75,11.59 -28.44,4.54 -36.51,-1.21 v 49.97 c 0,80.54 -65.29,145.84 -145.85,145.84 -80.55,0 -145.84,-65.3 -145.84,-145.84 v -49.97 c -8.66,6.16 -24.93,13.81 -39.39,-1.49 -1,-1.1 -2.1,-2.3 -3.1,-3.7 -5.51,-7.2 -7.21,-16.8 -6.01,-27 3.1,-27.64 27.09,-59.42 50.1,-59.1 9.99,-70.81 70.68,-125.34 144.24,-125.34 73.57,0 134.26,54.53 144.25,125.34 23.1,-0.32 47.21,31.74 50.21,59.5 v 0.1 c 1.01,10 -0.69,19.41 -6.09,26.5"
         style="fill:#f68872;fill-opacity:1;fill-rule:nonzero;stroke:none"
         id="path23729" />
      <path
         d="m 2790.94,4233.96 c 6.17,4.02 12.49,5.74 19.27,6.62 6.72,0.85 13.64,0.12 20.34,-1.45 6.71,-1.53 13.17,-4.46 18.83,-8.35 5.76,-3.78 10.26,-9.13 13.83,-14.61 1.17,-1.78 0.66,-4.17 -1.12,-5.33 -1.23,-0.8 -2.73,-0.81 -3.94,-0.16 l -0.41,0.22 c -5.22,2.83 -9.96,5.59 -15.15,7.19 -5.02,1.84 -10.13,3.09 -15.37,3.66 -5.23,0.69 -10.52,0.67 -15.91,0.79 -5.33,0.08 -11.08,-0.15 -16.52,0.27 l -1.02,0.08 c -3.32,0.26 -5.81,3.16 -5.56,6.49 0.16,1.93 1.22,3.59 2.73,4.58"
         style="fill:#430a22;fill-opacity:1;fill-rule:nonzero;stroke:none"
         id="path23731" />
      <path
         d="m 2746.88,4222.81 c -5.42,-0.42 -11.18,-0.19 -16.51,-0.27 -5.39,-0.12 -10.68,-0.1 -15.91,-0.79 -5.24,-0.57 -10.35,-1.82 -15.37,-3.66 -5.18,-1.6 -9.93,-4.36 -15.15,-7.19 l -0.4,-0.22 c -1.88,-1.02 -4.21,-0.32 -5.23,1.55 -0.69,1.29 -0.59,2.79 0.16,3.94 3.57,5.48 8.07,10.83 13.83,14.61 5.66,3.89 12.12,6.82 18.84,8.35 6.69,1.57 13.62,2.3 20.33,1.45 6.78,-0.88 13.11,-2.6 19.27,-6.62 2.8,-1.82 3.59,-5.55 1.76,-8.34 -1.05,-1.63 -2.76,-2.58 -4.55,-2.73 l -1.07,-0.08"
         style="fill:#430a22;fill-opacity:1;fill-rule:nonzero;stroke:none"
         id="path23733" />
      <path
         d="m 2762.49,4072.23 c 12.57,0.31 24.63,1.22 36.05,4.39 5.7,1.58 11.04,3.99 16.13,6.97 5.1,3.04 9.45,7.13 13.88,11.69 -2.36,-5.78 -5.89,-11.5 -11.07,-15.57 -5.04,-4.16 -11.02,-7.16 -17.27,-8.99 -12.53,-3.33 -25.87,-2.97 -37.72,1.51"
         style="fill:#430a22;fill-opacity:1;fill-rule:nonzero;stroke:none"
         id="path23735" />
      <path
         d="m 2795.53,4058.91 c 4.83,1.85 9.65,2.97 14.18,4.84 4.66,1.6 8.89,3.68 12.7,7.13 -1.78,-5.11 -6.94,-8.11 -11.63,-10 -4.93,-1.65 -10.08,-2.64 -15.25,-1.97"
         style="fill:#430a22;fill-opacity:1;fill-rule:nonzero;stroke:none"
         id="path23737" />
      <path
         d="m 2772.76,4186.96 c 1.92,-8.13 2.9,-16.33 2.88,-24.71 0.04,-8.36 -1.17,-16.9 -3.92,-25.12 -2.98,-8.18 -6.83,-14.77 -7.13,-21.68 -0.12,-3.39 0.47,-6.81 2.62,-9.41 2.12,-2.68 5.63,-4.77 9.81,-4.17 -3.49,-2.66 -8.97,-1.92 -12.82,0.79 -4.06,2.82 -6.28,7.75 -6.8,12.41 -1.19,9.7 3.34,18.04 5.61,25.09 5.19,14.41 6.14,30.49 9.75,46.8"
         style="fill:#430a22;fill-opacity:1;fill-rule:nonzero;stroke:none"
         id="path23739" />
      <path
         d="m 2589.75,4154.73 c 0.16,5 1.71,10.7 6.57,14.36 2.31,1.79 5.55,2.88 8.85,2.5 3.31,-0.3 6.16,-1.98 8.41,-3.87 4.63,-3.91 7.16,-8.91 9.46,-13.58 2.27,-4.65 4.07,-9.25 6.12,-13.88 1.02,-2.3 -0.02,-4.98 -2.31,-6 -1.95,-0.86 -4.17,-0.25 -5.42,1.35 l -0.14,0.17 c -2.66,3.4 -6.67,6.01 -11,6.65 -2.16,0.32 -3.67,0.23 -4.96,-0.59 -1.37,-0.83 -2.52,-2.53 -3.13,-4.41 -1.21,-3.71 0.38,-8.78 3.43,-12.88 2.94,-4.04 7.3,-7.79 13.06,-7.63 -5.51,-2.45 -12.15,0.49 -16.53,4.47 -4.39,3.98 -8.35,10.11 -7.22,17.59 0.56,3.56 2.36,7.02 5.53,9.52 3.23,2.59 7.7,3.2 11.01,2.71 6.75,-0.91 13.08,-4.4 17.12,-9.97 l -7.87,-4.48 c -1.82,4.67 -3.83,9.39 -5.5,14 -1.74,4.49 -3.7,8.81 -6.4,11.9 -2.79,3.1 -6.25,4.6 -10.28,2.75 -3.99,-1.64 -6.83,-6.01 -8.8,-10.68"
         style="fill:#430a22;fill-opacity:1;fill-rule:nonzero;stroke:none"
         id="path23741" />
      <path
         d="m 2949.44,4154.73 c -1.97,4.67 -4.81,9.04 -8.81,10.68 -4.02,1.85 -7.49,0.35 -10.27,-2.75 -2.7,-3.09 -4.66,-7.41 -6.4,-11.9 -1.67,-4.61 -3.68,-9.33 -5.5,-14 l -7.87,4.48 c 4.03,5.57 10.37,9.06 17.12,9.97 3.31,0.49 7.78,-0.12 11.01,-2.71 3.16,-2.5 4.97,-5.96 5.53,-9.52 1.13,-7.48 -2.83,-13.61 -7.22,-17.59 -4.39,-3.98 -11.02,-6.92 -16.53,-4.47 5.76,-0.16 10.12,3.59 13.06,7.63 3.05,4.1 4.64,9.17 3.43,12.88 -0.61,1.88 -1.77,3.58 -3.13,4.41 -1.29,0.82 -2.8,0.91 -4.96,0.59 -4.33,-0.64 -8.35,-3.25 -11,-6.65 l -0.14,-0.16 c -1.55,-1.98 -4.4,-2.33 -6.38,-0.78 -1.67,1.31 -2.18,3.56 -1.35,5.42 2.05,4.63 3.85,9.23 6.12,13.88 2.3,4.67 4.83,9.67 9.46,13.58 2.25,1.89 5.1,3.57 8.41,3.87 3.29,0.38 6.53,-0.71 8.85,-2.5 4.85,-3.66 6.41,-9.36 6.57,-14.36"
         style="fill:#430a22;fill-opacity:1;fill-rule:nonzero;stroke:none"
         id="path23743" />
      <path
         d="m 2832.18,4158.94 c 0,-12.26 -5.29,-22.21 -11.8,-22.21 -6.51,0 -11.8,9.95 -11.8,22.21 0,12.27 5.29,22.21 11.8,22.21 6.51,0 11.8,-9.94 11.8,-22.21"
         style="fill:#430a22;fill-opacity:1;fill-rule:nonzero;stroke:none"
         id="path23745" />
      <path
         d="m 2715.01,4158.94 c 0,-12.26 5.28,-22.21 11.8,-22.21 6.51,0 11.79,9.95 11.79,22.21 0,12.27 -5.28,22.21 -11.79,22.21 -6.52,0 -11.8,-9.94 -11.8,-22.21"
         style="fill:#430a22;fill-opacity:1;fill-rule:nonzero;stroke:none"
         id="path23747" />
      <path
         d="m 2903.15,4335.19 c -4.17,39.17 -53.33,89.17 -90,98.33 -36.67,9.17 -44.17,-27.5 -44.17,-27.5 -16.02,16.03 -34.5,29.94 -55.14,34.68 6.5,-19.57 1.4,-41.66 -22.95,-53.47 -30.52,-14.81 -66.8,-30.06 -94.35,-49.81 -77.76,-55.78 -56.5,-99.85 -49.86,-109.72 18.77,-27.93 37.72,-48.76 37.72,-48.76 17.5,17.92 38.75,1.25 38.75,1.25 l 24.58,-24.17 c 17.09,16.67 10.84,112.09 10.84,112.09 0,0 138.75,-35.84 169.16,-19.59 30.42,16.25 14.59,41.67 14.59,41.67 18.75,-6.25 34.16,-29.17 42.91,-73.33 8.75,-44.17 17.02,-47.31 17.02,-47.31 15.87,15.17 28.58,18.58 36.53,17.79 74.37,69.93 -35.63,147.85 -35.63,147.85"
         style="fill:#430a22;fill-opacity:1;fill-rule:nonzero;stroke:none"
         id="path23749" />
      <path
         d="m 2581.88,4328.78 c 0,0 13.05,105.6 32.49,131.52 19.44,25.91 182.14,46.07 224.61,16.56 42.48,-29.52 65.44,-143.04 65.44,-143.04 0,0 -188.27,95.22 -322.54,-5.04"
         style="fill:#fbc961;fill-opacity:1;fill-rule:nonzero;stroke:none"
         id="path23751" />
      <path
         d="m 2964.05,4148.52 c 1.01,10 -0.98,19.19 -6.09,26.5 -4.66,6.65 -20.07,10.67 -22.07,12.38 33.2,106.3 -18.6,144.72 -131.91,156.12 -124.16,12.5 -225.2,-21.25 -237.7,-86.25 -10.05,-52.25 13.81,-71.22 20.91,-75.72 -1.01,-1.1 -4.93,-5.13 -5.93,-6.53 -5.51,-7.2 -7.21,-16.8 -6.01,-27 -179.09,98.2 11.8,302.41 241.3,256.3 187.81,-37.8 216.41,-169.6 147.5,-255.8"
         style="fill:#fbc961;fill-opacity:1;fill-rule:nonzero;stroke:none"
         id="path23753" />
      <path
         d="m 2587.73,4366.44 c 21.16,16.23 46,27.12 71.37,35.47 25.54,8.05 52.16,12.79 78.95,14.18 26.8,1.14 53.83,-0.68 79.97,-6.68 26.05,-5.91 51.69,-14.74 74.3,-28.8 -12.19,5.19 -24.65,9.51 -37.39,12.82 -12.63,3.56 -25.42,6.53 -38.37,8.43 -25.82,4.09 -51.98,5.57 -78.01,4.25 -26.08,-1.11 -51.92,-5.44 -77.34,-11.56 -12.67,-3.23 -25.2,-7.16 -37.45,-11.86 -12.37,-4.47 -24.4,-9.87 -36.03,-16.25"
         style="fill:#430a22;fill-opacity:1;fill-rule:nonzero;stroke:none"
         id="path23755" />
      <path
         d="m 2760.65,4486.02 c 17.34,-12.68 33.57,-25.77 51.03,-36.8 8.62,-5.64 17.55,-10.75 26.91,-14.68 9.39,-3.9 19.14,-6.84 29.98,-7.27 -10.24,-3.76 -21.91,-2.96 -32.5,-0.12 -10.77,2.74 -20.6,7.86 -29.78,13.65 -9.11,5.95 -17.62,12.68 -25.24,20.29 -7.65,7.56 -14.73,15.72 -20.4,24.93"
         style="fill:#430a22;fill-opacity:1;fill-rule:nonzero;stroke:none"
         id="path23757" />
      <path
         d="m 2696.07,4481.44 c -2.89,-9.86 -7.95,-18.96 -13.96,-27.31 -6.02,-8.4 -13.37,-15.84 -21.51,-22.33 -8.19,-6.44 -17.5,-11.55 -27.36,-14.93 -9.74,-3.73 -20.38,-4.69 -30.51,-4.18 9.64,3.64 18.92,6.57 27.46,11.36 8.53,4.56 16.78,9.53 24.27,15.64 15.32,11.82 28.61,26.1 41.61,41.75"
         style="fill:#430a22;fill-opacity:1;fill-rule:nonzero;stroke:none"
         id="path23759" />
      <path
         d="m 2095.27,3399.02 c 11.42,20.72 22.97,41.44 34.86,61.96 7.4,20.4 15.52,40.58 24.12,60.58 -124.92,173.16 -261.5,363.76 -261.5,363.76 l -70.6,-42.9 c 37.91,-107.43 156.11,-347.43 233.96,-501.9 12.43,20.63 26.28,40.48 39.16,58.5"
         style="fill:#f68872;fill-opacity:1;fill-rule:nonzero;stroke:none"
         id="path23761" />
      <path
         d="m 1830.46,3820.12 c 0,0 -99.57,82.58 -96.92,91.19 2.67,8.61 34.16,-11.35 34.16,-11.35 0,0 -42.36,45.1 -39.51,50.06 2.85,4.96 51.22,-31.5 51.22,-31.5 0,0 -37.63,58.28 -33.66,62.32 3.97,4.04 50.82,-41.19 50.82,-41.19 0,0 -23.5,51.08 -20.64,53.89 2.86,2.82 75.42,-65.25 75.42,-65.25 0,0 12.43,6.12 16.8,6.9 4.37,0.77 40.25,-71.66 40.25,-71.66 l -77.94,-43.41"
         style="fill:#f68872;fill-opacity:1;fill-rule:nonzero;stroke:none"
         id="path23763" />
      <path
         d="m 1868.15,3840.38 h -97.79 v 301.98 h 97.79 v -301.98"
         style="fill:#b8e6d6;fill-opacity:1;fill-rule:nonzero;stroke:none"
         id="path23765" />
      <path
         d="m 1864.42,3870.07 -93.7,-28 -86.46,289.35 93.71,27.99 86.45,-289.34"
         style="fill:#b8e6d6;fill-opacity:1;fill-rule:nonzero;stroke:none"
         id="path23767" />
      <path
         d="m 1842.32,3940.19 c -2.16,0 -4.15,1.4 -4.8,3.57 l -57.5,194.17 c -0.78,2.66 0.73,5.43 3.38,6.22 2.66,0.79 5.43,-0.73 6.21,-3.37 l 57.5,-194.17 c 0.79,-2.65 -0.72,-5.43 -3.37,-6.22 l -1.42,-0.2"
         style="fill:#430a22;fill-opacity:1;fill-rule:nonzero;stroke:none"
         id="path23769" />
      <path
         d="m 1718.78,4039.77 c -2.08,0 -4.02,1.31 -4.73,3.38 -0.9,2.62 0.5,5.46 3.11,6.35 l 76.88,26.25 c 2.61,0.88 5.46,-0.5 6.35,-3.11 0.89,-2.62 -0.51,-5.46 -3.12,-6.35 l -76.87,-26.25 -1.62,-0.27"
         style="fill:#430a22;fill-opacity:1;fill-rule:nonzero;stroke:none"
         id="path23771" />
      <path
         d="m 1790.02,3851.02 c -2.21,0 -4.23,1.48 -4.82,3.72 l -40,151.25 c -0.71,2.67 0.88,5.4 3.55,6.12 2.67,0.68 5.41,-0.89 6.11,-3.56 l 40,-151.25 c 0.71,-2.67 -0.88,-5.41 -3.55,-6.11 l -1.29,-0.17"
         style="fill:#430a22;fill-opacity:1;fill-rule:nonzero;stroke:none"
         id="path23773" />
      <path
         d="m 1786.28,3974.77 h 0.1 z m 22.49,-118.12 c -2.24,0 -4.28,1.52 -4.84,3.79 -27.65,111.85 -27.65,113.52 -27.65,114.33 0,2.76 2.24,5 5,5 2.58,0 4.7,-1.95 4.97,-4.45 0.82,-4.57 16.78,-69.59 27.38,-112.47 0.67,-2.68 -0.97,-5.39 -3.65,-6.06 l -1.21,-0.14"
         style="fill:#430a22;fill-opacity:1;fill-rule:nonzero;stroke:none"
         id="path23775" />
      <path
         d="m 1868.15,3935.19 c 0,0 -31.25,12.08 -40,5.83 -8.75,-6.25 31.67,-36.66 39.17,-39.58 0,0 -30,-45.83 2.5,-62.92 l 24.58,15 -26.25,81.67"
         style="fill:#f68872;fill-opacity:1;fill-rule:nonzero;stroke:none"
         id="path23777" />
      <path
         d="m 2483.88,3757.87 c 0.25,42.92 10.13,85.5 30.87,123.07 15.39,27.9 37.29,54.25 67.15,62.58 71.67,20 348.75,22.5 457.08,-45.83 108.34,-68.33 -5,-710 -30,-716.67 -25,-6.66 -366.66,-21.66 -451.66,46.67 -70,56.27 -74.16,407.85 -73.44,530.18"
         style="fill:#430a22;fill-opacity:1;fill-rule:nonzero;stroke:none"
         id="path23779" />
      <path
         d="m 2831.22,3875.84 h -123.25 v 118.5 h 123.25 v -118.5"
         style="fill:#f68872;fill-opacity:1;fill-rule:nonzero;stroke:none"
         id="path23781" />
      <path
         d="m 2831.16,3977.29 v -23.61 c -18.68,-8.72 -39.58,-13.64 -61.58,-13.64 -22,0 -42.9,4.92 -61.58,13.64 v 23.61 c 18.68,-8.74 39.58,-13.65 61.58,-13.65 22,0 42.9,4.91 61.58,13.65"
         style="fill:#430a22;fill-opacity:1;fill-rule:nonzero;stroke:none"
         id="path23783" />
      <path
         d="m 3011.86,3780.03 c -24.89,86.52 -167.62,128.89 -223.32,142.31 l -22.68,1.9 c -57.16,-3.93 -204.96,-21.86 -243.95,-103.01 -35.45,-73.8 -46.74,-567.15 -46.74,-567.15 l 488.06,-41.05 c 0,0 71.26,488.31 48.63,567"
         style="fill:#f68872;fill-opacity:1;fill-rule:nonzero;stroke:none"
         id="path23785" />
      <path
         d="m 2469.86,3252.89 -16.22,-39.87 c -1.82,-4.48 1.02,-9.48 5.83,-10.1 63.14,-8.18 424.3,-53.92 513.36,-42.13 4.51,0.6 7.3,5.18 5.95,9.53 l -13.52,43.43 c -0.89,2.88 -3.45,4.93 -6.46,5.17 l -481.5,38.55 c -3.21,0.25 -6.22,-1.6 -7.44,-4.58"
         style="fill:#7e7e7e;fill-opacity:1;fill-rule:nonzero;stroke:none"
         id="path23787" />
      <path
         d="m 1947.98,3537.36 c -2.01,-2.96 -2.48,-6.62 -1.28,-10 3.63,-10.14 11.43,-31.51 13.95,-34.67 2.91,-3.63 111.42,93.92 139.34,119.13 3.86,3.48 4.82,9.11 2.31,13.67 -8.47,15.38 -27.88,48.57 -39.98,53.03 -14.17,5.23 -97.06,-115.67 -114.34,-141.16"
         style="fill:#aeaeae;fill-opacity:1;fill-rule:nonzero;stroke:none"
         id="path23789" />
      <path
         d="m 3493.96,3746.02 c -57.98,21.26 -421.18,108.97 -583.06,147.68 7.78,10.83 10.03,18.94 3.5,22.32 -33.75,17.5 -83.12,25.31 -83.12,25.31 l -0.22,-31.19 2.09,2.13 -45.45,-63.57 -40.81,-57.02 -39.99,126.22 1.1,-0.16 -0.16,25.62 c 0,0 -56.56,2.66 -89.69,-22.34 -6.15,-4.64 -5.48,-13.28 -0.37,-24.26 -14.23,-4.89 -29.09,-10.76 -43.82,-17.94 -2.41,-1 -4.7,-2.2 -7.1,-3.4 -8.31,-4.3 -19.11,-10.6 -32.01,-18.9 -90.6,-58.1 -279.49,-208.3 -352.5,-357.2 l -111.7,151.7 -118.3,-123.3 c 0,0 141.61,-320 211.61,-336.7 70,-16.7 321.69,361.7 321.69,361.7 0,0 -10,-97 -16,-185.3 -1.39,-20.5 -2.59,-40.6 -3.4,-58.8 -1,-24.3 -1.4,-45.29 -0.6,-60.1 0,0 455,-46.3 503.8,-38.7 0,0 6.91,53.2 15.61,123.51 1.89,15.29 3.9,31.39 5.9,47.89 14.6,119.9 31.09,262.7 29.69,286 l 286.51,-88 -115.3,-42 101.29,-130 c 0,0 430.9,95.8 445.81,162.1 18.39,81.7 -170,149.2 -245,176.7"
         style="fill:#aeaeae;fill-opacity:1;fill-rule:nonzero;stroke:none"
         id="path23791" />
      <path
         d="m 3335.16,3406.52 c -3.4,-2.2 -25.61,-7.3 -36.11,-9.7 -3.49,-0.8 -7,0.1 -9.69,2.5 -3.4,2.9 -8.5,7.4 -14.91,13.1 -32.19,28.5 -95.09,85.7 -108.89,108.9 -2.41,4 -3.4,6.9 -2.5,8.6 5.9,11.4 41.2,26.7 57.5,33.2 4.79,2 10.3,0.3 13.3,-3.9 21.6,-30.8 105.29,-150.3 101.3,-152.7"
         style="fill:#aeaeae;fill-opacity:1;fill-rule:nonzero;stroke:none"
         id="path23793" />
      <path
         d="m 2618.57,3895.19 c 19.76,-19.57 37.65,-40.34 55.8,-60.9 l 26.98,-30.95 c 9.15,-10.19 18.04,-20.59 27.63,-30.65 -24.04,14.29 -43.84,34.4 -62.14,55.03 -18.08,20.97 -34.76,43.12 -48.27,67.47"
         style="fill:#430a22;fill-opacity:1;fill-rule:nonzero;stroke:none"
         id="path23795" />
      <path
         d="m 2775.65,3775.19 c 22.14,19.3 45.16,36.92 67.71,55.06 11.42,8.91 22.47,18.17 33.48,27.47 10.85,9.5 21.79,18.87 30.89,30.39 -5.81,-13.62 -15.36,-25.43 -25.5,-36.03 -10.16,-10.69 -21.19,-20.48 -32.63,-29.64 -23.05,-18.12 -47.44,-34.49 -73.95,-47.25"
         style="fill:#430a22;fill-opacity:1;fill-rule:nonzero;stroke:none"
         id="path23797" />
      <path
         d="m 2504.09,3579.46 c 0.13,-6.8 -2.26,-11.89 -5.24,-16.56 -3.25,-4.51 -7.11,-8.59 -13.51,-10.94 -0.15,6.82 2.24,11.9 5.25,16.57 3.26,4.48 7.12,8.57 13.5,10.93"
         style="fill:#430a22;fill-opacity:1;fill-rule:nonzero;stroke:none"
         id="path23799" />
      <path
         d="m 2098.99,3611.02 c 23.31,-25.32 44.18,-52.43 64.45,-79.97 20.03,-27.72 39.44,-55.89 56.38,-85.86 -23.34,25.31 -44.2,52.42 -64.45,79.97 -20.01,27.74 -39.42,55.91 -56.38,85.86"
         style="fill:#430a22;fill-opacity:1;fill-rule:nonzero;stroke:none"
         id="path23801" />
      <path
         d="m 2209.82,3497.69 c -4.95,-3.66 -9.73,-4.27 -14.46,-4.15 -4.71,0.42 -9.38,1.58 -13.87,5.82 4.96,3.68 9.73,4.28 14.46,4.15 4.71,-0.44 9.38,-1.61 13.87,-5.82"
         style="fill:#430a22;fill-opacity:1;fill-rule:nonzero;stroke:none"
         id="path23803" />
      <path
         d="m 1966.9,3496.86 c 17.92,20.62 37.82,38.94 58.2,56.7 20.58,17.53 41.65,34.49 64.72,49.13 -17.9,-20.64 -37.8,-38.96 -58.19,-56.7 -20.6,-17.52 -41.67,-34.48 -64.73,-49.13"
         style="fill:#430a22;fill-opacity:1;fill-rule:nonzero;stroke:none"
         id="path23805" />
      <path
         d="m 2070.65,3667.27 c -8.5,-11.65 -17.31,-22.95 -26.42,-33.94 -8.93,-11.08 -18.37,-21.88 -26.74,-32.98 -2.01,-2.63 -4.3,-5.77 -5.2,-7.8 l -0.05,0.04 c -0.02,0.23 0.08,0.62 -0.26,1.56 -0.27,0.91 -1.45,2.04 -2.29,2.3 -1.77,0.48 -1.46,0.14 -1.55,0.23 l 0.61,0.21 c 1.43,0.66 2.83,1.15 4.31,1.98 5.91,2.96 11.61,7.13 17.35,11.15 11.32,8.37 22.59,17.19 33.99,26 -8.65,-11.55 -18.22,-22.39 -29.08,-32.06 -5.4,-4.93 -11.15,-9.42 -17.75,-13.41 -1.56,-1.06 -3.54,-1.8 -5.34,-2.67 l -1.93,-0.64 -1.51,-0.22 h -1.02 l -1.66,0.4 c -1.24,0.42 -2.79,1.86 -3.19,3.2 -0.51,1.34 -0.41,2.21 -0.39,2.87 0.15,1.28 0.42,1.97 0.66,2.62 1.99,4.53 4.11,7.12 6.31,10.24 9.02,11.61 18.77,22.08 28.98,32.21 10.14,10.17 20.88,19.73 32.17,28.71"
         style="fill:#430a22;fill-opacity:1;fill-rule:nonzero;stroke:none"
         id="path23807" />
      <path
         d="m 1951.49,3519.36 c 8.3,9.93 18.25,17.27 28.57,24.01 10.5,6.47 21.39,12.32 33.93,15.57 -8.3,-9.95 -18.24,-17.29 -28.58,-24.01 -10.5,-6.46 -21.4,-12.31 -33.92,-15.57"
         style="fill:#430a22;fill-opacity:1;fill-rule:nonzero;stroke:none"
         id="path23809" />
      <path
         d="m 3306.28,3577.9 c 35.37,12.56 71.61,21.77 108.12,29.75 18.31,3.82 36.68,7.32 55.22,10 18.49,2.78 37.25,4.73 56.03,4.62 -18.36,-3.76 -36.41,-8.24 -54.61,-12.29 l -54.55,-12.11 c -36.48,-7.64 -73.01,-15.06 -110.21,-19.97"
         style="fill:#430a22;fill-opacity:1;fill-rule:nonzero;stroke:none"
         id="path23811" />
      <path
         d="m 3473.78,3656.02 c -17.76,-11.23 -35.96,-20.61 -53.74,-30.61 -8.98,-4.84 -17.67,-10.06 -26.25,-15.38 -8.53,-5.48 -16.87,-11.07 -23.76,-19.01 3.33,10.21 11.13,18.45 19.08,25.26 8.07,6.91 16.93,12.73 26.08,17.86 18.42,9.98 37.88,17.95 58.59,21.88"
         style="fill:#430a22;fill-opacity:1;fill-rule:nonzero;stroke:none"
         id="path23813" />
      <path
         d="m 2718.15,3391.02 c 19.84,18.64 41.4,34.8 63.39,50.35 22.17,15.3 44.77,29.98 69.11,42.15 -19.81,-18.66 -41.38,-34.81 -63.38,-50.35 -22.18,-15.28 -44.78,-29.95 -69.12,-42.15"
         style="fill:#430a22;fill-opacity:1;fill-rule:nonzero;stroke:none"
         id="path23815" />
      <path
         d="m 2694.4,3337.27 c 23.02,20.15 47.73,37.77 72.85,54.78 25.29,16.76 50.99,32.89 78.4,46.47 -23,-20.16 -47.71,-37.78 -72.84,-54.77 -25.3,-16.74 -51.01,-32.87 -78.41,-46.48"
         style="fill:#430a22;fill-opacity:1;fill-rule:nonzero;stroke:none"
         id="path23817" />
      <path
         d="m 2467.53,3247.9 c 41.7,-2.04 83.29,-5.03 124.88,-8.09 l 124.67,-9.98 124.55,-11.06 c 20.74,-1.99 41.5,-3.74 62.28,-5.37 20.75,-1.66 41.51,-3.73 62.37,-3.63 -41.71,-3.34 -83.56,-0.49 -125.2,1.32 -41.68,2.18 -83.26,5.61 -124.85,8.79 -41.52,3.96 -83.08,7.64 -124.52,12.31 -41.46,4.65 -82.88,9.56 -124.18,15.71"
         style="fill:#430a22;fill-opacity:1;fill-rule:nonzero;stroke:none"
         id="path23819" />
      <path
         d="m 2705.05,3808.3 c -7.47,-9.42 -15.74,-19.7 -19.01,-32.77 -1.01,-4.07 -1.46,-8.18 -1.46,-12.25 0.01,-10.83 3.07,-21.37 7.01,-30.94 5.42,-13.11 12.4,-24.94 16.64,-37.28 3.46,-10.01 5.17,-20.62 5.17,-31.25 0,-15.27 -3.52,-30.56 -10.37,-44.14 -1.24,-2.47 -0.25,-5.47 2.22,-6.71 2.47,-1.25 5.47,-0.25 6.72,2.21 7.57,15.04 11.43,31.84 11.43,48.64 0,11.7 -1.88,23.41 -5.72,34.52 -4.72,13.59 -11.82,25.58 -16.85,37.82 -3.65,8.85 -6.26,18.23 -6.25,27.13 0,3.35 0.37,6.64 1.16,9.85 2.51,10.26 9.61,19.56 17.12,28.93 1.73,2.16 1.37,5.31 -0.79,7.03 -2.16,1.72 -5.3,1.37 -7.02,-0.79"
         style="fill:#ffffff;fill-opacity:1;fill-rule:nonzero;stroke:none"
         id="path23821" />
      <path
         d="m 2700.89,3621.31 c -1.93,-3.67 -0.51,-8.22 3.16,-10.15 3.68,-1.93 8.23,-0.51 10.16,3.17 1.92,3.67 0.51,8.22 -3.17,10.15 -3.68,1.93 -8.23,0.51 -10.15,-3.17"
         style="fill:#ffffff;fill-opacity:1;fill-rule:nonzero;stroke:none"
         id="path23823" />
      <path
         d="m 2791.15,3809.21 c 11.98,-33.34 23.85,-66.76 26.85,-101.2 0.56,-6.46 0.82,-12.94 0.82,-19.44 0,-25.31 -3.88,-50.88 -8.15,-76.43 -0.45,-2.72 1.39,-5.3 4.11,-5.75 2.73,-0.46 5.3,1.38 5.76,4.11 4.27,25.64 8.27,51.73 8.28,78.07 0,6.76 -0.27,13.53 -0.86,20.31 -3.17,36.15 -15.44,70.35 -27.39,103.71 -0.94,2.6 -3.8,3.95 -6.4,3.01 -2.6,-0.93 -3.95,-3.79 -3.02,-6.39"
         style="fill:#ffffff;fill-opacity:1;fill-rule:nonzero;stroke:none"
         id="path23825" />
      <path
         d="m 2808.07,3612.79 c -0.6,-4.11 2.24,-7.93 6.35,-8.53 4.11,-0.6 7.92,2.25 8.53,6.36 0.59,4.11 -2.25,7.92 -6.36,8.53 -4.1,0.6 -7.92,-2.25 -8.52,-6.36"
         style="fill:#ffffff;fill-opacity:1;fill-rule:nonzero;stroke:none"
         id="path23827" />
      <path
         d="m 3330.63,3418.44 c -18.51,20.09 -34.53,41.88 -49.94,64.09 -15.15,22.39 -29.68,45.2 -41.7,69.74 18.54,-20.07 34.55,-41.86 49.95,-64.09 15.14,-22.4 29.66,-45.21 41.69,-69.74"
         style="fill:#430a22;fill-opacity:1;fill-rule:nonzero;stroke:none"
         id="path23829" />
      <path
         d="m 3177.69,3538.77 c 10.64,-9.73 20.91,-19.74 30.83,-30 10.02,-10.1 19.72,-20.67 29.83,-30.22 2.39,-2.28 5.26,-4.9 7.18,-6.02 l -0.05,-0.05 c -0.23,0.02 -0.61,0.16 -1.57,-0.08 -0.94,-0.17 -2.19,-1.22 -2.54,-2.02 -0.68,-1.71 -0.31,-1.44 -0.4,-1.52 l -0.14,0.63 c -0.51,1.49 -0.84,2.94 -1.49,4.5 -2.3,6.2 -5.81,12.32 -9.18,18.48 -7.07,12.17 -14.6,24.34 -22.1,36.65 10.52,-9.88 20.24,-20.58 28.67,-32.45 4.3,-5.9 8.13,-12.11 11.38,-19.11 0.87,-1.67 1.39,-3.72 2.05,-5.61 l 0.43,-1.98 0.05,-1.53 -0.11,-1.01 -0.58,-1.6 c -0.56,-1.2 -2.16,-2.58 -3.54,-2.83 -1.39,-0.36 -2.24,-0.16 -2.89,-0.06 -1.25,0.28 -1.91,0.63 -2.53,0.94 -4.29,2.47 -6.62,4.87 -9.49,7.4 -10.54,10.24 -19.87,21.08 -28.81,32.35 -8.99,11.2 -17.32,22.93 -25,35.14"
         style="fill:#430a22;fill-opacity:1;fill-rule:nonzero;stroke:none"
         id="path23831" />
      <path
         d="m 3306.57,3405.6 c -8.94,9.35 -15.15,20.04 -20.71,31.05 -5.28,11.14 -9.89,22.61 -11.74,35.43 8.98,-9.35 15.18,-20.03 20.71,-31.05 5.27,-11.16 9.88,-22.62 11.74,-35.43"
         style="fill:#430a22;fill-opacity:1;fill-rule:nonzero;stroke:none"
         id="path23833" />
      <path
         d="m 2573.96,3881.42 -39.11,-19.9 -25.89,-13.19 v -253.31 l 25.89,-34.8 v -127.6 l -65.2,-65.2 c -1.39,-20.5 -2.59,-40.6 -3.4,-58.8 l 102,102 c 1.7,1.7 2.8,3.6 3.7,5.7 l 0.9,2.01 0.21,0.59 0.19,0.8 c 0.3,1 0.4,2.1 0.61,3.2 l 0.1,1.2 v 131.3 l 34.19,39.6 v 303.8 l -34.19,-17.4"
         style="fill:#430a22;fill-opacity:1;fill-rule:nonzero;stroke:none"
         id="path23835" />
      <path
         d="m 2534.4,3861.02 c 1.31,-20.84 2.34,-41.67 2.8,-62.51 0.62,-20.84 1.14,-41.67 1.26,-62.51 0.25,-41.67 -0.02,-83.33 -1.29,-124.99 l -1.12,2.79 28.99,-32.22 h -3.76 c 11.39,10.71 22.68,21.52 34.37,31.94 -9.97,-12.07 -20.34,-23.77 -30.61,-35.56 l -1.73,-1.98 -2.04,1.98 -31.01,30.28 -1.08,1.06 -0.04,1.74 c -0.85,41.67 -0.7,83.34 -0.04,125 0.33,20.84 1.06,41.67 1.89,62.5 0.66,20.83 1.9,41.66 3.41,62.48"
         style="fill:#ffffff;fill-opacity:1;fill-rule:nonzero;stroke:none"
         id="path23837" />
      <path
         d="m 2947.85,3541.62 40,37 32.5,290.8 -31.89,7.9 -38.21,9.4 -27.69,6.8 -33.3,-303.9 20.69,-35.6 -15.19,-125.69 c -0.21,-1.11 -0.21,-2.21 -0.1,-3.41 v -0.4 l 0.1,-0.5 c 0.3,-4.8 2.4,-9.5 6.2,-13.1 l 84.1,-77.59 c 1.89,15.29 3.9,31.39 5.9,47.89 l -56.2,51.9 13.09,108.5"
         style="fill:#430a22;fill-opacity:1;fill-rule:nonzero;stroke:none"
         id="path23839" />
      <path
         d="m 2999.4,3866.02 c -0.67,-23.04 -1.62,-46.06 -3.14,-69.03 -1.35,-22.98 -2.82,-45.95 -4.69,-68.89 -3.72,-45.87 -7.96,-91.7 -13.21,-137.44 l -0.21,-1.74 -1.22,-0.96 -37.13,-28.93 -2.39,-1.86 -1.42,2.45 c -8.51,14.6 -17.16,29.09 -25.34,43.9 10.17,-13.52 19.84,-27.36 29.67,-41.09 l -3.82,0.58 35.38,31.07 -1.43,-2.7 c 3.08,45.93 7.18,91.77 11.79,137.57 2.3,22.9 5,45.76 7.82,68.6 2.64,22.87 5.85,45.68 9.34,68.47"
         style="fill:#ffffff;fill-opacity:1;fill-rule:nonzero;stroke:none"
         id="path23841" />
      <path
         d="m 3274.45,3412.42 c -97.5,-21 -191.89,-39.6 -256.7,-48.6 -7.4,-14 -23.2,-43.4 -37.29,-67.6 -12.5,-21.2 -23.7,-38.4 -27.21,-38.1 -8.59,0.8 2.8,32.6 3.8,35.6 -2.5,-3.5 -35.29,-50.6 -40.5,-49 -5.29,1.7 18.61,53.61 19.91,56.6 -2.81,-2.8 -49.11,-48.8 -53.8,-45.9 -4.6,3 27.59,55.2 29.5,58.3 -2.61,-1.9 -45,-33.5 -48.2,-31.4 -3.4,2.2 47.9,87.4 47.9,87.4 0,0 -43.1,3.8 -44.81,7.9 -1.7,4 91.01,58.4 96.01,61.3 l 0.3,0.1 c 1.99,0.8 10.6,4.31 24.49,9.9 3.61,1.5 7.5,3.1 11.81,4.8 36.2,14.8 95.99,39.1 165.9,67.6 13.8,-23.2 76.7,-80.4 108.89,-108.9"
         style="fill:#f68872;fill-opacity:1;fill-rule:nonzero;stroke:none"
         id="path23843" />
      <path
         d="m 2963.36,3439.02 -0.3,-0.1 0.19,0.2 z"
         style="fill:#f68872;fill-opacity:1;fill-rule:nonzero;stroke:none"
         id="path23845" />
    </g>
  </g>
</svg>
