<?xml version="1.0" encoding="UTF-8" standalone="no"?>
<!-- Created with Inkscape (http://www.inkscape.org/) -->

<svg
   version="1.1"
   id="svg89203"
   width="444.51199"
   height="428.39197"
   viewBox="0 0 444.51199 428.39197"
   sodipodi:docname="2924105.eps"
   xmlns:inkscape="http://www.inkscape.org/namespaces/inkscape"
   xmlns:sodipodi="http://sodipodi.sourceforge.net/DTD/sodipodi-0.dtd"
   xmlns="http://www.w3.org/2000/svg"
   xmlns:svg="http://www.w3.org/2000/svg">
  <defs
     id="defs89207" />
  <sodipodi:namedview
     id="namedview89205"
     pagecolor="#ffffff"
     bordercolor="#000000"
     borderopacity="0.25"
     inkscape:showpageshadow="2"
     inkscape:pageopacity="0.0"
     inkscape:pagecheckerboard="0"
     inkscape:deskcolor="#d1d1d1"
     showgrid="false"
     inkscape:lockguides="true" />
  <g
     id="g89211"
     inkscape:groupmode="layer"
     inkscape:label="Page 1"
     transform="matrix(1.3333333,0,0,-1.3333333,1.819708e-6,428.39199)"
     style="display:inline">
    <g
       id="g89213"
       transform="scale(0.1)"
       style="display:inline">
      <path
         d="m 2296.55,3069.66 c -50.1,21.54 -100.84,41.36 -152.12,59.33 -357.57,125.33 -784.89,53.81 -1098.27,-152.83 C 880.438,2866.88 765.074,2720.58 679.105,2542.84 591.699,2362.13 530.883,2167.31 405.813,2007.25 283.406,1850.59 111.898,1726.65 42.8867,1533.33 -107.543,1111.97 149.531,536.582 630.039,496.629 969.152,468.43 1094.74,276.031 1449.72,178.961 c 354.97,-97.0704 706.07,-84.9922 1112,204.809 163.91,117.019 307.48,271.21 370.07,466.16 56.3,175.37 4.35,358.52 12.23,537.62 9.73,221.06 164.29,386.62 246.9,581.84 122.53,289.53 -48.72,544.05 -272.96,723.86 -188.33,151.02 -398.53,280.62 -621.41,376.41"
         style="fill:#93d222;fill-opacity:1;fill-rule:nonzero;stroke:none"
         id="path89215" />
      <path
         d="m 1823.58,124.379 c -125.82,0 -249.61,20.601 -373.86,54.582 C 1094.74,276.031 969.152,468.43 630.039,496.629 242.207,528.871 -0.0664063,909.93 0,1277.28 c 0.0195313,87.79 13.8711,174.79 42.8867,256.05 69.0113,193.32 240.5193,317.26 362.9263,473.92 125.07,160.06 185.886,354.88 273.292,535.59 85.969,177.74 201.333,324.04 367.055,433.32 208.08,137.21 466.35,214.84 721.13,214.84 128.93,0 257,-19.9 377.14,-62.01 51.28,-17.97 102.02,-37.79 152.12,-59.33 222.88,-95.79 433.08,-225.39 621.41,-376.41 172.56,-138.37 313.74,-320.98 313.82,-529.74 0.02,-62.52 -12.62,-127.39 -40.86,-194.12 -82.61,-195.22 -237.17,-360.78 -246.9,-581.84 -0.58,-13.11 -0.84,-26.25 -0.84,-39.41 -0.01,-101.57 15.18,-204.16 15.17,-305.62 -0.01,-64.84 -6.22,-129.231 -26.56,-192.59 C 2869.2,654.98 2725.63,500.789 2561.72,383.77 2297.88,195.41 2057.21,124.371 1823.58,124.379"
         style="fill:#a5a3d7;fill-opacity:1;fill-rule:nonzero;stroke:none"
         id="path89217" />
      <path
         d="M 2270.57,123.461 C 2270.57,55.2813 2003.41,0 1673.87,0 c -329.55,0 -596.7,55.2813 -596.7,123.461 0,68.18 267.15,123.449 596.7,123.449 329.54,0 596.7,-55.269 596.7,-123.449"
         style="fill:#17282f;fill-opacity:1;fill-rule:nonzero;stroke:none"
         id="path89219" />
      <path
         d="m 2994.61,1710.9 c 0,729.43 -591.31,1320.74 -1320.74,1320.74 -729.425,0 -1320.745,-591.31 -1320.745,-1320.74 0,-729.431 591.32,-1320.74 1320.745,-1320.74 729.43,0 1320.74,591.309 1320.74,1320.74"
         style="fill:#ffffff;fill-opacity:1;fill-rule:nonzero;stroke:none"
         id="path89221" />
      <path
         d="m 2994.61,1710.9 h 5 c 0,732.19 -593.55,1325.74 -1325.74,1325.74 C 941.68,3036.64 348.129,2443.09 348.125,1710.9 348.129,978.711 941.68,385.16 1673.87,385.16 c 732.19,0 1325.74,593.551 1325.74,1325.74 h -5 -5 c 0,-363.35 -147.26,-692.25 -385.37,-930.369 C 2366.12,542.422 2037.22,395.16 1673.87,395.16 1310.52,395.16 981.617,542.422 743.5,780.531 505.387,1018.65 358.129,1347.55 358.125,1710.9 c 0.004,363.35 147.262,692.25 385.375,930.37 238.117,238.11 567.02,385.37 930.37,385.37 363.35,0 692.25,-147.26 930.37,-385.37 238.11,-238.12 385.37,-567.02 385.37,-930.37 h 5"
         style="fill:#17282f;fill-opacity:1;fill-rule:nonzero;stroke:none"
         id="path89223" />
      <path
         d="m 1673.87,530.25 c -705.929,0 -1282.479,553.84 -1318.893,1250.69 -1.211,-23.19 -1.852,-46.54 -1.852,-70.04 0,-729.431 591.32,-1320.74 1320.745,-1320.74 729.43,0 1320.74,591.309 1320.74,1320.74 0,23.5 -0.64,46.85 -1.85,70.04 C 2956.34,1084.09 2379.8,530.25 1673.87,530.25"
         style="fill:#17282f;fill-opacity:1;fill-rule:nonzero;stroke:none"
         id="path89225" />
      <path
         d="m 1673.87,530.25 v 5 C 970.613,535.238 396.242,1087 359.969,1781.2 h -9.985 c -1.218,-23.27 -1.859,-46.71 -1.859,-70.3 C 348.129,978.711 941.68,385.16 1673.87,385.16 c 732.19,0 1325.74,593.551 1325.74,1325.74 0,23.59 -0.64,47.03 -1.86,70.3 h -9.98 C 2951.49,1087 2377.13,535.238 1673.87,535.25 v -5 -5 c 708.6,0.012 1287.32,555.92 1323.88,1255.43 l -4.99,0.26 -4.99,-0.26 c 1.2,-23.11 1.84,-46.37 1.84,-69.78 0,-363.35 -147.26,-692.25 -385.37,-930.369 C 2366.12,542.422 2037.22,395.16 1673.87,395.16 1310.52,395.16 981.617,542.422 743.5,780.531 505.387,1018.65 358.129,1347.55 358.125,1710.9 v 0 c 0,23.41 0.637,46.67 1.844,69.78 l -4.992,0.26 -4.993,-0.26 C 386.539,1081.17 965.266,525.262 1673.87,525.25 v 5"
         style="fill:#17282f;fill-opacity:1;fill-rule:nonzero;stroke:none"
         id="path89227" />
      <path
         d="m 1601.29,2303.52 37.62,-50.14 84.63,-31.35 18.81,-65.83 -53.29,-21.94 v -12.54 l 94.04,-37.61 43.89,9.4 21.94,34.48 -6.27,59.56 -56.42,21.94 -34.49,56.42 -125.38,56.43 -25.08,-18.82"
         style="fill:#5d6aa2;fill-opacity:1;fill-rule:nonzero;stroke:none"
         id="path89229" />
      <path
         d="m 1601.29,2303.52 -4,-3 38.5,-51.32 83.64,-30.98 16.88,-59.1 -52.25,-21.51 v -19.27 l 98.6,-39.44 47.42,10.16 24.01,37.72 -6.78,64.32 -57.69,22.44 -34.41,56.3 -129.48,58.27 -31.44,-23.59 3,-4 4,3 3,-4 22.72,17.04 121.28,-54.57 34.56,-56.55 55.16,-21.45 5.77,-54.79 -19.89,-31.24 -40.35,-8.65 -89.48,35.8 v 5.8 l 54.32,22.37 -20.73,72.56 -85.62,31.71 -36.74,48.97 -4,-3 3,-4 -3,4"
         style="fill:#17282f;fill-opacity:1;fill-rule:nonzero;stroke:none"
         id="path89231" />
      <path
         d="m 2416.28,874.148 -100.3,40.762 -122.25,43.879 h -97.17 l -90.9,18.813 -100.31,-21.942 -56.42,-3.14 h -34.48 l -65.83,-37.61 -62.69,-25.082 -84.64,53.293 21.95,87.759 -53.29,21.95 h -62.69 l -9.41,28.21 6.27,56.43 -21.94,31.34 -43.88,-6.27 -12.54,-31.34 -53.29,-3.14 -47.02,56.42 -18.8,75.23 47.01,87.77 90.91,-6.26 25.07,-21.95 h 37.62 l 47.02,28.21 40.74,-12.53 56.43,-97.18 21.94,3.13 -6.27,72.1 -18.8,37.62 6.27,59.55 115.97,50.16 15.68,115.97 50.15,40.76 40.74,72.09 31.35,6.27 72.1,47.02 3.14,25.07 -50.16,-3.13 -9.4,25.08 h -34.49 l -53.28,-12.54 25.07,40.75 109.72,31.34 25.08,28.22 43.87,-68.96 28.22,-28.22 43.88,12.54 -18.81,40.75 -65.83,47.02 -75.22,84.63 -78.37,53.29 -75.23,12.54 -37.61,37.61 -50.16,12.54 -6.27,-12.54 -6.27,-90.9 12.54,-31.34 -28.2,-100.31 -62.7,50.15 9.41,43.89 -65.83,31.34 -28.21,34.48 15.67,78.37 90.91,65.82 6.27,75.23 -34.49,-3.13 -21.94,28.21 -9.4,47.02 -21.94,3.13 -12.54,-50.15 -34.48,-6.27 -15.68,109.71 -25.07,15.68 -43.89,18.8 -50.15,-25.07 62.69,-59.57 12.54,-53.28 -112.85,84.64 -78.36,84.63 -6.27,84.63 -81.5,25.08 -62.69,-40.76 c 0,0 -31.35,-18.8 -47.02,-25.07 -15.67,-6.27 -75.225,-12.53 -75.225,-12.53 l -12.539,-53.3 -72.102,-3.13 6.277,-34.48 115.979,-18.81 59.55,-65.82 v -109.71 l -34.48,-97.18 6.27,-103.44 -87.764,-153.59 -18.808,-228.83 28.21,-131.65 40.752,-100.3 47.02,-6.27 -15.68,50.15 -25.07,37.61 -15.68,68.97 28.22,6.27 43.88,-112.85 31.34,-100.31 v -81.5 l 59.56,-72.09 106.58,-78.37 163,-43.88 50.15,-47.018 37.61,-50.152 56.43,-34.489 68.96,-18.8 68.96,3.14 c 0,0 -3.14,-31.351 -3.14,-47.019 0,-15.68 -43.88,-68.973 -43.88,-68.973 l -34.48,-62.68 25.08,-68.968 68.95,-28.211 97.18,-100.301 43.88,-18.809 v -47.019 l 5.48,-21.903 c 249.43,40.231 475.47,150.282 657.43,309.5 l 1.62,22.723 84.64,153.59 -40.75,28.219 -172.41,-47.032"
         style="fill:#5d6aa2;fill-opacity:1;fill-rule:nonzero;stroke:none"
         id="path89233" />
      <path
         d="m 2416.28,874.148 1.89,4.641 -100.4,40.793 -123.17,44.207 h -97.53 l -91.44,18.922 -100.96,-22.082 -55.88,-3.109 h -35.67 l -66.68,-38.098 -60,-24 -79.42,50 22.12,88.438 -58.2,23.97 h -60.08 l -7.92,23.75 6.36,57.21 -24.78,35.41 -49.79,-7.12 -12.44,-31.08 -47.59,-2.8 -44.68,53.6 -18.06,72.25 44.58,83.22 86,-5.93 25.22,-22.07 h 40.88 l 46.3,27.78 36.74,-11.31 57.14,-98.4 29.96,4.28 -6.76,77.77 -18.58,37.16 5.81,55.19 115.89,50.12 15.79,116.81 49.35,40.1 40.08,70.93 30.05,6.01 74.84,48.81 4.18,33.36 -52.49,-3.28 -9.32,24.86 h -38.53 l -42.14,-9.92 17.75,28.85 109.25,31.22 21.64,24.34 40.62,-63.83 30.68,-30.68 52.33,14.95 -21.81,47.25 -66.45,47.46 -75.27,84.68 -79.79,54.25 -74.72,12.46 -37.47,37.46 -55.39,13.84 -8.51,-17.02 -6.41,-93.04 12.33,-30.82 -25.7,-91.41 -54.39,43.5 9.58,44.73 -68.38,32.57 -26,31.78 14.82,74.13 91.18,66.02 6.95,83.45 -37.69,-3.43 -19.54,25.13 -9.87,49.33 -29.9,4.27 -12.85,-51.4 -26.2,-4.76 -15.27,106.87 -27.37,17.11 -46.37,19.87 -58.6,-29.3 66.78,-63.44 9.04,-38.42 -101.47,76.09 -76.86,83.02 -6.4,86.29 -86.99,26.77 -64.66,-42.02 2.73,-4.2 -2.57,4.29 c -0.01,0 -1.93,-1.15 -5.1,-3 -9.43,-5.54 -30.1,-17.3 -41.2,-21.71 -3.23,-1.32 -9.81,-2.91 -17.44,-4.34 -11.5,-2.17 -25.66,-4.15 -36.89,-5.57 -11.248,-1.43 -19.549,-2.3 -19.569,-2.3 l -3.531,-0.37 -12.484,-53.07 -74.047,-3.21 7.933,-43.6 117.728,-19.09 57.09,-63.1 v -106.92 l -34.53,-97.32 6.24,-102.97 -87.578,-153.27 -18.957,-230.66 28.457,-132.8 42.008,-103.4 57.67,-7.69 -18.23,58.31 -24.96,37.45 -14.36,63.17 19.12,4.25 42.27,-108.7 31.06,-99.41 v -82.54 l 61.1,-73.95 107.83,-79.29 162.7,-43.8 48.92,-45.87 37.93,-50.57 57.84,-35.351 70.41,-19.2 69.74,3.18 -0.22,4.992 -4.98,0.5 c 0,-0.09 -3.15,-31.332 -3.16,-47.519 0.03,-0.813 -0.43,-2.961 -1.52,-5.59 -3.77,-9.402 -14.18,-24.813 -23.53,-37.422 -4.68,-6.328 -9.11,-12.039 -12.37,-16.16 -3.25,-4.11 -5.31,-6.61 -5.32,-6.621 l -0.29,-0.36 -35.8,-65.078 26.61,-73.179 70.03,-28.653 97.15,-100.269 41.77,-17.91 v -44.34 l 6.74,-26.942 4.53,0.731 c 250.39,40.371 477.29,150.851 659.93,310.66 l 1.55,1.359 1.69,23.684 86.29,156.578 -46.38,32.109 -174.65,-47.629 1.31,-4.832 1.89,4.641 -1.89,-4.641 1.32,-4.816 170.16,46.406 35.12,-24.316 -82.99,-150.602 -1.7,-23.82 4.99,-0.352 -3.29,3.762 C 2358.61,561.789 2133.44,452.16 1884.95,412.09 l 0.8,-4.942 4.85,1.223 -5.33,21.289 v 49.711 l -45.99,19.711 -97.2,100.328 -67.88,27.77 -23.55,64.761 33.39,60.688 -4.38,2.41 3.86,-3.168 c 0.04,0.051 11.06,13.418 22.14,28.859 5.55,7.731 11.11,15.961 15.37,23.411 2.13,3.73 3.93,7.257 5.26,10.531 1.31,3.277 2.22,6.226 2.25,9.34 0,7.527 0.77,19.258 1.55,28.988 0.78,9.738 1.56,17.512 1.56,17.531 l 0.58,5.758 -73.95,-3.367 -67.52,18.41 -55,33.609 -37.3,49.739 -51.39,48.18 -163.3,43.96 -105.32,77.44 -58.02,70.23 v 80.47 l -31.62,101.19 -45.5,117.01 -37.31,-8.29 16.99,-74.76 25.2,-37.79 13.12,-41.98 -36.37,4.85 -39.495,97.21 -27.965,130.5 18.657,226.98 87.953,153.93 -6.29,103.91 34.42,97.02 v 112.5 l -62.02,68.56 -114.223,18.52 -4.618,25.36 70.157,3.05 13.406,56.98 -4.867,1.15 0.523,-4.98 c 0.031,0.01 14.962,1.58 31.902,3.94 8.48,1.18 17.45,2.56 25.36,4.06 7.95,1.51 14.69,3.05 19.3,4.87 8.31,3.33 20.08,9.63 29.97,15.17 9.87,5.52 17.74,10.24 17.76,10.26 l 0.08,0.05 60.8,39.52 76.01,-23.38 6.14,-82.98 79.86,-86.25 124.23,-93.17 -16.03,68.15 -58.61,55.68 41.7,20.85 41.41,-17.74 22.77,-14.24 16.08,-112.55 42.77,7.78 12.22,48.9 13.98,-1.99 8.94,-44.71 24.34,-31.3 31.28,2.84 -5.59,-67.01 -90.63,-65.62 -16.52,-82.61 30.42,-37.17 63.27,-30.13 -9.22,-43.04 71,-56.8 30.7,109.21 -12.74,31.86 6.12,88.76 4.03,8.06 44.92,-11.23 37.77,-37.77 75.73,-12.62 76.94,-52.32 75.19,-84.59 65.21,-46.58 15.81,-34.24 -35.45,-10.13 -25.74,25.74 -47.14,74.09 -28.51,-32.08 -110.19,-31.48 -32.39,-52.64 64.42,15.16 h 30.44 l 9.49,-25.3 47.83,2.99 -2.1,-16.79 -69.35,-45.23 -32.65,-6.53 -41.41,-73.26 -50.95,-41.4 -15.57,-115.14 -116.06,-50.2 -6.73,-63.91 19.04,-38.07 5.77,-66.44 -13.92,-1.99 -55.71,95.96 -44.75,13.77 -47.75,-28.65 h -34.35 l -24.93,21.82 -95.81,6.61 -49.45,-92.33 19.55,-78.21 49.37,-59.24 58.97,3.47 12.64,31.61 37.99,5.43 19.09,-27.29 -6.18,-55.64 10.89,-32.67 h 65.31 l 48.38,-19.92 -21.78,-87.09 89.86,-56.582 65.38,26.153 64.98,37.129 h 33.29 l 56.95,3.171 99.67,21.797 90.36,-18.699 h 96.81 l 121.34,-43.551 101.77,-41.347 1.63,0.441 -1.32,4.816"
         style="fill:#17282f;fill-opacity:1;fill-rule:nonzero;stroke:none"
         id="path89235" />
      <path
         d="m 2742.28,2112.32 -34.48,59.55 -43.88,68.97 -12.54,94.04 56.42,-9.41 3.13,31.35 -40.75,3.13 34.48,15.68 37.62,21.93 v 31.35 l -37.62,50.15 -8.02,67.46 c -242.21,296.1 -610.39,485.12 -1022.77,485.12 -187.46,0 -365.75,-39.14 -527.28,-109.55 l 72.29,-51.2 -43.89,-56.43 -59.56,-12.53 -6.26,-84.64 -25.08,-9.4 -31.35,-34.48 3.14,-56.42 53.29,-6.27 -21.95,-53.29 h 53.29 l 90.91,115.98 9.4,50.15 87.77,6.27 21.94,37.62 90.9,9.4 9.41,53.29 65.82,3.13 c 0,0 47.02,25.08 56.42,25.08 9.41,0 53.29,-15.67 53.29,-15.67 l 47.02,-37.62 h 65.82 l 56.43,34.48 72.09,-6.27 c 0,0 18.81,-12.54 34.48,-12.54 15.68,0 62.7,21.95 62.7,21.95 l 90.9,-56.43 37.61,-28.21 v -47.02 l 47.02,-6.27 15.68,28.21 40.74,-18.8 -3.13,-25.08 -94.04,-25.08 53.29,-68.96 112.85,-62.69 47.02,-62.69 68.95,-6.27 15.68,31.34 25.07,6.27 -81.49,62.7 -50.16,6.26 40.76,12.54 -37.62,53.29 53.29,3.14 68.95,-37.62 15.68,-75.22 34.48,-40.76 28.21,-90.9 68.96,-50.15 v -103.44 l 72.1,-47.02 -3.14,-34.48 -9.4,-40.75 18.81,-56.43 6.27,-28.21 53.28,-9.4 25.08,53.29 15.67,34.48"
         style="fill:#5d6aa2;fill-opacity:1;fill-rule:nonzero;stroke:none"
         id="path89237" />
      <path
         d="m 2742.28,2112.32 4.33,2.5 -34.54,59.65 -43.34,68.12 -11.5,86.24 55.01,-9.17 4.18,41.75 -26.47,2.04 17.01,7.73 40.32,23.51 v 35.89 l -37.81,50.41 -8.04,67.57 -0.92,1.13 c -243.11,297.2 -612.72,486.96 -1026.64,486.95 v 0 c -188.16,0 -367.14,-39.29 -529.28,-109.97 l -8.12,-3.54 75.25,-53.3 -39.55,-50.85 -61.44,-12.93 -6.31,-85.2 -23.21,-8.7 -33.57,-36.93 3.48,-62.71 50.91,-5.99 -22.27,-54.09 h 63.19 l 93.16,118.86 8.91,47.56 86.56,6.18 21.99,37.7 92.13,9.54 9.36,53.06 62.96,3 0.99,0.53 c 0.01,0 2.91,1.55 7.44,3.89 6.79,3.5 17.21,8.77 26.73,13.12 4.75,2.17 9.28,4.11 12.95,5.48 1.83,0.68 3.44,1.21 4.69,1.55 1.24,0.35 2.19,0.47 2.26,0.45 1.17,0.05 5.77,-0.83 10.99,-2.28 7.97,-2.15 18.17,-5.44 26.33,-8.18 8.16,-2.73 14.28,-4.92 14.29,-4.92 l 1.68,4.71 -3.12,-3.91 48.39,-38.71 h 68.98 l 56.22,34.36 70.46,-6.13 0.43,4.98 -2.77,-4.16 c 0.13,-0.09 5.01,-3.34 12,-6.63 7.03,-3.27 16.1,-6.71 25.25,-6.75 5.01,0.04 11.04,1.55 17.9,3.66 20.36,6.34 46.81,18.72 46.91,18.75 l -2.11,4.54 -2.64,-4.25 90.71,-56.31 35.44,-26.58 v -48.9 l 54.74,-7.3 15.08,27.14 33.21,-15.33 -2.27,-18.1 -98.04,-26.15 58.52,-75.73 112.8,-62.67 47.72,-63.62 74.57,-6.77 16.17,32.33 32.88,8.22 -90.77,69.83 -28.39,3.55 25.08,7.71 -36.41,51.58 42.88,2.52 65.67,-35.82 15.46,-74.21 34.65,-40.94 28.4,-91.52 68.24,-49.63 v -103.6 l 71.85,-46.86 -2.84,-31.14 -9.64,-41.79 19.17,-57.51 6.94,-31.22 60.33,-10.65 26.72,56.77 16.76,36.87 -1.29,2.22 -4.33,-2.5 -4.55,2.07 -15.66,-34.46 -23.44,-49.79 -46.23,8.16 -5.6,25.2 -18.44,55.33 9.16,39.71 3.44,37.82 -72.35,47.18 v 103.28 l -69.67,50.68 -28.03,90.29 -34.32,40.55 -15.88,76.26 -72.24,39.4 -63.7,-3.75 38.82,-55 -56.42,-17.36 71.92,-8.99 72.22,-55.55 -17.28,-4.32 -15.17,-30.35 -63.35,5.76 -46.32,61.77 -112.88,62.7 -48.06,62.2 90.02,24.01 4.01,32.04 -48.28,22.29 -16.27,-29.29 -39.31,5.24 v 45.14 l -39.79,29.84 -93.39,57.97 -2.45,-1.14 c 0,-0.01 -2.88,-1.35 -7.5,-3.39 -6.91,-3.06 -17.68,-7.65 -28.07,-11.45 -5.19,-1.89 -10.29,-3.59 -14.71,-4.79 -4.39,-1.2 -8.2,-1.87 -10.3,-1.85 -6.52,-0.04 -14.69,2.8 -20.99,5.8 -3.16,1.48 -5.87,2.98 -7.78,4.1 -0.95,0.55 -1.7,1.02 -2.21,1.33 l -0.73,0.47 -1.06,0.71 -75,6.52 -56.63,-34.6 h -62.66 l -46.31,37.04 -0.79,0.28 c -0.02,0.01 -11.03,3.94 -23.26,7.89 -6.12,1.98 -12.54,3.95 -18.11,5.46 -5.65,1.49 -10.06,2.56 -13.6,2.62 -2.23,-0.03 -4.18,-0.57 -6.62,-1.31 -8.29,-2.61 -21.07,-8.64 -32.1,-14.09 -10.99,-5.43 -20.02,-10.25 -20.05,-10.27 l 2.35,-4.41 -0.24,5 -69.81,-3.33 -9.45,-53.51 -89.67,-9.27 -21.89,-37.53 -88.98,-6.36 -9.89,-52.74 -88.65,-113.1 h -43.39 l 21.61,52.48 -55.66,6.55 -2.79,50.13 29.13,32.04 26.94,10.1 6.22,84.08 57.67,12.14 48.22,62 -76.55,54.21 -2.89,-4.07 2,-4.59 c 160.91,70.15 338.52,109.14 525.28,109.14 410.83,0 777.59,-188.3 1018.9,-483.28 l 3.87,3.16 -4.97,-0.59 8.19,-68.79 37.42,-49.9 v -26.81 l -34.92,-20.36 -51.95,-23.61 55.04,-4.24 -2.1,-20.94 -57.82,9.64 13.58,-101.84 44.41,-69.8 34.43,-59.47 4.33,2.51 -4.55,2.07 4.55,-2.07"
         style="fill:#17282f;fill-opacity:1;fill-rule:nonzero;stroke:none"
         id="path89239" />
      <path
         d="m 2783.03,2428.1 v -18 l -15.67,-50.15 9.4,-43.89 34.49,-12.54 v -59.55 l -37.62,15.67 -9.41,-169.26 -37.61,-68.96 25.07,-87.77 40.76,-37.62 v -169.27 l 40.74,-131.65 43.89,-100.3 72.1,-18.81 25.07,62.69 10.22,7.99 c 6.67,53.81 10.15,108.61 10.15,164.22 0,264.42 -77.76,510.66 -211.58,717.2"
         style="fill:#5d6aa2;fill-opacity:1;fill-rule:nonzero;stroke:none"
         id="path89241" />
      <path
         d="m 2783.03,2428.1 h -5 v -17.23 l -15.84,-50.68 10.26,-47.88 33.8,-12.29 v -48.55 l -37.22,15.51 -9.74,-175.2 -38.05,-69.77 26.02,-91.09 40.18,-37.08 v -167.83 l 41.05,-132.64 44.97,-102.79 78.71,-20.53 26.22,65.53 10.78,8.44 0.25,2.05 c 6.69,54.01 10.19,109.01 10.19,164.83 0.01,265.41 -78.06,512.6 -212.38,719.92 l -9.2,14.19 v -16.91 h 5 l -4.19,-2.72 c 133.31,-205.76 210.77,-451.04 210.77,-714.48 0,-55.4 -3.47,-109.99 -10.11,-163.6 l 4.96,-0.62 -3.08,3.94 -11.28,-8.83 -23.94,-59.84 -65.49,17.09 -42.8,97.82 -40.43,130.66 v 170.7 l -41.33,38.15 -24.13,84.45 37.17,68.15 9.08,163.34 38.02,-15.84 v 70.56 l -35.18,12.79 -8.55,39.89 15.51,49.63 v 18.76 h -5 l -4.19,-2.72 4.19,2.72"
         style="fill:#17282f;fill-opacity:1;fill-rule:nonzero;stroke:none"
         id="path89243" />
      <path
         d="m 2058.94,2447.72 -206.88,90.9 -90.9,-3.13 -21.95,-59.56 -37.61,40.75 -68.96,-15.68 -6.27,-103.44 56.43,-40.74 40.74,59.55 47.02,-47.01 97.17,-84.64 18.81,-90.9 81.5,-103.44 131.65,21.94 -3.13,47.02 -28.21,53.28 -6.27,125.39 31.34,53.28 -34.48,56.43"
         style="fill:#5d6aa2;fill-opacity:1;fill-rule:nonzero;stroke:none"
         id="path89245" />
      <path
         d="m 2058.94,2447.72 2.01,4.58 -207.93,91.35 -95.39,-3.28 -20.28,-55.05 -34.04,36.88 -75.43,-17.15 -6.66,-109.93 62.81,-45.36 40.24,58.81 42.88,-42.87 96.02,-83.64 18.71,-90.41 84.07,-106.69 139.03,23.17 -3.5,52.6 -28.2,53.25 -6.14,122.78 32.11,54.58 -36.86,60.33 -1.44,0.63 -2.01,-4.58 -4.27,-2.61 32.92,-53.86 -30.58,-52 6.4,-127.99 28.23,-53.32 2.76,-41.43 -124.26,-20.72 -78.94,100.2 -18.92,91.4 -98.3,85.62 -51.17,51.16 -41.24,-60.3 -50.04,36.14 5.88,96.95 62.47,14.2 41.2,-44.63 23.61,64.08 86.4,2.97 205.84,-90.44 2.01,4.58 -4.27,-2.61 4.27,2.61"
         style="fill:#17282f;fill-opacity:1;fill-rule:nonzero;stroke:none"
         id="path89247" />
      <path
         d="m 2228.21,2378.76 -47.01,12.53 -40.76,-34.47 21.95,-90.91 h 40.74 l 25.08,112.85"
         style="fill:#5d6aa2;fill-opacity:1;fill-rule:nonzero;stroke:none"
         id="path89249" />
      <path
         d="m 2228.21,2378.76 1.29,4.83 -49.54,13.21 -45.1,-38.16 23.59,-97.73 h 48.69 l 26.99,121.45 -4.63,1.23 -1.29,-4.83 -4.88,1.08 -24.21,-108.93 h -32.8 l -20.29,84.08 36.4,30.8 44.49,-11.86 1.29,4.83 -4.88,1.08 4.88,-1.08"
         style="fill:#17282f;fill-opacity:1;fill-rule:nonzero;stroke:none"
         id="path89251" />
      <path
         d="m 2519.72,2319.2 -106.57,56.43 -21.94,37.61 -25.08,-9.41 21.94,-62.69 18.81,-81.5 47.02,-18.8 9.41,12.54 -28.22,47.01 81.5,-31.34 3.13,50.15"
         style="fill:#5d6aa2;fill-opacity:1;fill-rule:nonzero;stroke:none"
         id="path89253" />
      <path
         d="m 2519.72,2319.2 2.34,4.42 -105.31,55.76 -23.35,40.02 -33.61,-12.6 23.47,-67.05 19.34,-83.78 53,-21.2 13.72,18.29 -22.47,37.45 74.3,-28.58 3.76,60.18 -2.85,1.51 -2.34,-4.42 -4.99,0.31 -2.71,-43.35 -88.69,34.11 33.96,-56.59 -5.09,-6.78 -41.04,16.42 -18.28,79.22 -20.42,58.33 16.55,6.2 20.54,-35.19 107.83,-57.1 2.34,4.42 -4.99,0.31 4.99,-0.31"
         style="fill:#17282f;fill-opacity:1;fill-rule:nonzero;stroke:none"
         id="path89255" />
      <path
         d="m 1604.43,1187.62 -12.54,-12.54 94.04,-28.21 37.61,-43.89 59.56,-6.27 21.94,34.49 -72.1,12.53 -128.51,43.89"
         style="fill:#5d6aa2;fill-opacity:1;fill-rule:nonzero;stroke:none"
         id="path89257" />
      <path
         d="m 1604.43,1187.62 -3.54,3.54 -18.46,-18.46 100.66,-30.2 37.95,-44.28 64.62,-6.8 27.63,43.42 -79.1,13.75 -131.09,44.77 -2.21,-2.2 3.54,-3.54 -1.62,-4.73 128.89,-44.01 65.1,-11.33 -16.26,-25.54 -54.5,5.74 -37.27,43.49 -87.43,26.23 6.62,6.62 -3.53,3.53 -1.62,-4.73 1.62,4.73"
         style="fill:#17282f;fill-opacity:1;fill-rule:nonzero;stroke:none"
         id="path89259" />
      <path
         d="m 1883.4,1128.06 -65.82,-18.81 9.41,-25.08 h 81.49 l 15.68,25.08 -28.22,-3.13 -12.54,21.94"
         style="fill:#5d6aa2;fill-opacity:1;fill-rule:nonzero;stroke:none"
         id="path89261" />
      <path
         d="m 1883.4,1128.06 -1.37,4.81 -71.03,-20.3 12.52,-33.4 h 87.73 l 22.62,36.19 -35.22,-3.91 -12.85,22.5 -3.77,-1.08 1.37,-4.81 -4.34,-2.48 14.17,-24.79 21.21,2.35 -8.73,-13.97 h -75.26 l -6.28,16.76 60.61,17.32 -1.38,4.81 -4.34,-2.48 4.34,2.48"
         style="fill:#17282f;fill-opacity:1;fill-rule:nonzero;stroke:none"
         id="path89263" />
      <path
         d="m 1232.37,1188.91 c -6.64,0 -13.26,0.09 -19.86,0.25 l -0.26,-9.99 c 6.69,-0.17 13.4,-0.26 20.12,-0.26 z m -39.71,1.02 c -6.63,0.34 -13.24,0.77 -19.82,1.27 l -0.77,-9.97 c 6.67,-0.51 13.36,-0.94 20.08,-1.29 z m -39.61,3.06 c -6.6,0.69 -13.17,1.45 -19.73,2.3 l -1.28,-9.91 c 6.64,-0.86 13.3,-1.64 19.98,-2.33 z m -39.39,5.11 c -6.55,1.03 -13.08,2.14 -19.59,3.33 l -1.8,-9.84 c 6.59,-1.21 13.21,-2.33 19.84,-3.37 z m -39.08,7.16 c -6.51,1.36 -12.99,2.81 -19.45,4.35 l -2.31,-9.73 c 6.54,-1.56 13.11,-3.02 19.71,-4.41 z m -38.77,9.2 c -6.43,1.7 -12.82,3.49 -19.19,5.35 l -2.81,-9.6 c 6.45,-1.88 12.93,-3.69 19.43,-5.42 z m -38.22,11.19 c -6.32,2.03 -12.61,4.14 -18.867,6.33 l -3.301,-9.44 c 6.34,-2.21 12.707,-4.35 19.109,-6.41 z m -37.559,13.14 c -6.199,2.35 -12.371,4.78 -18.504,7.28 l -3.777,-9.25 c 6.211,-2.54 12.457,-5 18.738,-7.38 z m -36.812,15.03 c -6.071,2.66 -12.102,5.4 -18.102,8.21 l -4.242,-9.06 c 6.074,-2.84 12.184,-5.61 18.332,-8.31 z m -35.985,16.86 c -5.921,2.96 -11.808,6 -17.656,9.1 l -4.691,-8.83 c 5.922,-3.15 11.883,-6.22 17.879,-9.21 z m -35.078,18.63 c -5.765,3.25 -11.492,6.57 -17.179,9.96 l -5.122,-8.59 c 5.758,-3.43 11.555,-6.79 17.391,-10.08 z m -34.101,20.33 c -5.598,3.52 -11.153,7.12 -16.664,10.78 l -5.536,-8.33 c 5.583,-3.71 11.204,-7.34 16.868,-10.91 z m -33.063,21.96 c -5.414,3.79 -10.789,7.64 -16.117,11.56 l -5.926,-8.05 c 5.395,-3.97 10.832,-7.87 16.313,-11.71 z m -31.953,23.51 c -5.23,4.04 -10.41,8.14 -15.547,12.31 l -6.304,-7.76 c 5.199,-4.22 10.445,-8.37 15.734,-12.46 z m -30.801,24.99 c -5.027,4.28 -10.011,8.62 -14.945,13.02 l -6.66,-7.46 c 4.996,-4.45 10.035,-8.85 15.125,-13.18 z m -29.59,26.39 c -4.824,4.51 -9.597,9.08 -14.324,13.7 l -6.996,-7.15 c 4.781,-4.67 9.613,-9.29 14.492,-13.85 z m -28.332,27.73 c -4.613,4.72 -9.171,9.5 -13.683,14.33 l -7.313,-6.82 c 4.563,-4.89 9.176,-9.72 13.84,-14.5 z m -27.039,28.98 c -4.39,4.92 -8.73,9.9 -13.019,14.93 l -7.613,-6.48 c 4.335,-5.09 8.726,-10.13 13.168,-15.11 z m -25.703,30.15 c -4.168,5.12 -8.277,10.29 -12.34,15.5 l -7.89,-6.14 c 4.105,-5.27 8.261,-10.5 12.476,-15.67 z m -24.379,31.33 c -3.949,5.32 -7.847,10.68 -11.687,16.09 l -8.156,-5.78 c 3.882,-5.48 7.824,-10.9 11.816,-16.27 z m -23.019,32.44 c -3.711,5.48 -7.367,11.01 -10.973,16.59 l -8.398,-5.43 c 3.64,-5.64 7.336,-11.23 11.09,-16.77 z m -21.578,33.41 c -3.473,5.64 -6.887,11.32 -10.243,17.05 l -8.628,-5.06 c 3.394,-5.79 6.843,-11.53 10.351,-17.23 z m -20.114,34.32 c -3.226,5.78 -6.39,11.6 -9.5,17.47 l -8.836,-4.68 c 3.141,-5.93 6.34,-11.82 9.602,-17.66 z M 503.859,1660 c -2.972,5.91 -5.886,11.87 -8.742,17.86 l -9.027,-4.3 c 2.883,-6.06 5.832,-12.08 8.836,-18.06 z m -17.105,35.91 c -2.719,6.04 -5.379,12.11 -7.981,18.22 l -9.203,-3.91 c 2.629,-6.18 5.317,-12.32 8.067,-18.42 z m -15.574,36.61 c -2.461,6.14 -4.864,12.32 -7.203,18.54 l -9.36,-3.53 c 2.363,-6.28 4.793,-12.52 7.281,-18.73 z m -14.02,37.23 c -2.203,6.24 -4.344,12.51 -6.426,18.82 l -9.496,-3.13 c 2.102,-6.37 4.266,-12.71 6.492,-19.02 z m -12.453,37.78 c -1.941,6.33 -3.82,12.69 -5.637,19.08 l -9.621,-2.73 c 1.836,-6.46 3.735,-12.89 5.696,-19.28 z m -10.879,38.27 c -1.676,6.4 -3.289,12.83 -4.84,19.3 l -9.722,-2.34 c 1.566,-6.53 3.195,-13.02 4.89,-19.49 l 9.676,2.53 z m -9.285,38.69 c -1.414,6.46 -2.762,12.96 -4.047,19.47 l -9.812,-1.93 v 0 c 1.3,-6.59 2.664,-13.14 4.089,-19.68 z m -7.695,39.03 c -1.149,6.52 -2.231,13.06 -3.246,19.63 l -9.883,-1.53 c 1.027,-6.64 2.121,-13.25 3.281,-19.83 z m -6.098,39.32 c -0.883,6.56 -1.699,13.14 -2.449,19.74 l -9.938,-1.13 v 0 c 0.762,-6.67 1.586,-13.32 2.477,-19.94 z m -4.504,39.53 c -0.613,6.59 -1.168,13.2 -1.652,19.83 l -9.977,-0.73 v 0 c 0.492,-6.7 1.051,-13.37 1.676,-20.03 z m -2.91,39.69 c -0.356,6.61 -0.641,13.23 -0.863,19.88 l -9.996,-0.34 c 0.226,-6.71 0.515,-13.4 0.871,-20.08 z m -1.332,39.74 c -0.063,4.6 -0.094,9.2 -0.094,13.82 0,2.03 0.004,4.05 0.02,6.08 l -10,0.06 v 0 c -0.016,-2.05 -0.02,-4.09 -0.02,-6.14 0,-4.66 0.031,-9.31 0.094,-13.96 z m 0.238,39.79 c 0.172,6.65 0.41,13.28 0.711,19.89 l -9.988,0.46 v 0 c -0.305,-6.68 -0.543,-13.38 -0.719,-20.09 z m 1.817,39.76 c 0.433,6.63 0.933,13.24 1.5,19.84 l -9.965,0.85 v 0 c -0.571,-6.66 -1.074,-13.34 -1.516,-20.04 z m 3.398,39.64 c 0.699,6.61 1.469,13.2 2.297,19.77 l -9.922,1.25 v 0 c -0.84,-6.63 -1.609,-13.29 -2.32,-19.96 z m 4.992,39.48 c 0.965,6.58 1.996,13.13 3.094,19.66 l -9.863,1.65 v 0 c -1.106,-6.6 -2.149,-13.21 -3.125,-19.85 z m 6.586,39.24 c 1.235,6.53 2.531,13.03 3.895,19.51 l -9.785,2.06 v 0 c -1.379,-6.55 -2.688,-13.12 -3.934,-19.71 z m 8.184,38.94 c 1.5,6.47 3.062,12.92 4.691,19.33 l -9.695,2.46 c -1.645,-6.48 -3.223,-12.99 -4.738,-19.53 z m 9.777,38.56 c 1.766,6.41 3.594,12.79 5.481,19.13 l -9.582,2.86 c -1.911,-6.41 -3.758,-12.86 -5.54,-19.33 z m 11.359,38.14 c 2.032,6.32 4.122,12.61 6.274,18.88 l -9.457,3.25 c -2.176,-6.33 -4.289,-12.69 -6.336,-19.08 z m 12.938,37.62 c 2.289,6.24 4.641,12.44 7.055,18.6 l -9.313,3.64 c -2.437,-6.23 -4.812,-12.49 -7.129,-18.79 z m 14.5,37.05 c 2.551,6.13 5.16,12.23 7.832,18.28 l -9.152,4.04 c -2.7,-6.13 -5.336,-12.29 -7.914,-18.48 z m 16.047,36.4 c 2.805,6.02 5.672,12 8.598,17.94 l -8.973,4.42 c -2.957,-6.01 -5.852,-12.05 -8.688,-18.13 z m 17.574,35.69 c 3.063,5.89 6.18,11.75 9.356,17.56 l -8.774,4.79 c -3.211,-5.87 -6.363,-11.78 -9.457,-17.74 z m 19.086,34.91 c 3.309,5.75 6.676,11.46 10.098,17.13 l -8.559,5.17 c -3.461,-5.73 -6.863,-11.5 -10.211,-17.32 z m 20.566,34.05 c 3.555,5.6 7.164,11.16 10.832,16.68 l -8.328,5.54 c -3.707,-5.58 -7.355,-11.2 -10.949,-16.87 z m 22.071,33.18 c 3.808,5.46 7.676,10.88 11.593,16.25 l -8.074,5.89 c -3.965,-5.42 -7.871,-10.9 -11.722,-16.42 z m 23.543,32.23 c 4.047,5.29 8.148,10.53 12.3,15.72 l -7.804,6.25 c -4.199,-5.25 -8.348,-10.54 -12.438,-15.89 z m 24.949,31.15 c 4.273,5.1 8.601,10.15 12.984,15.14 l -7.515,6.6 c -4.43,-5.05 -8.809,-10.16 -13.133,-15.32 z m 26.309,29.98 c 4.5,4.9 9.05,9.75 13.652,14.53 l -7.207,6.93 c -4.656,-4.84 -9.258,-9.74 -13.813,-14.69 z m 27.632,28.75 c 4.719,4.69 9.485,9.32 14.301,13.88 l -6.883,7.26 c -4.871,-4.62 -9.695,-9.31 -14.465,-14.05 z m 28.914,27.43 c 4.926,4.46 9.899,8.87 14.922,13.2 l -6.539,7.57 c -5.082,-4.39 -10.113,-8.84 -15.097,-13.36 z m 30.145,26.05 c 5.129,4.22 10.301,8.38 15.519,12.48 l -6.175,7.87 c -5.282,-4.15 -10.516,-8.36 -15.703,-12.63 z m 31.324,24.59 c 5.317,3.97 10.68,7.87 16.082,11.71 l -5.789,8.16 c -5.473,-3.89 -10.898,-7.84 -16.281,-11.87 z m 32.442,23.04 c 5.496,3.71 11.039,7.35 16.621,10.92 l -5.391,8.43 c -5.652,-3.62 -11.258,-7.3 -16.824,-11.06 z m 33.496,21.44 c 5.668,3.43 11.375,6.8 17.125,10.09 l -4.973,8.68 c -5.82,-3.34 -11.598,-6.74 -17.336,-10.22 z m 34.484,19.76 c 5.824,3.15 11.688,6.22 17.586,9.22 l -4.535,8.91 c -5.973,-3.03 -11.91,-6.15 -17.809,-9.34 z m 35.391,18.01 c 5.968,2.85 11.972,5.62 18.011,8.33 l -4.082,9.12 c -6.117,-2.73 -12.195,-5.54 -18.238,-8.43 z m 36.222,16.2 c 6.098,2.54 12.227,5.01 18.395,7.4 l -3.617,9.32 c -6.243,-2.42 -12.453,-4.92 -18.629,-7.49 z m 36.961,14.33 c 6.211,2.22 12.453,4.38 18.727,6.45 l -3.133,9.49 c -6.355,-2.1 -12.68,-4.27 -18.973,-6.53 z m 37.601,12.41 c 6.34,1.91 12.7,3.74 19.09,5.49 l -2.64,9.65 c -6.47,-1.78 -12.92,-3.63 -19.34,-5.57 z m 38.32,10.49 c 6.42,1.59 12.87,3.09 19.35,4.5 l -2.14,9.77 v 0 c -6.56,-1.43 -13.1,-2.95 -19.6,-4.56 z m 38.8,8.5 c 6.49,1.25 13.01,2.41 19.56,3.49 l -1.63,9.86 v 0 c -6.63,-1.09 -13.23,-2.27 -19.81,-3.53 z m 39.19,6.46 c 6.55,0.91 13.12,1.73 19.71,2.47 l -1.11,9.94 c -6.68,-0.75 -13.34,-1.58 -19.97,-2.5 z m 39.48,4.43 c 6.58,0.57 13.18,1.05 19.81,1.44 l -0.6,9.99 v 0 c -6.71,-0.41 -13.4,-0.89 -20.07,-1.47 z m 39.66,2.38 c 6.59,0.22 13.21,0.36 19.84,0.42 l -0.08,10 v 0 c -6.72,-0.06 -13.42,-0.2 -20.11,-0.43 z m 39.72,0.33 c 6.64,-0.12 13.26,-0.32 19.86,-0.6 l 0.43,9.99 c -6.69,0.29 -13.39,0.49 -20.12,0.61 z m 39.7,-1.71 c 6.63,-0.45 13.23,-0.99 19.81,-1.62 l 0.94,9.96 c -6.66,0.63 -13.35,1.18 -20.06,1.64 z m 39.56,-3.75 c 6.59,-0.8 13.16,-1.68 19.7,-2.64 l 1.46,9.89 c -6.63,0.98 -13.28,1.87 -19.95,2.68 l -1.21,-9.93"
         style="fill:#17282f;fill-opacity:1;fill-rule:nonzero;stroke:none"
         id="path89265" />
      <path
         d="m 1307.75,1133.44 c 10.18,-1.31 19.59,5.61 21.38,15.71 2.13,12.07 -5.93,24.03 -17.92,26.57 l -99.07,21.02 -2.11,0.27 -32.3,63.47 15.77,-1.72 c 4.79,-0.51 9.48,2.44 10.59,7.12 1.29,5.44 -2.38,10.73 -7.83,11.5 l -29.23,4.13 -24.29,47.73 21.99,-2.39 c 4.91,-0.54 9.41,2.83 10.27,7.71 4.18,2.92 2.62,9.45 -2.43,10.17 l -40.63,5.74 -16.1,31.66 c -6,11.78 -16.94,20.28 -29.83,23.17 l -10.27,2.29 28.36,-105.61 c 0,0 19.08,-67.7 -9.22,-90.38 l -113.501,14.38 -1.531,0.04 -34.364,67.1 -26.171,7.53 9.148,-73.36 -12.777,0.31 c -1.235,0.03 -1.618,-1.66 -0.489,-2.17 l 13.012,-5.81 -35.785,-66.93 29.723,-3.81 49.82,51.2 2.465,-1.1 102.3,-23.25 c 12.58,-6.96 30.33,-21.47 18.89,-44.5 -16.86,-33.93 -94.27,-136.039 -94.27,-136.039 l 17.94,-0.293 c 11.66,-0.199 22.97,4.032 31.65,11.822 l 24.87,22.33 33.71,-3.67 c 4.79,-0.53 9.48,2.43 10.59,7.11 1.29,5.44 -2.38,10.73 -7.82,11.5 l -17.13,2.42 36.56,32.81 33.71,-3.67 c 4.8,-0.52 9.49,2.43 10.6,7.13 1.28,5.43 -2.38,10.71 -7.83,11.48 l -17.14,2.44 55.56,49.86 101.13,-13.02"
         style="fill:#17282f;fill-opacity:1;fill-rule:nonzero;stroke:none"
         id="path89267" />
      <path
         d="m 427.645,1285.61 c -5.766,3.24 -11.477,6.57 -17.137,9.99 l -5.176,-8.55 c 5.75,-3.48 11.559,-6.87 17.414,-10.16 z m -33.93,20.54 c -5.535,3.61 -11.016,7.31 -16.438,11.1 l -5.73,-8.2 c 5.512,-3.85 11.082,-7.61 16.711,-11.28 z m -32.496,22.73 c -5.285,3.96 -10.508,8.02 -15.664,12.16 l -6.262,-7.8 c 5.242,-4.21 10.555,-8.33 15.926,-12.36 z m -30.914,24.83 c -5.008,4.31 -9.95,8.7 -14.821,13.18 l -6.765,-7.36 c 4.953,-4.56 9.976,-9.02 15.066,-13.4 z m -29.188,26.84 c -4.707,4.62 -9.344,9.34 -13.902,14.13 l -7.246,-6.89 c 4.636,-4.88 9.351,-9.67 14.136,-14.37 z m -27.324,28.72 c -4.383,4.93 -8.691,9.94 -12.922,15.04 l -7.691,-6.39 c 4.3,-5.18 8.683,-10.28 13.14,-15.29 z m -25.332,30.49 c -4.039,5.21 -8,10.5 -11.883,15.87 l -8.101,-5.86 c 3.945,-5.46 7.972,-10.84 12.082,-16.14 z m -23.227,32.12 c -3.679,5.47 -7.281,11.01 -10.793,16.62 l -8.476,-5.3 c 3.57,-5.71 7.23,-11.35 10.973,-16.9 z m -21.027,33.6 c -3.305,5.69 -6.527,11.46 -9.66,17.3 l -8.813,-4.73 c 3.188,-5.94 6.465,-11.8 9.825,-17.59 z m -18.746,34.91 c -2.148,4.34 -4.246,8.71 -6.301,13.12 -0.742,1.6 -1.48,3.21 -2.211,4.81 l -9.101,-4.14 c 0.742,-1.63 1.492,-3.26 2.25,-4.89 2.086,-4.48 4.218,-8.93 6.402,-13.33 z m -16.43,36.12 c -2.547,6.13 -4.984,12.28 -7.308,18.45 l -9.36,-3.53 c 2.367,-6.27 4.844,-12.52 7.434,-18.75 z m -14.004,37.12 c -2.132,6.28 -4.156,12.58 -6.066,18.89 l -9.574,-2.9 c 1.945,-6.42 4.004,-12.82 6.172,-19.2 z m -11.5,37.97 c -1.711,6.4 -3.304,12.82 -4.789,19.25 l -9.746,-2.25 c 1.512,-6.54 3.137,-13.07 4.871,-19.58 z m -8.929,38.65 c -1.274,6.5 -2.438,13.01 -3.489,19.52 l -9.871,-1.59 c 1.067,-6.62 2.25,-13.24 3.543,-19.86 z m -6.317,39.15 c -0.832,6.57 -1.554,13.15 -2.168,19.72 l -9.957,-0.93 c 0.621,-6.68 1.36,-13.36 2.207,-20.04 z m -3.672,39.5 c -0.39,6.61 -0.671,13.21 -0.843,19.81 l -9.996,-0.25 v 0 c 0.171,-6.72 0.457,-13.43 0.859,-20.15 z m -1.023,39.65 c 0.051,6.63 0.211,13.24 0.48,19.85 l -9.992,0.41 v 0 c -0.273,-6.72 -0.437,-13.45 -0.488,-20.18 z m 1.625,39.66 c 0.488,6.6 1.086,13.19 1.797,19.76 l -9.945,1.07 v 0 c -0.719,-6.68 -1.329,-13.38 -1.829,-20.09 z m 4.242,39.45 c 0.926,6.56 1.957,13.09 3.098,19.6 l -9.852,1.72 v 0 c -1.156,-6.62 -2.207,-13.26 -3.148,-19.92 z m 6.836,39.08 c 1.352,6.48 2.809,12.93 4.371,19.35 l -9.715,2.37 v 0 c -1.59,-6.53 -3.074,-13.09 -4.445,-19.67 z m 9.375,38.55 c 1.77,6.36 3.645,12.7 5.625,19.01 l -9.543,3 c -2.012,-6.42 -3.918,-12.86 -5.719,-19.33 z m 11.863,37.84 c 2.18,6.24 4.461,12.44 6.844,18.61 l -9.324,3.6 c -2.426,-6.27 -4.742,-12.57 -6.961,-18.91 z m 14.289,36.98 c 2.579,6.08 5.258,12.13 8.036,18.13 l -9.079,4.2 c -2.82,-6.1 -5.543,-12.24 -8.164,-18.42 z m 16.649,35.98 c 2.965,5.9 6.027,11.75 9.183,17.56 l -8.785,4.78 c -3.211,-5.9 -6.32,-11.85 -9.336,-17.85 z m 18.93,34.82 c 3.335,5.69 6.769,11.34 10.293,16.93 l -8.461,5.33 c -3.582,-5.68 -7.071,-11.42 -10.461,-17.2 z m 21.125,33.52 c 3.695,5.46 7.484,10.87 11.363,16.23 l -8.102,5.86 c -3.941,-5.44 -7.789,-10.94 -11.543,-16.49 z m 23.234,32.08 c 4.039,5.21 8.164,10.37 12.379,15.46 l -7.703,6.37 c -4.285,-5.17 -8.477,-10.41 -12.582,-15.71 z m 25.242,30.51 c 4.363,4.94 8.813,9.81 13.344,14.62 l -7.277,6.86 c -4.61,-4.89 -9.129,-9.84 -13.559,-14.86 z m 27.145,28.81 c 4.668,4.64 9.418,9.22 14.25,13.73 l -6.821,7.31 c -4.914,-4.58 -9.738,-9.23 -14.48,-13.95 z m 28.929,26.99 c 4.965,4.35 10.012,8.62 15.137,12.82 l -6.336,7.74 c -5.211,-4.27 -10.34,-8.61 -15.383,-13.03 z m 30.68,25.14 c 5.234,4.02 10.543,7.96 15.93,11.83 l -5.832,8.12 c -5.473,-3.93 -10.868,-7.93 -16.184,-12.01 z m 32.23,23.13 c 5.477,3.67 11.028,7.26 16.653,10.78 l -5.301,8.48 c -5.715,-3.57 -11.355,-7.22 -16.922,-10.96 z m 33.637,21.02 c 5.699,3.31 11.469,6.55 17.305,9.7 l -4.75,8.8 c -5.93,-3.2 -11.789,-6.49 -17.578,-9.86 z m 34.906,18.85 c 5.305,2.65 10.661,5.24 16.071,7.75 l 1.82,0.85 -4.191,9.08 -1.852,-0.86 c -5.492,-2.56 -10.933,-5.18 -16.32,-7.88 z m 36.04,16.63 c 6.113,2.6 12.242,5.09 18.39,7.47 l -3.613,9.32 c -6.246,-2.42 -12.473,-4.95 -18.684,-7.58 z m 37.007,14.34 c 6.258,2.21 12.535,4.3 18.825,6.29 l -3.016,9.53 c -6.391,-2.02 -12.766,-4.14 -19.125,-6.38 z m 37.836,11.97 c 6.387,1.8 12.782,3.49 19.188,5.07 l -2.403,9.71 c -6.507,-1.61 -13.003,-3.33 -19.492,-5.16 z m 38.524,9.52 c 6.484,1.38 12.976,2.66 19.468,3.83 l -1.769,9.84 c -6.602,-1.19 -13.195,-2.48 -19.785,-3.89 z m 39.05,7.03 c 6.559,0.96 13.118,1.82 19.676,2.57 l -1.133,9.93 c -6.668,-0.76 -13.332,-1.63 -19.996,-2.61 z m 39.422,4.5 c 6.606,0.54 13.203,0.97 19.801,1.3 l -0.492,9.98 v 0 c -6.703,-0.33 -13.41,-0.77 -20.121,-1.31 z m 39.629,1.95 c 3.465,0.06 6.926,0.09 10.387,0.09 3.16,0 6.316,-0.03 9.473,-0.07 l 0.152,9.99 v 0 c -3.207,0.05 -6.414,0.08 -9.625,0.08 v 0 c -3.516,0 -7.035,-0.03 -10.555,-0.09 z m 39.711,-0.61 c 6.621,-0.32 13.231,-0.74 19.821,-1.27 l 0.8,9.97 v 0 c -6.699,0.54 -13.414,0.97 -20.144,1.29 z m 39.586,-3.18 c 6.586,-0.73 13.149,-1.59 19.695,-2.54 l 1.442,9.9 v 0 c -6.652,0.97 -13.324,1.83 -20.016,2.58 z m 39.293,-5.72 c 6.52,-1.16 13.012,-2.43 19.481,-3.8 l 2.078,9.78 v 0 c -6.575,1.4 -13.176,2.68 -19.801,3.87 z m 38.828,-8.24 c 6.43,-1.58 12.824,-3.26 19.192,-5.05 l 2.703,9.63 c -6.469,1.81 -12.969,3.52 -19.504,5.13 z m 38.207,-10.72 c 6.309,-2 12.582,-4.09 18.821,-6.29 l 3.32,9.43 c -6.336,2.23 -12.715,4.36 -19.125,6.39 z m 37.426,-13.18 c 6.164,-2.4 12.285,-4.9 18.367,-7.5 l 3.926,9.2 c -6.18,2.64 -12.402,5.18 -18.668,7.62 z m 36.478,-15.58 c 5.99,-2.79 11.94,-5.68 17.84,-8.67 l 4.51,8.93 c -5.99,3.03 -12.03,5.97 -18.13,8.8 z m 35.38,-17.91 c 5.79,-3.18 11.54,-6.45 17.22,-9.81 l 5.1,8.6 c -5.79,3.42 -11.62,6.75 -17.51,9.98 z m 34.12,-20.19 c 5.57,-3.54 11.08,-7.18 16.53,-10.92 l 5.65,8.26 c -5.54,3.79 -11.15,7.49 -16.81,11.1 z m 32.7,-22.37 c 5.32,-3.91 10.58,-7.91 15.77,-11.99 l 6.18,7.86 c -5.28,4.15 -10.63,8.22 -16.03,12.18 z m 31.14,-24.49 c 5.04,-4.25 10.02,-8.58 14.93,-13 l 6.69,7.43 c -4.99,4.5 -10.06,8.9 -15.18,13.22 z m 29.42,-26.49 c 4.75,-4.57 9.42,-9.22 14.03,-13.96 l 7.17,6.96 c -4.68,4.82 -9.44,9.56 -14.26,14.2 z m 27.58,-28.38 c 4.43,-4.88 8.78,-9.83 13.05,-14.87 l 7.63,6.48 c -4.35,5.12 -8.78,10.16 -13.28,15.11 z m 25.6,-30.15 c 4.1,-5.17 8.12,-10.42 12.06,-15.74 l 8.04,5.94 c -4.01,5.42 -8.1,10.76 -12.26,16.01 z m 23.58,-31.88 c 3.74,-5.43 7.4,-10.93 10.98,-16.51 l 8.42,5.39 c -3.64,5.68 -7.36,11.28 -11.16,16.8 z m 21.4,-33.38 c 3.36,-5.66 6.65,-11.4 9.85,-17.21 l 8.76,4.82 c -3.26,5.91 -6.59,11.74 -10.02,17.5 z m 19.12,-34.73 c 2.99,-5.88 5.89,-11.82 8.7,-17.83 l 9.05,4.24 c -2.85,6.11 -5.8,12.15 -8.83,18.12 z m 16.8,-35.93 c 2.61,-6.1 5.11,-12.22 7.51,-18.36 l 9.31,3.63 c -2.43,6.24 -4.97,12.46 -7.63,18.66 l -9.19,-3.93"
         style="fill:#17282f;fill-opacity:1;fill-rule:nonzero;stroke:none"
         id="path89269" />
      <path
         d="m 1386.13,1692.65 c 3.36,-9.7 13.74,-15.04 23.58,-12.14 11.76,3.46 18.87,16.01 15.81,27.88 l -25.3,98.05 -0.71,2.02 42.44,57.19 5.48,-14.88 c 1.67,-4.53 6.4,-7.41 11.1,-6.31 5.44,1.27 8.54,6.9 6.8,12.12 l -9.32,28.02 31.92,43 7.64,-20.74 c 1.72,-4.64 6.73,-7.17 11.48,-5.77 4.48,-2.44 9.63,1.87 8.02,6.71 l -12.95,38.94 21.17,28.52 c 7.87,10.61 10.61,24.18 7.45,37.02 l -2.52,10.22 -81.92,-72.45 c 0,0 -52.11,-47.23 -85.03,-32 l -37.68,108.03 -0.65,1.38 44.77,60.66 -4.92,26.78 -61.6,-40.87 -5.41,11.58 c -0.53,1.12 -2.21,0.71 -2.16,-0.52 l 0.59,-14.25 -75.87,2.23 9.84,-28.3 68.03,-21.8 0.11,-2.7 24.75,-101.95 c -0.61,-14.36 -5.7,-36.71 -31.42,-36.73 -37.89,-0.02 -163.79,23.8 -163.79,23.8 l 7.73,-16.19 c 5.02,-10.53 13.84,-18.77 24.69,-23.08 l 31.06,-12.32 11.73,-31.81 c 1.66,-4.52 6.4,-7.41 11.1,-6.31 5.43,1.27 8.53,6.9 6.8,12.12 l -5.46,16.42 45.67,-18.12 11.72,-31.82 c 1.67,-4.52 6.4,-7.42 11.1,-6.31 5.44,1.27 8.54,6.9 6.8,12.12 l -5.46,16.43 69.39,-27.53 33.4,-96.34"
         style="fill:#17282f;fill-opacity:1;fill-rule:nonzero;stroke:none"
         id="path89271" />
      <path
         d="m 1847.5,1510.52 c 3.73,-5.44 7.4,-10.95 11.02,-16.53 l 8.39,5.44 c -3.67,5.65 -7.39,11.23 -11.16,16.74 z m 21.64,-33.33 c 3.46,-5.62 6.87,-11.3 10.22,-17.04 l 8.63,5.04 c -3.39,5.81 -6.83,11.56 -10.33,17.25 z m 20.03,-34.33 c 3.19,-5.77 6.32,-11.61 9.4,-17.51 l 8.87,4.63 c -3.12,5.97 -6.29,11.87 -9.52,17.72 z m 18.4,-35.23 c 2.92,-5.92 5.78,-11.89 8.59,-17.92 l 9.06,4.21 c -2.83,6.1 -5.73,12.15 -8.68,18.14 z m 16.77,-36.04 c 2.65,-6.05 5.24,-12.15 7.77,-18.3 l 9.25,3.81 c -2.56,6.22 -5.18,12.39 -7.86,18.5 z m 15.13,-36.76 c 1.9,-4.93 3.76,-9.89 5.59,-14.87 0.45,-1.26 0.91,-2.52 1.37,-3.78 l 9.4,3.39 c -0.46,1.28 -0.92,2.55 -1.38,3.82 -1.85,5.04 -3.73,10.05 -5.65,15.03 z m 13.49,-37.43 c 2.12,-6.31 4.16,-12.62 6.12,-18.93 l 9.55,2.97 c -1.98,6.38 -4.05,12.76 -6.19,19.14 z m 11.81,-37.99 c 1.83,-6.4 3.59,-12.79 5.26,-19.18 l 9.67,2.53 c -1.69,6.47 -3.46,12.93 -5.31,19.4 z m 10.08,-38.48 c 1.54,-6.47 3,-12.94 4.37,-19.4 l 9.78,2.09 c -1.39,6.53 -2.86,13.08 -4.42,19.63 z m 8.3,-38.89 c 1.23,-6.54 2.39,-13.07 3.46,-19.59 l 9.87,1.63 c -1.09,6.59 -2.26,13.2 -3.51,19.81 z m 6.46,-39.24 c 0.92,-6.6 1.76,-13.17 2.52,-19.73 l 9.93,1.15 c -0.77,6.64 -1.62,13.29 -2.55,19.96 z m 4.56,-39.51 c 0.6,-6.62 1.12,-13.23 1.55,-19.82 l 9.98,0.66 c -0.44,6.67 -0.96,13.36 -1.57,20.07 z m 2.6,-39.67 c 0.27,-6.65 0.45,-13.27 0.55,-19.87 l 10,0.15 c -0.1,6.68 -0.28,13.39 -0.55,20.12 z m 0.58,-39.75 c -0.07,-6.66 -0.24,-13.28 -0.49,-19.87 l 9.99,-0.39 c 0.26,6.69 0.42,13.4 0.5,20.14 z m -1.52,-39.722 c -0.44,-6.636 -0.96,-13.25 -1.58,-19.808 l 9.96,-0.93 c 0.62,6.649 1.15,13.352 1.6,20.078 z m -3.71,-39.558 c -0.81,-6.61 -1.71,-13.168 -2.7,-19.68 l 9.88,-1.512 c 1.01,6.614 1.92,13.274 2.75,19.973 z m -5.98,-39.27 c -1.2,-6.55 -2.49,-13.039 -3.88,-19.48 l 9.78,-2.102 c 1.41,6.543 2.72,13.133 3.93,19.782 z m -8.36,-38.82 c -1.6,-6.461 -3.3,-12.852 -5.1,-19.18 l 9.63,-2.73 c 1.82,6.441 3.55,12.941 5.18,19.5 z m -10.83,-38.18 c -2.02,-6.332 -4.15,-12.59 -6.37,-18.781 l 9.41,-3.379 c 2.26,6.301 4.42,12.672 6.49,19.11 l -9.53,3.05"
         style="fill:#17282f;fill-opacity:1;fill-rule:nonzero;stroke:none"
         id="path89273" />
      <path
         d="m 1790.76,1668.23 c -5.27,8.8 -16.53,11.91 -25.57,7.05 -10.79,-5.8 -15.18,-19.53 -9.77,-30.52 l 44.85,-90.8 1.1,-1.83 -29.83,-64.66 -8.41,13.43 c -2.56,4.09 -7.78,5.95 -12.16,3.91 -5.06,-2.35 -6.94,-8.51 -4.17,-13.26 l 14.86,-25.51 -22.44,-48.63 -11.73,18.74 c -2.63,4.2 -8.06,5.63 -12.42,3.29 v 0.01 c -4.88,1.46 -9.04,-3.81 -6.47,-8.22 l 20.64,-35.45 -14.88,-32.25 c -5.53,-12.01 -5.43,-25.85 0.29,-37.76 l 4.55,-9.5 65.37,87.68 c 0,0 41.32,56.9 76.67,48.74 l 59,-98.03 0.92,-1.22 -31.41,-68.54 10.3,-25.21 51.93,52.62 7.66,-10.23 c 0.75,-0.98 2.32,-0.24 2.02,0.96 l -3.5,13.82 74.71,13.35 -15.41,25.69 -71.06,7.41 -0.66,2.62 -45.11,94.73 c -2.32,14.18 -1.92,37.1 23.25,42.38 37.08,7.77 165.19,10.24 165.19,10.24 l -10.88,14.26 c -7.07,9.28 -17.39,15.54 -28.89,17.53 l -32.93,5.71 -17.99,28.73 c -2.55,4.09 -7.78,5.94 -12.15,3.91 -5.06,-2.36 -6.95,-8.5 -4.17,-13.26 l 8.7,-14.95 -48.41,8.38 -18,28.75 c -2.56,4.09 -7.78,5.94 -12.16,3.9 -5.06,-2.35 -6.93,-8.5 -4.17,-13.26 l 8.71,-14.96 -73.55,12.74 -52.42,87.47"
         style="fill:#17282f;fill-opacity:1;fill-rule:nonzero;stroke:none"
         id="path89275" />
      <path
         d="m 3057.92,1177.15 c 2.07,2.64 4.13,5.27 6.17,7.93 l -7.92,6.1 c -2.02,-2.62 -4.06,-5.23 -6.11,-7.86 l 7.86,-6.17"
         style="fill:#17282f;fill-opacity:1;fill-rule:nonzero;stroke:none"
         id="path89277" />
      <path
         d="m 3076.19,1201.16 c 3.99,5.42 7.9,10.88 11.76,16.37 l -8.19,5.74 c -3.81,-5.43 -7.68,-10.82 -11.62,-16.18 z m 23.15,32.99 c 3.74,5.59 7.41,11.21 11.02,16.86 l -8.44,5.38 c -3.56,-5.59 -7.19,-11.15 -10.89,-16.68 z m 21.65,33.97 c 3.49,5.75 6.91,11.53 10.26,17.35 l -8.67,4.99 c -3.31,-5.75 -6.69,-11.47 -10.14,-17.15 z m 20.12,34.91 c 3.23,5.9 6.38,11.83 9.47,17.79 l -8.88,4.59 c -3.05,-5.89 -6.17,-11.75 -9.36,-17.58 z m 18.53,35.78 c 2.96,6.03 5.84,12.1 8.65,18.19 l -9.07,4.19 c -2.79,-6.02 -5.64,-12.02 -8.56,-17.99 z m 16.89,36.57 c 2.68,6.17 5.29,12.35 7.82,18.57 l -9.26,3.77 c -2.5,-6.14 -5.08,-12.26 -7.73,-18.35 z m 15.22,37.31 c 2.39,6.27 4.71,12.58 6.96,18.9 l -9.42,3.35 c -2.22,-6.25 -4.52,-12.48 -6.89,-18.69 z m 13.49,37.96 c 2.1,6.38 4.13,12.78 6.08,19.2 l -9.57,2.91 c -1.93,-6.35 -3.93,-12.68 -6.01,-18.98 z m 11.72,38.54 c 1.8,6.47 3.53,12.96 5.18,19.46 l -9.69,2.46 c -1.63,-6.43 -3.34,-12.84 -5.12,-19.24 z m 9.91,39.04 c 1.5,6.55 2.93,13.11 4.27,19.69 l -9.8,2 c -1.32,-6.5 -2.73,-12.98 -4.21,-19.46 z m 8.07,39.47 c 1.19,6.61 2.3,13.23 3.34,19.86 l -9.88,1.54 c -1.02,-6.56 -2.12,-13.1 -3.3,-19.63 z m 6.19,39.8 c 0.88,6.66 1.67,13.32 2.38,20 l -9.94,1.06 c -0.7,-6.59 -1.49,-13.18 -2.35,-19.76 z m 4.28,40.05 c 0.55,6.69 1.02,13.39 1.41,20.09 l -9.98,0.58 c -0.39,-6.62 -0.85,-13.24 -1.4,-19.85 z m 2.33,40.21 c 0.23,6.71 0.37,13.42 0.43,20.14 l -10,0.09 c -0.06,-6.63 -0.2,-13.26 -0.42,-19.89 z m 0.37,40.28 c -0.11,6.71 -0.29,13.42 -0.57,20.13 l -9.99,-0.4 c 0.27,-6.63 0.46,-13.26 0.56,-19.89 z m -1.63,40.24 c -0.43,6.7 -0.95,13.39 -1.56,20.08 l -9.96,-0.9 c 0.6,-6.61 1.11,-13.22 1.54,-19.83 z m -3.62,40.11 c -0.78,6.67 -1.63,13.33 -2.57,19.98 l -9.9,-1.4 c 0.92,-6.57 1.77,-13.14 2.53,-19.73 z m -5.64,39.88 c -1.11,6.62 -2.3,13.23 -3.58,19.82 l -9.82,-1.9 c 1.26,-6.51 2.44,-13.03 3.53,-19.57 z m -7.66,39.55 c -1.44,6.55 -2.96,13.08 -4.57,19.61 l -9.71,-2.4 c 1.59,-6.44 3.1,-12.9 4.52,-19.36 z m -9.65,39.09 c -1.77,6.47 -3.63,12.92 -5.57,19.35 l -9.58,-2.89 c 1.92,-6.35 3.76,-12.72 5.51,-19.1 z m -11.64,38.55 c -2.1,6.37 -4.29,12.71 -6.56,19.04 l -9.41,-3.38 c 2.24,-6.24 4.4,-12.51 6.47,-18.79 z m -13.6,37.9 c -2.42,6.25 -4.93,12.47 -7.52,18.68 l -9.23,-3.86 c 2.56,-6.12 5.03,-12.27 7.43,-18.43 z m -15.52,37.15 c -2.74,6.11 -5.56,12.2 -8.47,18.26 l -9.02,-4.32 c 2.87,-5.98 5.66,-12 8.36,-18.03 z m -17.4,36.3 c -3.04,5.96 -6.17,11.9 -9.38,17.81 l -8.79,-4.78 c 3.17,-5.83 6.26,-11.69 9.27,-17.58 z m -19.22,35.37 c -0.88,1.53 -1.76,3.06 -2.65,4.58 -2.51,4.28 -5.05,8.53 -7.62,12.75 l -8.54,-5.22 c 2.54,-4.16 5.05,-8.36 7.53,-12.58 0.88,-1.51 1.75,-3.01 2.62,-4.52 z m -20.99,34.38 c -3.66,5.67 -7.38,11.28 -11.17,16.83 l -8.26,-5.64 c 3.74,-5.48 7.42,-11.02 11.03,-16.61 z m -22.77,33.36 c -3.94,5.47 -7.95,10.87 -12.01,16.22 l -7.96,-6.05 c 4.01,-5.28 7.97,-10.62 11.86,-16.02 z m -24.44,32.13 c -4.21,5.26 -8.49,10.45 -12.82,15.58 l -7.64,-6.45 c 4.28,-5.07 8.5,-10.19 12.66,-15.39 z m -26.04,30.83 c -4.48,5.03 -9.02,10 -13.61,14.89 l -7.29,-6.83 c 4.53,-4.84 9.01,-9.74 13.43,-14.71 z m -27.59,29.44 c -4.73,4.79 -9.51,9.51 -14.35,14.17 l -6.93,-7.2 c 4.77,-4.6 9.5,-9.27 14.16,-14 z m -29.05,27.97 c -4.96,4.54 -9.98,9.01 -15.05,13.42 l -6.56,-7.55 c 5.01,-4.35 9.96,-8.76 14.86,-13.25 z m -30.43,26.45 c -5.19,4.28 -10.42,8.49 -15.71,12.64 l -6.17,-7.88 c 5.22,-4.09 10.39,-8.25 15.51,-12.47 z m -31.73,24.86 c -5.39,4.01 -10.83,7.95 -16.32,11.83 l -5.76,-8.18 c 5.42,-3.82 10.79,-7.71 16.12,-11.67 z m -32.93,23.23 c -5.58,3.73 -11.21,7.39 -16.88,10.99 l -5.35,-8.46 c 5.6,-3.54 11.16,-7.16 16.68,-10.84 z m -34.04,21.55 c -5.76,3.44 -11.56,6.82 -17.4,10.13 l -4.93,-8.71 c 5.77,-3.26 11.51,-6.6 17.2,-10 z m -35.05,19.83 c -5.93,3.16 -11.89,6.24 -17.88,9.26 l -4.49,-8.94 c 5.92,-2.98 11.81,-6.03 17.66,-9.15 z m -35.98,18.08 c -6.07,2.87 -12.17,5.66 -18.31,8.38 l -4.05,-9.14 c 6.06,-2.69 12.09,-5.45 18.09,-8.28 z m -36.81,16.32 c -6.19,2.57 -12.42,5.06 -18.68,7.48 l -3.61,-9.32 c 6.18,-2.39 12.34,-4.86 18.46,-7.4 z m -37.54,14.52 c -6.31,2.27 -12.65,4.47 -19.01,6.59 l -3.16,-9.49 c 6.29,-2.09 12.55,-4.26 18.79,-6.51 z m -38.18,12.73 c -6.4,1.97 -12.84,3.86 -19.3,5.68 l -2.71,-9.62 c 6.38,-1.8 12.74,-3.67 19.08,-5.62 z m -38.73,10.91 c -6.49,1.67 -13.01,3.26 -19.55,4.78 l -2.26,-9.74 c 6.47,-1.5 12.91,-3.08 19.33,-4.72 l 2.48,9.68 v 0"
         style="fill:#17282f;fill-opacity:1;fill-rule:nonzero;stroke:none"
         id="path89279" />
      <path
         d="m 2601.1,2497.86 c -3.28,0.68 -6.56,1.34 -9.85,1.99 l -1.92,-9.81 c 3.25,-0.64 6.49,-1.3 9.73,-1.97 l 2.04,9.79"
         style="fill:#17282f;fill-opacity:1;fill-rule:nonzero;stroke:none"
         id="path89281" />
      <path
         d="m 2994.85,1132.71 c -4.86,-9.03 -1.77,-20.29 7.02,-25.58 10.51,-6.31 24.56,-3.05 31.23,7.23 l 55.06,84.99 1.01,1.88 70.82,7.47 -7.24,-14.12 c -2.21,-4.28 -1.12,-9.72 2.86,-12.44 4.61,-3.14 10.86,-1.6 13.53,3.21 l 14.31,25.82 53.26,5.61 -10.09,-19.67 c -2.26,-4.4 -0.73,-9.81 3.52,-12.36 1.24,-4.94 7.89,-5.82 10.37,-1.36 l 19.9,35.88 35.32,3.72 c 13.14,1.39 24.99,8.57 32.29,19.57 l 5.82,8.77 -108.77,11.28 c 0,0 -70.04,6.4 -81.1,40.94 l 54.02,100.86 0.58,1.41 74.96,8.09 16.39,21.75 -71.79,17.69 4.86,11.82 c 0.47,1.14 -0.96,2.11 -1.84,1.23 l -10.08,-10.07 -49.71,57.36 -14.19,-26.4 30,-64.83 -1.91,-1.91 -58.3,-87.23 c -10.99,-9.25 -30.89,-20.64 -48.31,-1.71 -25.66,27.88 -93.33,136.68 -93.33,136.68 l -6.69,-16.64 c -4.35,-10.83 -4.45,-22.91 -0.28,-33.79 l 11.96,-31.21 -15.48,-30.17 c -2.21,-4.29 -1.13,-9.73 2.86,-12.44 4.61,-3.15 10.86,-1.61 13.53,3.2 l 8.38,15.13 17.57,-45.88 -15.49,-30.18 c -2.19,-4.28 -1.12,-9.72 2.88,-12.44 4.61,-3.14 10.86,-1.61 13.52,3.2 l 8.39,15.14 26.71,-69.72 -48.33,-89.78"
         style="fill:#17282f;fill-opacity:1;fill-rule:nonzero;stroke:none"
         id="path89283" />
      <path
         d="m 1256.15,2975.26 c 5.7,3.41 11.43,6.75 17.19,10.03 l -4.95,8.69 c -5.82,-3.31 -11.61,-6.69 -17.37,-10.14 z m 34.59,19.66 c 5.85,3.15 11.72,6.23 17.62,9.23 l -4.53,8.92 c -5.97,-3.05 -11.92,-6.16 -17.83,-9.34 z m 35.45,18.05 c 5.98,2.87 11.99,5.67 18.03,8.39 l -4.11,9.12 c -6.11,-2.76 -12.19,-5.59 -18.25,-8.49 z m 36.25,16.35 c 6.11,2.58 12.25,5.09 18.41,7.52 l -3.66,9.3 c -6.24,-2.46 -12.45,-4.99 -18.64,-7.6 z m 37,14.57 c 6.22,2.28 12.47,4.48 18.75,6.6 l -3.2,9.47 c -6.36,-2.14 -12.69,-4.37 -18.99,-6.67 z m 37.65,12.72 c 6.33,1.96 12.68,3.85 19.06,5.65 l -2.72,9.62 c -6.46,-1.83 -12.89,-3.73 -19.3,-5.72 z m 38.25,10.8 c 6.41,1.64 12.85,3.19 19.31,4.66 l -2.22,9.75 c -6.54,-1.49 -13.07,-3.06 -19.56,-4.72 z m 38.73,8.82 c 6.49,1.31 13,2.52 19.53,3.66 l -1.72,9.85 c -6.61,-1.15 -13.2,-2.38 -19.77,-3.7 z m 39.14,6.81 c 6.54,0.96 13.1,1.84 19.68,2.63 l -1.19,9.92 c -6.67,-0.8 -13.32,-1.69 -19.95,-2.66 z m 39.42,4.74 c 6.58,0.62 13.18,1.15 19.8,1.6 l -0.68,9.98 c -6.7,-0.46 -13.38,-1 -20.05,-1.62 l 0.94,-9.96 z m 39.62,2.68 c 6.6,0.27 13.21,0.46 19.84,0.56 l -0.15,10 v 0 c -6.72,-0.1 -13.42,-0.29 -20.1,-0.57 z m 39.71,0.6 c 6.63,-0.07 13.25,-0.22 19.85,-0.47 l 0.37,10 v 0 c -6.69,0.24 -13.39,0.4 -20.11,0.47 z m 39.69,-1.46 c 6.62,-0.42 13.22,-0.92 19.8,-1.51 l 0.89,9.96 v 0 c -6.67,0.6 -13.36,1.11 -20.06,1.53 z m 39.63,-3.55 c 6.61,-0.76 13.19,-1.61 19.76,-2.55 l 1.41,9.9 v 0 c -6.65,0.95 -13.32,1.81 -20.02,2.59 z m 39.42,-5.62 c 6.54,-1.11 13.06,-2.3 19.56,-3.57 l 1.93,9.81 v 0 c -6.59,1.29 -13.19,2.5 -19.82,3.62 z m 39.01,-7.66 c 6.46,-1.44 12.9,-2.97 19.32,-4.57 l 2.43,9.7 v 0 c -6.5,1.63 -13.02,3.17 -19.57,4.64 z m 38.5,-9.64 c 6.37,-1.77 12.72,-3.62 19.04,-5.56 l 2.92,9.57 v 0 c -6.4,1.95 -12.83,3.83 -19.28,5.62 z m 37.92,-11.58 c 6.26,-2.09 12.49,-4.25 18.71,-6.5 l 3.39,9.41 v 0 c -6.29,2.27 -12.6,4.47 -18.94,6.58 z m 37.24,-13.44 c 6.17,-2.4 12.31,-4.88 18.43,-7.43 l 3.85,9.23 c -6.19,2.58 -12.41,5.09 -18.65,7.52 z m 36.68,-15.31 c 6.04,-2.69 12.06,-5.46 18.05,-8.31 l 4.29,9.03 c -6.06,2.88 -12.15,5.69 -18.27,8.41 z m 35.9,-17.05 c 5.91,-2.98 11.79,-6.03 17.65,-9.15 l 4.7,8.82 c -5.92,3.16 -11.87,6.25 -17.85,9.26 z m 35.08,-18.71 c 5.76,-3.24 11.5,-6.56 17.21,-9.95 l 5.1,8.6 c -5.77,3.43 -11.57,6.78 -17.4,10.07 z m 34.2,-20.29 c 5.61,-3.5 11.2,-7.07 16.75,-10.7 l 5.48,8.36 c -5.62,3.68 -11.26,7.29 -16.94,10.83 z m 33.27,-21.78 c 5.46,-3.74 10.89,-7.54 16.29,-11.42 l 5.82,8.13 c -5.45,3.91 -10.94,7.76 -16.45,11.54 z m 32.32,-23.18 c 5.3,-3.97 10.56,-8 15.8,-12.1 l 6.16,7.88 c -5.29,4.13 -10.61,8.21 -15.96,12.22 z m 31.34,-24.52 c 5.13,-4.18 10.23,-8.42 15.3,-12.72 l 6.47,7.62 c -5.12,4.35 -10.26,8.63 -15.45,12.85 z m 30.34,-25.75 c 4.96,-4.38 9.89,-8.82 14.79,-13.32 l 6.76,7.36 c -4.94,4.55 -9.92,9.03 -14.93,13.45 z m 29.32,-26.92 c 4.79,-4.57 9.54,-9.2 14.27,-13.88 l 7.03,7.11 c -4.76,4.72 -9.57,9.39 -14.4,14.01 z m 28.28,-28.01 c 4.62,-4.75 9.2,-9.54 13.76,-14.39 l 7.29,6.84 c -4.6,4.89 -9.22,9.73 -13.88,14.52 z m 27.25,-29.03 c 4.44,-4.91 8.86,-9.87 13.23,-14.88 l 7.53,6.58 c -4.41,5.06 -8.86,10.06 -13.35,15.01 z m 26.21,-29.99 c 4.27,-5.05 8.51,-10.16 12.71,-15.32 l 7.75,6.32 c -4.24,5.2 -8.51,10.35 -12.82,15.46 z m 25.16,-30.86 c 4.1,-5.21 8.16,-10.46 12.19,-15.75 l 7.96,6.06 c -4.06,5.33 -8.16,10.62 -12.29,15.87 z m 24.12,-31.7 c 3.93,-5.33 7.82,-10.72 11.67,-16.14 l 8.15,5.79 c -3.88,5.47 -7.8,10.89 -11.76,16.27 z m 23.08,-32.47 c 3.76,-5.46 7.47,-10.96 11.16,-16.5 l 8.33,5.53 c -3.72,5.59 -7.46,11.13 -11.24,16.64 z m 22.05,-33.18 c 3.58,-5.58 7.12,-11.2 10.63,-16.85 l 8.5,5.27 c -3.54,5.7 -7.11,11.36 -10.72,16.98 z m 21.01,-33.86 c 3.41,-5.68 6.78,-11.4 10.12,-17.16 l 8.65,5.02 c -3.36,5.8 -6.76,11.56 -10.19,17.29 z m 19.99,-34.47 c 3.24,-5.78 6.44,-11.6 9.61,-17.46 l 8.79,4.76 c -3.19,5.9 -6.41,11.76 -9.68,17.58 z m 18.96,-35.05 c 3.07,-5.87 6.11,-11.78 9.1,-17.73 l 8.93,4.5 c -3.02,5.99 -6.07,11.94 -9.16,17.86 z m 17.95,-35.59 c 2.9,-5.96 5.77,-11.95 8.6,-17.98 l 9.05,4.25 c -2.85,6.07 -5.73,12.11 -8.66,18.11 z m 16.94,-36.07 c 2.74,-6.04 5.44,-12.11 8.1,-18.22 l 9.16,4 c -2.68,6.15 -5.39,12.26 -8.15,18.34 z m 15.94,-36.54 c 2.57,-6.11 5.1,-12.25 7.6,-18.43 l 9.27,3.75 c -2.51,6.22 -5.06,12.4 -7.65,18.55 z m 14.95,-36.96 c 2.4,-6.18 4.77,-12.38 7.1,-18.62 l 9.36,3.5 c -2.34,6.28 -4.72,12.53 -7.14,18.75 z m 13.95,-37.34 c 2.24,-6.24 4.44,-12.51 6.61,-18.81 l 9.45,3.26 c -2.18,6.33 -4.39,12.64 -6.65,18.93 z m 12.97,-37.7 c 2.07,-6.3 4.11,-12.62 6.12,-18.97 l 9.53,3.01 c -2.01,6.39 -4.06,12.75 -6.15,19.09 z m 11.99,-38.02 c 1.91,-6.35 3.79,-12.73 5.63,-19.13 l 9.61,2.77 c -1.85,6.44 -3.74,12.85 -5.66,19.24 z m 11.02,-38.32 c 1.75,-6.4 3.47,-12.81 5.15,-19.26 l 9.68,2.52 c -1.69,6.48 -3.42,12.94 -5.18,19.38 z m 10.06,-38.59 c 1.59,-6.44 3.14,-12.9 4.66,-19.38 l 9.74,2.28 c -1.53,6.52 -3.09,13.03 -4.7,19.51 z m 9.09,-38.82 c 1.43,-6.48 2.83,-12.97 4.19,-19.49 l 9.79,2.04 c -1.37,6.56 -2.77,13.09 -4.22,19.61 z m 8.14,-39.04 c 1.27,-6.51 2.51,-13.04 3.71,-19.59 l 9.84,1.81 c -1.21,6.59 -2.45,13.16 -3.74,19.71 z m 7.19,-39.22 c 1.12,-6.54 2.2,-13.1 3.24,-19.67 l 9.88,1.56 c -1.05,6.62 -2.14,13.22 -3.26,19.8 z m 6.25,-39.38 c 0.96,-6.57 1.88,-13.15 2.77,-19.75 l 9.91,1.33 c -0.89,6.64 -1.82,13.26 -2.79,19.87 z m 5.31,-39.53 c 0.8,-6.58 1.57,-13.19 2.3,-19.8 l 9.94,1.09 c -0.73,6.66 -1.51,13.3 -2.32,19.93 z m 4.38,-39.64 c 0.65,-6.6 1.26,-13.22 1.84,-19.85 l 9.96,0.86 c -0.58,6.68 -1.2,13.33 -1.85,19.97 z m 3.45,-39.73 c 0.49,-6.61 0.95,-13.24 1.38,-19.89 l 9.98,0.63 c -0.43,6.69 -0.89,13.36 -1.39,20.01 z m 2.53,-39.8 c 0.34,-6.63 0.65,-13.27 0.92,-19.92 l 9.99,0.41 c -0.27,6.69 -0.58,13.37 -0.93,20.03 z m 1.61,-39.85 c 0.19,-6.61 0.35,-13.24 0.46,-19.88 l 10,0.17 c -0.12,6.68 -0.27,13.35 -0.46,20 z m 0.7,-39.8 c 0.03,-3.72 0.04,-7.43 0.04,-11.15 0,-2.94 -0.01,-5.87 -0.02,-8.8 l 10,-0.05 c 0.01,2.95 0.02,5.9 0.02,8.85 0,3.74 -0.01,7.48 -0.04,11.21 z m -0.2,-39.89 c -0.11,-6.66 -0.25,-13.3 -0.44,-19.94 l 10,-0.28 c 0.19,6.68 0.33,13.36 0.44,20.06 z m -1.1,-39.87 c -0.26,-6.65 -0.56,-13.3 -0.9,-19.92 l 9.99,-0.51 c 0.34,6.67 0.64,13.35 0.9,20.04 z m -2.02,-39.83 c -0.41,-6.65 -0.87,-13.28 -1.35,-19.9 l 9.97,-0.74 c 0.49,6.66 0.94,13.33 1.36,20.02 z m -2.94,-39.78 c -0.57,-6.63 -1.17,-13.25 -1.81,-19.86 l 9.95,-0.97 c 0.65,6.65 1.25,13.31 1.83,19.98 z m -3.86,-39.69 c -0.72,-6.62 -1.48,-13.23 -2.28,-19.82 l 9.93,-1.2 c 0.8,6.63 1.57,13.27 2.29,19.93 z m -4.79,-39.6 c -0.88,-6.6 -1.79,-13.18 -2.74,-19.75 l 9.89,-1.43 c 0.96,6.6 1.88,13.22 2.76,19.86 z m -5.72,-39.47 c -1.04,-6.57 -2.11,-13.13 -3.22,-19.67 l 9.86,-1.68 c 1.12,6.59 2.19,13.18 3.24,19.8 z m -6.67,-39.31 c -1.19,-6.56 -2.42,-13.09 -3.69,-19.6 l 9.82,-1.91 c 1.27,6.55 2.51,13.12 3.71,19.72 z m -7.61,-39.15 c -1.35,-6.52 -2.74,-13.02 -4.16,-19.5 l 9.76,-2.15 c 1.44,6.52 2.83,13.06 4.19,19.62 z m -8.56,-38.95 c -1.51,-6.48 -3.06,-12.94 -4.64,-19.39 l 9.71,-2.38 c 1.59,6.48 3.15,12.98 4.67,19.51 z m -9.52,-38.72 c -1.67,-6.44 -3.38,-12.87 -5.12,-19.27 l 9.65,-2.63 c 1.75,6.44 3.47,12.91 5.15,19.39 z m -10.48,-38.47 c -1.84,-6.4 -3.7,-12.78 -5.61,-19.13 l 9.58,-2.87 c 1.92,6.39 3.8,12.81 5.64,19.25 z m -11.45,-38.19 c -2,-6.36 -4.03,-12.68 -6.09,-18.99 l 9.5,-3.11 c 2.08,6.34 4.12,12.71 6.13,19.1 z M 2565,1247.23 c -2.16,-6.3 -4.35,-12.57 -6.58,-18.82 l 9.42,-3.36 c 2.24,6.29 4.45,12.6 6.62,18.94 z m -13.4,-37.54 c -2.33,-6.25 -4.68,-12.46 -7.08,-18.64 l 9.33,-3.61 c 2.41,6.22 4.78,12.48 7.12,18.76 z m -14.4,-37.18 c -2.48,-6.18 -5.01,-12.33 -7.56,-18.44 l 9.22,-3.86 c 2.58,6.16 5.12,12.34 7.62,18.56 z m -15.38,-36.78 c -2.65,-6.1 -5.34,-12.18 -8.07,-18.22 l 9.12,-4.11 c 2.74,6.08 5.45,12.2 8.12,18.35 z m -16.38,-36.34 c -2.82,-6.03 -5.68,-12.03 -8.57,-17.99 l 9,-4.36 c 2.91,6 5.78,12.04 8.62,18.12 z m -17.39,-35.86 c -2.99,-5.95 -6.02,-11.87 -9.08,-17.75 l 8.87,-4.61 c 3.09,5.92 6.13,11.88 9.14,17.87 z m -18.4,-35.36 c -3.16,-5.86 -6.36,-11.68 -9.58,-17.47 l 8.73,-4.87 c 3.25,5.83 6.47,11.7 9.65,17.6 z m -19.42,-34.799 c -3.33,-5.762 -6.69,-11.492 -10.09,-17.18 l 8.58,-5.132 c 3.43,5.73 6.81,11.5 10.17,17.312 z m -20.44,-34.199 c -3.5,-5.66 -7.04,-11.293 -10.61,-16.871 l 8.42,-5.391 c 3.6,5.629 7.16,11.289 10.69,17 z m -21.47,-33.57 c -3.68,-5.551 -7.39,-11.063 -11.13,-16.524 l 8.25,-5.648 c 3.78,5.511 7.51,11.058 11.21,16.652 z m -22.51,-32.872 c -3.85,-5.429 -7.73,-10.82 -11.64,-16.171 l 8.06,-5.911 c 3.95,5.391 7.86,10.821 11.74,16.301 z m -23.54,-32.14 c -4.02,-5.301 -8.08,-10.559 -12.17,-15.77 l 7.87,-6.172 c 4.12,5.25 8.21,10.563 12.26,15.903 z m -24.59,-31.328 c -4.19,-5.172 -8.42,-10.293 -12.68,-15.364 l 7.65,-6.429 c 4.3,5.113 8.56,10.269 12.79,15.48 z m -25.63,-30.492 c -4.37,-5.02 -8.77,-9.981 -13.2,-14.899 l 7.42,-6.699 c 4.48,4.957 8.92,9.969 13.32,15.039 z m -26.68,-29.579 c -2.11,-2.261 -4.23,-4.5 -6.35,-6.742 l 7.25,-6.89 c 2.14,2.261 4.27,4.523 6.4,6.8 l -7.3,6.832"
         style="fill:#17282f;fill-opacity:1;fill-rule:nonzero;stroke:none"
         id="path89285" />
      <path
         d="m 2060.86,505.309 c -6.05,-8.278 -4.54,-19.86 3.45,-26.297 9.55,-7.692 23.91,-6.403 31.93,2.879 l 66.2,76.629 1.26,1.73 71.17,-2.328 -9.11,-12.973 c -2.77,-3.961 -2.44,-9.5 1.13,-12.73 4.14,-3.739 10.54,-3.078 13.84,1.32 l 17.72,23.609 53.53,-1.75 -12.7,-18.097 c -2.85,-4.051 -2.06,-9.61 1.8,-12.719 0.54,-5.07 7.01,-6.852 10.08,-2.773 l 24.63,32.812 35.49,-1.16 c 13.22,-0.43 25.93,5.051 34.68,14.949 l 6.97,7.891 -106.2,26.109 c 0,0 -68.49,15.93 -74.71,51.668 l 67.34,92.492 0.77,1.321 75.36,-2.27 19.21,19.301 -68.67,27.367 6.45,11.031 c 0.61,1.078 -0.68,2.219 -1.66,1.481 l -11.37,-8.59 -41.37,63.629 -17.67,-24.199 20.81,-68.34 -2.15,-1.621 -69.73,-78.399 c -12.15,-7.672 -33.43,-16.222 -48.08,4.918 -21.59,31.133 -73.7,148.199 -73.7,148.199 l -8.9,-15.57 c -5.79,-10.129 -7.55,-22.066 -4.91,-33.437 l 7.55,-32.551 -19.47,-27.75 c -2.77,-3.949 -2.45,-9.481 1.12,-12.731 4.15,-3.738 10.54,-3.07 13.84,1.321 l 10.39,13.84 11.12,-47.86 -19.49,-27.762 c -2.77,-3.949 -2.45,-9.488 1.13,-12.718 4.14,-3.75 10.53,-3.09 13.84,1.32 l 10.4,13.84 16.87,-72.719 -60.19,-82.312"
         style="fill:#17282f;fill-opacity:1;fill-rule:nonzero;stroke:none"
         id="path89287" />
      <path
         d="m 1435.44,3107.46 c -17.13,0 -31.02,13.9 -31.02,31.02 0,17.14 13.89,31.03 31.02,31.03 17.14,0 31.03,-13.89 31.03,-31.03 0,-17.12 -13.89,-31.02 -31.03,-31.02 z m 1.04,105.48 c -41.69,0 -75.49,-33.8 -75.49,-75.48 0,-41.69 75.49,-135.47 75.49,-135.47 0,0 75.49,93.78 75.49,135.47 0,41.68 -33.8,75.48 -75.49,75.48"
         style="fill:#17282f;fill-opacity:1;fill-rule:nonzero;stroke:none"
         id="path89289" />
      <path
         d="m 2487.89,2754.95 c -17.13,0 -31.02,13.89 -31.02,31.02 0,17.14 13.89,31.03 31.02,31.03 17.13,0 31.02,-13.89 31.02,-31.03 0,-17.13 -13.89,-31.02 -31.02,-31.02 z m 1.03,105.48 c -41.69,0 -75.49,-33.8 -75.49,-75.49 0,-41.69 75.49,-135.46 75.49,-135.46 0,0 75.49,93.77 75.49,135.46 0,41.69 -33.8,75.49 -75.49,75.49"
         style="fill:#17282f;fill-opacity:1;fill-rule:nonzero;stroke:none"
         id="path89291" />
      <path
         d="m 1957.83,603.578 c -17.14,0 -31.03,13.891 -31.03,31.012 0,17.129 13.89,31.031 31.03,31.031 17.13,0 31.01,-13.902 31.01,-31.031 0,-17.121 -13.88,-31.012 -31.01,-31.012 z m 1.03,105.473 c -41.69,0 -75.49,-33.801 -75.49,-75.492 0,-41.688 75.49,-135.457 75.49,-135.457 0,0 75.48,93.769 75.48,135.457 0,41.691 -33.79,75.492 -75.48,75.492"
         style="fill:#17282f;fill-opacity:1;fill-rule:nonzero;stroke:none"
         id="path89293" />
      <path
         d="m 1420.83,1521.92 c -17.14,0 -31.03,13.9 -31.03,31.02 0,17.14 13.89,31.03 31.03,31.03 17.12,0 31.02,-13.89 31.02,-31.03 0,-17.12 -13.9,-31.02 -31.02,-31.02 z m 1.03,105.48 c -41.69,0 -75.49,-33.8 -75.49,-75.49 0,-41.69 75.49,-135.46 75.49,-135.46 0,0 75.48,93.77 75.48,135.46 0,41.69 -33.79,75.49 -75.48,75.49"
         style="fill:#17282f;fill-opacity:1;fill-rule:nonzero;stroke:none"
         id="path89295" />
    </g>
  </g>
</svg>
