<svg xmlns="http://www.w3.org/2000/svg" height="48" viewBox="0 -960 960 960" width="48"><path d="M480.084-484.761q31.155 0 53.275-22.084 22.119-22.085 22.119-53.239 0-31.155-22.134-53.275-22.134-22.119-53.359-22.119-31.224 0-53.224 22.134-22 22.134-22 53.359 0 31.224 22.084 53.224 22.085 22 53.239 22ZM480-62.804q-171.239-142-254.217-262.142-82.979-120.141-82.979-229.293 0-151.564 100.347-247.88 100.346-96.316 236.856-96.316 22.609 0 43.797 3.5 21.189 3.5 43.14 7.699v168.388h128.904v128.761h119.044q.21 9.486 1.376 17.661 1.167 8.176 1.167 18.187 0 109.152-83.098 229.293Q651.239-204.804 480-62.804Zm255.848-567.283v-128.761H607.087v-74.674h128.761v-128.761h74.674v128.761h128.521v74.674H810.522v128.761h-74.674Z"/></svg>