<svg xmlns="http://www.w3.org/2000/svg" height="48" viewBox="0 -960 960 960" width="48"><path d="M440-437ZM100.109-102.804q-30.746 0-54.025-23.28-23.28-23.279-23.28-54.025v-512.782q0-30.482 23.28-54.013t54.025-23.531h140.456l78.196-87h281.282v77.544H352.196l-77.913 87H100.109v512.782h679.782v-420.174h77.544v420.174q0 30.746-23.531 54.025-23.531 23.28-54.013 23.28H100.109ZM790.38-700.283V-791h-90.337v-67.054H791v-91.098h67.174v91.717h90.739v67.055h-91.359v90.097H790.38ZM439.508-263.522q74.245 0 124.108-49.818 49.862-49.819 49.862-123.872 0-73.302-49.983-123.284-49.982-49.982-124.108-49.982t-123.496 49.906q-49.369 49.906-49.369 123.628 0 73.922 49.47 123.672 49.469 49.75 123.516 49.75Zm-.283-73.956q-41.986 0-70.366-28.311-28.381-28.31-28.381-71.141t28.451-71.331q28.452-28.5 70.642-28.5t71.19 28.134q29 28.134 29 71.261 0 43.127-28.675 71.507-28.675 28.381-71.861 28.381Z"/></svg>