<svg xmlns="http://www.w3.org/2000/svg" height="48" viewBox="0 -960 960 960" width="48"><path d="M790.38-700.283V-791h-90.337v-67.054H791v-91.098h67.174v91.717h90.739v67.055h-91.359v90.097H790.38ZM440.008-263.522q73.745 0 123.608-49.818 49.862-49.819 49.862-123.372 0-73.802-49.983-123.784-49.982-49.982-123.608-49.982-74.626 0-123.996 49.906-49.369 49.906-49.369 124.128 0 73.422 49.47 123.172 49.469 49.75 124.016 49.75Zm-.283-73.956q-42.486 0-70.866-28.311-28.381-28.31-28.381-70.641 0-43.331 28.451-71.831 28.452-28.5 71.142-28.5 41.69 0 70.69 28.134t29 71.761q0 42.627-28.675 71.007-28.675 28.381-71.361 28.381ZM100.109-102.804q-30.746 0-54.025-23.28-23.28-23.279-23.28-54.025v-512.782q0-30.482 23.28-54.013t54.025-23.531h140.456l78.196-87h321.282V-731H731v90.717h126.435v460.174q0 30.746-23.531 54.025-23.531 23.28-54.013 23.28H100.109Z"/></svg>