<svg xmlns="http://www.w3.org/2000/svg" height="48" viewBox="0 -960 960 960" width="48"><path d="M816.652-46.304 647.674-212.522q-35 14-78.739 21.359-43.739 7.359-88.935 7.359-151.043 0-275.663-85.142Q79.717-354.087 21.761-500q18.522-52.761 53.859-102.739t85.858-97.218L35.435-825.283l50.282-51.521L863.935-98.587l-47.283 52.283ZM480-321.587q13.522 0 27.924-2.62 14.402-2.619 23.163-6.38l-220.978-220.5q-3.522 10.761-6.022 24.283-2.5 13.521-2.5 26.804 0 75.565 52.424 126.989Q406.435-321.587 480-321.587Zm292.391 41.152L637.087-415.739q10.283-16.565 15.804-39.37 5.522-22.804 5.522-44.891 0-74.565-51.924-126.489Q554.565-678.413 480-678.413q-22.326 0-44.793 5.402-22.468 5.402-39.468 15.685L279.913-774.913q35.522-15.522 92.783-28.402Q429.957-816.196 485-816.196q147.804 0 271.543 85.142Q880.283-645.913 938.239-500q-25.522 67.522-68.282 122.663-42.761 55.141-97.566 96.902ZM578.826-474.239 451.805-601.022q24.934-9.521 53.086-4.217 28.152 5.304 49 23.674 20.609 20.608 28.913 46.38 8.305 25.772-3.978 60.946Z"/></svg>