<svg xmlns="http://www.w3.org/2000/svg" height="48" viewBox="0 -960 960 960" width="48"><path d="M480.16-321.587q74.405 0 126.329-52.084 51.924-52.084 51.924-126.489t-52.084-126.329q-52.084-51.924-126.489-51.924t-126.329 52.084q-51.924 52.084-51.924 126.489t52.084 126.329q52.084 51.924 126.489 51.924Zm-.457-69.478q-44.929 0-76.784-32.151-31.854-32.151-31.854-77.081 0-44.929 32.151-76.784 32.151-31.854 77.081-31.854 44.929 0 76.784 32.151 31.854 32.151 31.854 77.081 0 44.929-32.151 76.784-32.151 31.854-77.081 31.854ZM480-183.804q-151.761 0-275.261-87.479Q81.239-358.761 21.761-500q59.478-141.239 182.978-228.717 123.5-87.479 275.261-87.479 151.761 0 275.261 87.479Q878.761-641.239 938.239-500q-59.478 141.239-182.978 228.717-123.5 87.479-275.261 87.479Z"/></svg>